<?xml version="1.0" encoding="iso-8859-1"?>
<!-- Generator: Adobe Illustrator 16.0.0, SVG Export Plug-In . SVG Version: 6.00 Build 0)  -->
<!DOCTYPE svg PUBLIC "-//W3C//DTD SVG 1.1//EN" "http://www.w3.org/Graphics/SVG/1.1/DTD/svg11.dtd">
<svg version="1.1" id="Capa_1" xmlns="http://www.w3.org/2000/svg" xmlns:xlink="http://www.w3.org/1999/xlink" x="0px" y="0px"
	 width="589.947px" height="589.947px" viewBox="0 0 589.947 589.947" style="enable-background:new 0 0 589.947 589.947;"
	 xml:space="preserve">
<g>
	<g>
		<path d="M570.001,437.148c-34-11.602-68.9-19.301-104-24.801c4-5.801,4.6-14.1-3.4-17.4c-19-8-38.6-13.5-58.1-17.1
			c-0.3-4.6-3.1-9.199-8.3-10.699c-41.3-12.201-82.9-23-124.5-34.301c18.1,0,36.1-0.6,54.5-2.4c0.899,0,1.5-0.299,2.1-0.6
			c1.5,0.301,3.101,0.301,4.601,0.6c7.3,0.9,11-4.9,11.3-11c36.399,4.301,72.8,7.701,108.899,11.301
			c13.2,1.199,16.2-19.301,4.601-23.301c1.2-5.5-0.9-11.6-8.3-13.799c-18.7-5.5-37.601-10.4-56.9-14.7c7.7-4.6,6.7-18.7-3.1-22
			c-28.801-9.2-56.9-20.2-84.5-31.8c10.399,0.9,20.8,1.5,31.199,1.5c7.301-0.3,11.601-7,11-13.2c0.301-0.9,0.301-1.5,0.301-2.4
			c15,3.7,30,6.4,45.6,8.6c14.4,2.1,21.1-19.3,6.1-22.3c-6.399-1.2-12.899-2.8-19-4c0.9-4.9-1.199-10.4-7.699-12.5
			c-4.601-1.5-8.9-3.1-13.5-4.3c2.1-4.9,1.5-11-4-14.4c-8.601-4.6-17.101-9.2-25.4-13.8c5.2-1.8,8.3-8,6.7-13.2
			c1.5-1.5,2.8-3.7,3.399-5.8c4.601-4.9,4-15.6-4-17.4c-10.699-2.8-13.199-3.1-22.3-3.4c-0.3,0-0.6,0-1.2-0.3c-0.6,0-1.199,0-2.1,0
			c-0.3,0-0.3,0-0.6,0h-0.301c-0.3,0-0.899,0-1.199,0.3c-3.7,0.6-6.4,2.8-7.301,5.8c-1.8,2.8-2.1,6.1-0.3,8.9
			c-0.6,1.2-0.899,2.8-0.899,4c-2.101,0-4.3,0-6.7,0c-8.9,0-12.2,8.3-9.5,15c-5.8-0.9-11.3-1.5-17.1-2.1
			c-7.6-0.6-11.6,6.4-10.7,12.9c-6.4-1.8-13.2-3.7-19.6-5.8c-12.2-3.7-20.5,15.3-8.9,20.8c7,3.1,14.1,6.1,21.1,9.2
			c-6.7,1.2-11.6,8.6-9.8,14.4c-4-0.6-8-1.2-12.2-1.8c-11.6-1.5-15.9,16.8-5.8,21.7c12.2,6.1,24.5,11.9,36.7,17.7
			c-18.4-5.8-36.4-12.2-54.5-19.3c-13.8-5.2-19.6,14.7-9.2,22c3.1,2.1,6.1,4,9.2,6.1c-19-3.1-37.9-6.4-56.6-11.3
			c-15-4-21.1,18.7-6.4,23.3c5.2,1.5,10.1,3.1,15.3,4.6c-4-0.3-8-0.9-12.2-1.2c-14.1-0.9-15,19-3.1,23.3
			c32.4,11.6,65.8,20.199,99.4,26.9c-0.6,1.5-0.9,3.1-0.6,4.898c-24.2-1.199-48-3.1-72.2-4.898c-14.1-0.9-15.6,19.6-3.1,23.6
			c20.8,6.4,41.6,12.5,62.7,18.4c-39.8-5.801-79.3-11-119.6-11.602c-11.6-0.299-16.5,16.5-6.1,22.301c4,2.1,7.6,4,11.6,5.801
			c-15.3-2.102-30.6-4.602-45.9-7.301c-1.5-0.301-2.8,0-4,0c-12.2-4.301-24.2-8.6-36.1-13.199c-12.2-4.602-20.5,15.299-8.9,21.1
			c26.3,13.199,53.5,22,81.1,29.1c23.9,8,47.7,15.301,71.9,22.301c-33.7-6.701-67.3-14.4-100.7-22.301c-12.2-3.1-21.1,15.6-8.9,21.1
			c0.9,0.301,1.8,0.6,2.8,1.201l0,0l0,0c35.5,15.6,71.9,27.799,109.2,37.299c-6.1,5.801-5.8,17.4,4.3,19.6c4,0.9,7.6,1.5,11.6,2.102
			c0.6,4.6,3.1,8.898,8,11c-3.7,6.699-1.8,16.199,7,17.398c1.2,0.301,2.1,0.301,3.4,0.301l0,0c0.3,0,0.3,0,0.6,0
			c8.3,1.199,16.2,1.801,24.2,2.4c-2.4,2.799-3.7,6.4-3.4,10.1c-6.1,0-12.2-0.301-18.1-0.301c-16.2-0.299-15.9,24.5,0,25.102
			c8.6,0.299,16.8,0.6,25.1,1.5c-2.4,2.1-3.7,4.898-4,8.299c-3.7-0.299-7.3-0.9-11-1.199c-14.1-1.801-17.4,22.6-3.4,24.799
			c2.8,0.301,5.2,0.9,7.7,1.201c-0.3,5.199,2.1,10.1,8.9,12.199c8.3,2.4,11.9,3.1,18.7,3.701c0.6,0,0.9,0.299,1.2,0.299
			c1.2,0,2.1,0,3.4,0c3.4,0,5.8-0.9,8-2.799c1.8-0.301,3.7-0.9,5.5-1.201c4-0.9,6.7-3.1,8-6.1c0.6,0,1.2-0.301,1.8-0.301
			c0.9,0,1.8-0.6,2.4-0.898c5.8,0.299,11.6,0.6,17.4,0.6c16.5,0.299,15.9-23.9,0-25.1c-1.8,0-3.699-0.301-5.5-0.602
			c3.101-0.6,5.8-1.199,8.9-1.5c8.3-1.199,10.399-9.5,8-16.199c0.6,0,1.2-0.301,1.8-0.301l0,0l0,0c1.2-0.299,2.1-0.299,3.4-0.299
			c7.6-1.201,9.8-8,8.3-14.4c8.3-2.4,16.5-5.801,24.8-10.4c4.3-2.4,6.1-6.699,5.8-11.299c2.8-0.301,5.2-0.301,8-0.602
			c10.7-0.898,13.8-11.299,10.101-18.398c1.199,0,2.399,0,3.699,0c42.2,2.1,84.801,2.398,126.7,1.5
			c9.8-0.301,14.101-10.701,10.7-18.102c17.4-0.299,35.2-0.6,52.9-1.799C581.001,460.748,583.501,441.748,570.001,437.148z
			 M429.301,435.648c-7-2.102-13.8-4.301-20.8-6.4c0.9,0,2.1-0.301,3.1-0.301c20.5,2.4,41,5.201,61.2,8.9
			C458.301,437.447,444.001,436.848,429.301,435.648z M412.401,403.848c-2.801,0.301-5.5,0.6-8.601,0.9c-26-2.4-52.3-4.6-78.3-6.4
			c-12.9-2.4-25.7-5.199-38.6-8C329.501,391.547,371.701,393.447,412.401,403.848z"/>
		<path d="M359.501,32.048c-4.3,0.6-8.6,0.9-12.9,1.5c-2.399-8.3-4.3-16.5-5.8-25.1c-2.1-12.9-19-9.5-22.6,0
			c-4,9.5-8.3,18.7-11.9,28.2c-8.899,0-18.1,0-26.9-0.9c-14.7-1.5-16.5,21.1-3.4,24.8c7.6,2.1,15,4.9,22.3,7.6c-0.3,2.1,0,4.3,0,6.7
			c-0.3,0.3-0.899,0.6-1.2,0.9c-13.2,10.4,5.5,28.8,18.4,18.4c5.8-4.6,11.6-9.5,17.4-14.1c4.6,1.2,8.899,2.4,13.5,3.4
			c10.399,1.8,19.6-8.3,13.8-18.1c-0.9-1.2-1.2-2.8-2.101-4c2.801-1.8,5.2-3.7,8-5.2C376.001,49.748,373.001,30.148,359.501,32.048z
			"/>
	</g>
</g>
<g>
</g>
<g>
</g>
<g>
</g>
<g>
</g>
<g>
</g>
<g>
</g>
<g>
</g>
<g>
</g>
<g>
</g>
<g>
</g>
<g>
</g>
<g>
</g>
<g>
</g>
<g>
</g>
<g>
</g>
</svg>
