<?xml version="1.0" encoding="iso-8859-1"?>
<!-- Generator: Adobe Illustrator 18.1.1, SVG Export Plug-In . SVG Version: 6.00 Build 0)  -->
<svg version="1.1" id="Capa_1" xmlns="http://www.w3.org/2000/svg" xmlns:xlink="http://www.w3.org/1999/xlink" x="0px" y="0px"
	 viewBox="0 0 53.977 53.977" style="enable-background:new 0 0 53.977 53.977;" xml:space="preserve">
<g>
	<g>
		<circle style="fill:#010002;" cx="21.839" cy="14.805" r="5.052"/>
		<polygon style="fill:#010002;" points="31.488,3.711 33.035,1.401 30.314,0.275 12.985,6.195 14.158,9.631 		"/>
		<polygon style="fill:#010002;" points="49.441,2.725 48.902,0 46.179,1.127 38.114,17.565 41.375,19.166 		"/>
		<path style="fill:#010002;" d="M45.804,47.873c-5.871-3.949-11.725-7.967-17.744-11.689c0.05-0.502,0.023-1.021-0.1-1.539
			c-0.011-0.037-0.786-3.363-1.271-7.644c3.215-0.152,6.425-0.409,9.643-0.579c2.436-0.129,3.383-2.523,2.819-4.284l0.728-1.479
			l1.18,0.581l0.557-1.135l-4.3-2.11l-0.558,1.135l1.043,0.511L37.428,20.4c-0.313-0.092-0.662-0.135-1.053-0.115
			c-4.662,0.247-9.316,0.681-13.994,0.706c-0.31-0.036-0.628-0.041-0.95-0.013c-0.192,0.017-0.38,0.048-0.563,0.087
			c-2.319-0.572-4.637-1.145-6.955-1.717c-1.017-3.104-2.034-6.209-3.052-9.314l1.183-0.404l0.426,1.245l1.194-0.408l-1.55-4.532
			l-1.192,0.409l0.372,1.097L9.766,7.963c-2.028-1.837-6.103-0.224-5.062,2.956c1.242,3.786,2.483,7.574,3.725,11.362
			c0.79,2.416,2.575,2.668,4.717,3.198c1.353,0.334,2.705,0.667,4.059,1.001c0.419,4.508,1.184,8.312,1.494,9.734
			c-2.552,0.502-5.104,1.004-7.655,1.508c-1.563,0.308-2.683,2.248-2.168,3.754c1.17,3.433,2.265,6.892,3.361,10.349
			c1.193,3.759,7.124,2.187,5.926-1.59c-0.764-2.408-1.538-4.815-2.328-7.22c2.594-0.51,5.187-1.021,7.779-1.53
			c0.332-0.063,0.62-0.17,0.874-0.304c6.199,3.808,12.212,7.947,18.25,12.007C46.025,55.397,49.073,50.069,45.804,47.873z"/>
	</g>
</g>
<g>
</g>
<g>
</g>
<g>
</g>
<g>
</g>
<g>
</g>
<g>
</g>
<g>
</g>
<g>
</g>
<g>
</g>
<g>
</g>
<g>
</g>
<g>
</g>
<g>
</g>
<g>
</g>
<g>
</g>
</svg>
