<?xml version="1.0" encoding="iso-8859-1"?>
<!-- Generator: Adobe Illustrator 19.0.0, SVG Export Plug-In . SVG Version: 6.00 Build 0)  -->
<svg version="1.1" id="Layer_1" xmlns="http://www.w3.org/2000/svg" xmlns:xlink="http://www.w3.org/1999/xlink" x="0px" y="0px"
	 viewBox="0 0 512 512" style="enable-background:new 0 0 512 512;" xml:space="preserve">
<g>
	<g>
		<path d="M510.365,360.414L441.48,259.522h25.551c3.483,0,6.681-1.927,8.307-5.008c1.627-3.08,1.416-6.807-0.548-9.683
			l-45.272-66.308h8.44c3.483,0,6.681-1.927,8.308-5.008c1.627-3.08,1.416-6.807-0.548-9.685l-40.721-59.641
			c-1.537-2.25-4.086-3.597-6.811-3.597s-5.274,1.346-6.811,3.597l-40.72,59.641c-1.964,2.877-2.175,6.604-0.549,9.685
			c1.627,3.08,4.823,5.008,8.307,5.008h8.44l-45.272,66.308c-1.964,2.877-2.175,6.604-0.548,9.683
			c1.627,3.08,4.823,5.008,8.308,5.008h25.551l-68.883,100.892c-1.964,2.877-2.175,6.604-0.549,9.685
			c1.626,3.08,4.823,5.008,8.307,5.008h77.364v85.658H171.283v-63.531l34.96-28.991c2.533-2.1,2.884-5.856,0.783-8.39
			l-13.642-16.451c-2.1-2.533-5.856-2.884-8.39-0.783l-13.711,11.37V297c7.16,3.276,15.123,5.101,23.512,5.101
			c31.265,0,56.611-25.345,56.611-56.611c0-4.163-0.463-8.218-1.315-12.125c24.359-6.324,42.345-28.458,42.345-54.795
			c0-26.665-18.441-49.011-43.262-55.014c1.443-4.995,2.231-10.269,2.231-15.73c0-31.265-25.345-56.611-56.611-56.611
			c-5.514,0-10.838,0.796-15.876,2.266c0.073-0.895,0.121-1.798,0.121-2.712c0-18.126-14.694-32.821-32.821-32.821
			s-32.821,14.694-32.821,32.821c0,0.914,0.048,1.816,0.121,2.712c-5.038-1.47-10.364-2.265-15.876-2.265
			c-31.265,0-56.611,25.345-56.611,56.611c0,5.46,0.789,10.733,2.231,15.73C18.441,129.559,0,151.904,0,178.57
			c0,26.337,17.987,48.471,42.345,54.795c-0.853,3.908-1.316,7.961-1.316,12.125c0,31.265,25.345,56.611,56.611,56.611
			c8.39,0,16.351-1.825,23.512-5.101v163.763H28.218c-9.192,0-16.644,7.452-16.644,16.644c0,9.192,7.452,16.644,16.644,16.644
			h463.809c9.192,0,16.644-7.452,16.644-16.644c0-9.192-7.452-16.644-16.644-16.644h-66.785v-85.658h77.364v0.001
			c3.483,0,6.681-1.927,8.306-5.008C512.538,367.018,512.328,363.291,510.365,360.414z"/>
	</g>
</g>
<g>
</g>
<g>
</g>
<g>
</g>
<g>
</g>
<g>
</g>
<g>
</g>
<g>
</g>
<g>
</g>
<g>
</g>
<g>
</g>
<g>
</g>
<g>
</g>
<g>
</g>
<g>
</g>
<g>
</g>
</svg>
