<?xml version="1.0" standalone="no"?>
<!DOCTYPE svg PUBLIC "-//W3C//DTD SVG 20010904//EN"
 "http://www.w3.org/TR/2001/REC-SVG-20010904/DTD/svg10.dtd">
<svg version="1.0" xmlns="http://www.w3.org/2000/svg"
 width="1213.000000pt" height="1280.000000pt" viewBox="0 0 1213.000000 1280.000000"
 preserveAspectRatio="xMidYMid meet">
<g transform="translate(0.000000,1280.000000) scale(0.100000,-0.100000)"
fill="#000000" stroke="none">
<path d="M768 12700 c-98 -101 -141 -161 -158 -221 -5 -18 -17 -96 -25 -173
-35 -324 -43 -356 -85 -356 -11 0 -27 11 -36 25 -19 29 -37 31 -85 11 -31 -13
-40 -12 -89 5 -71 26 -167 22 -207 -7 -117 -86 -110 -311 14 -518 35 -58 93
-138 238 -326 84 -108 180 -254 232 -350 l41 -75 5 -545 c4 -420 9 -569 21
-650 9 -58 16 -168 16 -245 0 -183 15 -337 41 -422 12 -37 45 -121 75 -185 66
-143 95 -260 98 -390 2 -75 6 -101 19 -116 19 -21 47 -95 47 -124 0 -11 16
-52 35 -91 19 -39 35 -76 35 -82 0 -6 16 -34 35 -61 19 -27 42 -70 51 -96 9
-27 21 -49 27 -49 7 -1 18 -2 25 -3 20 -2 32 -28 32 -73 0 -34 5 -46 25 -59
55 -36 122 -178 136 -287 6 -49 16 -77 33 -98 14 -16 29 -53 36 -86 22 -111
71 -234 109 -272 13 -13 21 -34 21 -55 0 -20 8 -42 17 -52 10 -10 23 -44 30
-75 14 -72 78 -209 126 -271 20 -26 48 -65 62 -88 16 -25 33 -40 46 -40 36 0
59 -19 59 -49 0 -16 7 -35 17 -42 9 -8 25 -34 36 -59 11 -25 28 -53 38 -63 11
-10 19 -29 19 -42 0 -14 9 -30 20 -37 25 -16 25 -29 0 -79 -23 -44 -20 -59 14
-59 35 0 52 -27 80 -125 14 -50 55 -176 91 -280 36 -104 84 -263 106 -354 22
-91 55 -229 74 -306 152 -612 247 -1751 190 -2280 -33 -308 -55 -450 -82 -517
-28 -70 -116 -107 -323 -133 -168 -21 -240 -40 -335 -85 -185 -89 -238 -228
-141 -368 40 -59 80 -76 152 -68 32 4 80 10 105 13 36 4 69 -3 151 -31 81 -28
120 -36 174 -36 68 0 86 4 194 34 30 9 91 20 136 26 84 11 190 42 260 78 52
26 96 77 134 152 l30 60 335 0 c363 0 411 5 474 50 63 46 72 101 96 595 15
311 32 521 60 716 18 131 41 431 55 709 6 118 15 283 21 365 14 199 93 713
118 770 24 54 92 129 147 161 93 55 241 64 432 28 41 -7 131 -18 200 -24 70
-6 217 -20 328 -31 110 -11 216 -18 235 -15 19 3 99 16 179 30 87 15 209 27
305 31 499 19 670 44 1210 181 332 83 429 97 480 70 46 -25 67 -69 124 -264
135 -457 300 -822 600 -1325 264 -444 339 -579 427 -767 44 -96 119 -251 166
-345 47 -93 110 -226 140 -295 128 -291 149 -420 87 -545 -57 -117 -148 -182
-320 -230 -120 -34 -155 -57 -202 -136 -58 -98 -64 -129 -44 -208 10 -36 27
-79 38 -94 12 -16 26 -50 33 -75 l11 -46 75 -24 c41 -12 76 -25 79 -27 11 -11
-38 -47 -132 -97 -166 -87 -255 -184 -286 -312 -17 -70 -7 -99 61 -171 167
-180 444 -258 747 -211 113 17 304 77 398 125 53 26 63 36 82 81 29 67 95 316
171 643 87 375 122 481 240 732 29 61 72 159 96 219 50 122 73 163 122 219 37
40 58 47 66 20 8 -28 24 -167 46 -413 29 -321 41 -389 90 -486 22 -45 60 -104
85 -132 43 -47 49 -51 118 -62 91 -16 263 -7 335 16 157 51 295 294 371 649
27 124 85 357 112 449 11 38 47 172 80 299 33 127 95 353 139 501 117 401 141
539 175 996 26 358 45 553 70 728 56 383 59 807 9 1191 -20 156 -36 218 -106
406 -117 310 -261 634 -352 788 -165 280 -421 520 -879 821 -432 283 -639 388
-958 485 -341 103 -497 126 -924 141 -154 6 -311 14 -350 20 -103 15 -306 28
-605 40 -323 13 -579 34 -725 60 -60 11 -189 29 -285 40 -205 24 -220 26 -540
90 -135 27 -328 65 -430 85 -102 20 -244 51 -316 70 -72 19 -166 40 -209 46
-186 26 -821 231 -1012 327 -131 66 -335 252 -459 417 -45 61 -117 144 -161
185 -114 109 -269 277 -303 329 -45 67 -42 115 13 181 23 29 51 63 62 76 25
31 25 86 -1 121 -12 15 -64 57 -117 93 -190 128 -547 465 -662 624 -135 186
-351 412 -471 492 -70 47 -231 109 -424 164 l-135 39 -206 208 c-113 114 -250
262 -304 328 -203 246 -236 283 -273 309 -67 46 -84 39 -194 -74z m9767 -7998
c6 -22 -15 -186 -50 -367 -13 -71 -29 -179 -35 -240 -10 -109 -53 -746 -66
-982 -4 -68 -10 -123 -14 -123 -15 0 -43 81 -61 175 -10 55 -28 134 -39 175
-32 118 -110 682 -110 800 0 123 7 139 100 250 39 47 112 140 163 207 51 68
95 123 99 123 4 0 9 -8 13 -18z"/>
</g>
</svg>
