<?xml version='1.0' encoding='iso-8859-1'?>
<svg version="1.1" xmlns="http://www.w3.org/2000/svg" viewBox="0 0 281.75 281.75" xmlns:xlink="http://www.w3.org/1999/xlink" enable-background="new 0 0 281.75 281.75">
  <g>
    <path d="m223.396,82.5c0-45.564-36.853-82.5-82.417-82.5s-82.625,36.936-82.625,82.5c0,39.736 28.375,72.9 65.375,80.738v17.463c-4,0.926-8,4.961-8,9.799v81c0,5.523 4.81,10.25 10.333,10.25h30c5.522,0 9.667-4.727 9.667-10.25v-81c0-5.186-4-9.447-9-9.949v-17.115c38-7.452 66.667-40.848 66.667-80.936zm-131.834,0c1.42109e-14-27.339 22.162-49.5 49.5-49.5 27.338,0 49.5,22.161 49.5,49.5s-22.162,49.5-49.5,49.5c-27.338,0-49.5-22.161-49.5-49.5z"/>
  </g>
</svg>
