<?xml version="1.0" encoding="iso-8859-1"?>
<!-- Generator: Adobe Illustrator 19.0.0, SVG Export Plug-In . SVG Version: 6.00 Build 0)  -->
<svg version="1.1" id="Layer_1" xmlns="http://www.w3.org/2000/svg" xmlns:xlink="http://www.w3.org/1999/xlink" x="0px" y="0px"
	 viewBox="0 0 512 512" style="enable-background:new 0 0 512 512;" xml:space="preserve">
<g>
	<g>
		<path d="M370.381,307.837c-12.011-4.968-19.772-16.575-19.772-29.576c0-54.299-43.326-100.174-94.609-100.174
			s-94.609,45.875-94.609,100.174c0,13-7.761,24.614-19.772,29.581c-35.315,14.614-58.141,48.875-58.141,87.288
			c0,52.168,42.446,94.609,94.609,94.609c13.185,0,25.956-2.668,37.978-7.935c25.381-11.125,54.478-11.142,79.881,0.006
			c12.011,5.261,24.782,7.929,37.967,7.929c52.163,0,94.609-42.44,94.609-94.609C428.522,356.711,405.695,322.445,370.381,307.837z"
			/>
	</g>
</g>
<g>
	<g>
		<path d="M178.087,22.261c-36.152,0-55.652,63.201-55.652,89.044c0,30.684,24.968,55.652,55.652,55.652
			s55.652-24.968,55.652-55.652C233.739,85.462,214.239,22.261,178.087,22.261z"/>
	</g>
</g>
<g>
	<g>
		<path d="M333.913,22.261c-36.152,0-55.652,63.201-55.652,89.044c0,30.684,24.968,55.652,55.652,55.652
			c30.684,0,55.652-24.968,55.652-55.652C389.565,85.462,370.065,22.261,333.913,22.261z"/>
	</g>
</g>
<g>
	<g>
		<path d="M55.652,155.826C19.501,155.826,0,219.027,0,244.87c0,30.684,24.968,55.652,55.652,55.652
			c30.684,0,55.652-24.968,55.652-55.652C111.304,219.027,91.804,155.826,55.652,155.826z"/>
	</g>
</g>
<g>
	<g>
		<path d="M456.348,155.826c-36.152,0-55.652,63.201-55.652,89.043c0,30.684,24.968,55.652,55.652,55.652
			c30.684,0,55.652-24.968,55.652-55.652C512,219.027,492.5,155.826,456.348,155.826z"/>
	</g>
</g>
<g>
</g>
<g>
</g>
<g>
</g>
<g>
</g>
<g>
</g>
<g>
</g>
<g>
</g>
<g>
</g>
<g>
</g>
<g>
</g>
<g>
</g>
<g>
</g>
<g>
</g>
<g>
</g>
<g>
</g>
</svg>
