<?xml version="1.0" encoding="iso-8859-1"?>
<!-- Generator: Adobe Illustrator 18.0.0, SVG Export Plug-In . SVG Version: 6.00 Build 0)  -->
<!DOCTYPE svg PUBLIC "-//W3C//DTD SVG 1.1//EN" "http://www.w3.org/Graphics/SVG/1.1/DTD/svg11.dtd">
<svg version="1.1" id="Capa_1" xmlns="http://www.w3.org/2000/svg" xmlns:xlink="http://www.w3.org/1999/xlink" x="0px" y="0px"
	 viewBox="0 0 464.846 464.846" style="enable-background:new 0 0 464.846 464.846;" xml:space="preserve">
<g>
	<path d="M463.506,376.787l-87.252-151.133l13.387-23.188c2.762-4.783,1.123-10.899-3.66-13.66c-4.785-2.761-10.9-1.123-13.66,3.66
		l-7.613,13.187l-18.422-31.906c-2.761-4.783-8.877-6.422-13.66-3.66c-4.783,2.761-6.422,8.877-3.66,13.66l24.194,41.904
		l-52.42,90.798l-56.766-98.321l25.064-43.414c2.762-4.783,1.123-10.899-3.66-13.66c-4.784-2.762-10.899-1.123-13.66,3.66
		l-19.292,33.414l-26.555-45.994c-2.761-4.783-8.877-6.422-13.66-3.66c-4.783,2.761-6.422,8.877-3.66,13.66l32.328,55.994
		l-56.769,98.326l-52.421-90.798l18.929-32.786c2.762-4.783,1.123-10.899-3.66-13.66c-4.782-2.761-10.899-1.123-13.66,3.66
		l-13.155,22.784l-8.182-14.171c-2.762-4.784-8.878-6.422-13.66-3.66c-4.783,2.761-6.422,8.877-3.66,13.66l13.953,24.167
		L1.34,376.787c-1.787,3.094-1.787,6.906,0,10c1.786,3.094,5.087,5,8.66,5h110.617l-14.066,24.362c-1.787,3.094-1.787,6.906,0,10
		c1.786,3.094,5.087,5,8.66,5H349.64c3.572,0,6.874-1.906,8.66-5s1.786-6.906,0-10l-14.065-24.362h110.611
		c3.572,0,6.874-1.906,8.66-5C465.293,383.693,465.293,379.881,463.506,376.787z M364.706,245.652l9.335,16.17H355.37
		L364.706,245.652z M174.66,338.182l26.555-45.995h62.423l26.555,45.995H174.66z M232.426,238.128l19.664,34.06h-39.329
		L232.426,238.128z M100.141,245.652l9.336,16.17H90.805L100.141,245.652z M79.259,281.822h41.764l31.54,54.631l-18.388,31.849
		l-25.373-43.945c-1.786-3.094-5.087-5-8.66-5s-6.874,1.906-8.66,5l-27.384,47.429H27.32L79.259,281.822z M113.092,371.787h-25.9
		l12.95-22.429L113.092,371.787z M163.113,358.182h54.759l-30.582,52.967h-54.757L163.113,358.182z M232.423,372.977l22.04,38.172
		h-44.079L232.423,372.977z M277.557,411.149l-30.583-52.967h54.765l30.581,52.967H277.557z M351.755,371.787l12.95-22.43
		l12.951,22.43H351.755z M400.75,371.787l-27.385-47.429c-1.786-3.094-5.088-5-8.66-5s-6.874,1.906-8.66,5l-25.37,43.941
		l-18.388-31.85l31.538-54.626h41.764l51.938,89.964H400.75z"/>
	<path d="M104.345,53.697h38.998c5.523,0,10-4.477,10-10s-4.477-10-10-10h-38.998c-5.523,0-10,4.477-10,10
		S98.822,53.697,104.345,53.697z"/>
	<path d="M180.841,53.697h16.499c5.523,0,10-4.477,10-10s-4.477-10-10-10h-16.499c-5.523,0-10,4.477-10,10
		S175.318,53.697,180.841,53.697z"/>
	<path d="M225.839,53.697h95.995c3.584,0,6.499,2.916,6.499,6.499c0,3.584-2.915,6.499-6.499,6.499h-61.497c-5.522,0-10,4.477-10,10
		s4.478,10,10,10h61.497c14.611,0,26.499-11.887,26.499-26.499c0-14.612-11.888-26.499-26.499-26.499h-95.995
		c-5.523,0-10,4.477-10,10S220.317,53.697,225.839,53.697z"/>
	<path d="M140.843,91.695c0,13.785,11.214,24.999,24.999,24.999h50.998c2.756,0,4.999,2.243,4.999,4.999c0,5.523,4.477,10,10,10
		c5.522,0,10-4.477,10-10c0-13.785-11.214-24.999-24.999-24.999h-50.998c-2.756,0-4.999-2.243-4.999-4.999s2.243-4.999,4.999-4.999
		h64.498c5.522,0,10-4.477,10-10s-4.478-10-10-10h-64.498C152.057,66.695,140.843,77.91,140.843,91.695z"/>
	<path d="M210.836,305.182c-2.63,0-5.21,1.07-7.07,2.93s-2.93,4.44-2.93,7.07c0,2.64,1.07,5.21,2.93,7.07
		c1.86,1.86,4.44,2.93,7.07,2.93c2.63,0,5.21-1.06,7.08-2.93c1.86-1.86,2.92-4.43,2.92-7.07c0-2.63-1.06-5.21-2.92-7.07
		C216.046,306.252,213.476,305.182,210.836,305.182z"/>
	<path d="M261.406,308.112c-1.859-1.86-4.439-2.93-7.069-2.93s-5.21,1.07-7.07,2.93s-2.93,4.44-2.93,7.07
		c0,2.63,1.069,5.21,2.93,7.07c1.86,1.87,4.44,2.93,7.07,2.93s5.21-1.06,7.069-2.93c1.86-1.86,2.931-4.44,2.931-7.07
		C264.337,312.552,263.266,309.972,261.406,308.112z"/>
	<path d="M231.839,137.192c-5.523,0-10,4.477-10,10v11.999c0,5.523,4.477,10,10,10c5.522,0,10-4.477,10-10v-11.999
		C241.839,141.669,237.361,137.192,231.839,137.192z"/>
</g>
<g>
</g>
<g>
</g>
<g>
</g>
<g>
</g>
<g>
</g>
<g>
</g>
<g>
</g>
<g>
</g>
<g>
</g>
<g>
</g>
<g>
</g>
<g>
</g>
<g>
</g>
<g>
</g>
<g>
</g>
</svg>
