<svg xmlns="http://www.w3.org/2000/svg" viewBox="0 0 512 512" style="height: 512px; width: 512px;"><path d="M0 0h512v512H0z" fill="url(#pattern)" fill-opacity="1"></path><g class="" transform="translate(0,0)" style="touch-action: none;"><g><path d="M105 32L105 62L296.607 62L313.27 32Z" class="" fill="#000000" fill-opacity="1"></path><path d="M108.805 80C113.114 90.899 103.453 109.724 99.529 118.588C88.523 143.291 70.801 176.19 57.509 214.018C44.219 251.846 35.297 294.883 42.359 340.137C49.422 385.391 72.677 432.493 121.919 477.633L124.5 480L387.5 480L390.08 477.633C439.323 432.493 462.578 385.391 469.64 340.137C476.703 294.883 467.781 251.846 454.49 214.017C441.2 176.19 423.477 143.291 412.47 118.587C407.995 108.541 404.728 99.836 403.158 93.215L328.041 128.488L391.078 160.783L354.811 239.24L416.732 258.445L263.211 396.615L329.186 280.496L270.986 277.324L318.721 181.01L245.511 153.992L286.61 80L108.805 80Z" class="selected" fill="#000000" fill-opacity="1"></path></g></g></svg>