<?xml version="1.0" standalone="no"?>
<!DOCTYPE svg PUBLIC "-//W3C//DTD SVG 20010904//EN"
 "http://www.w3.org/TR/2001/REC-SVG-20010904/DTD/svg10.dtd">
<svg version="1.0" xmlns="http://www.w3.org/2000/svg"
 width="584.000000pt" height="536.000000pt" viewBox="0 0 584.000000 536.000000"
 preserveAspectRatio="xMidYMid meet">
<metadata>
Created by potrace 1.15, written by Peter Selinger 2001-2017
</metadata>
<g transform="translate(0.000000,536.000000) scale(0.100000,-0.100000)"
fill="#000000" stroke="none">
<path d="M3020 5153 c1 -76 27 -133 75 -163 31 -19 39 -20 46 -9 14 23 10 81
-10 125 -17 36 -84 104 -103 104 -5 0 -8 -26 -8 -57z"/>
<path d="M2810 5158 c0 -9 13 -18 31 -22 44 -8 81 -53 112 -134 20 -49 42 -84
74 -115 l45 -45 -41 -27 c-50 -31 -51 -31 -182 38 -88 45 -100 49 -141 43 -25
-4 -67 -20 -92 -37 -46 -28 -52 -30 -176 -32 -82 -1 -133 -6 -141 -14 -25 -25
3 -33 124 -33 96 0 128 -3 145 -16 l23 -16 -23 -17 c-13 -10 -42 -28 -65 -40
-24 -12 -80 -45 -125 -75 -46 -30 -100 -61 -121 -70 -64 -26 -267 -196 -267
-223 0 -7 33 15 73 49 89 78 125 104 173 124 36 15 37 15 31 -6 -15 -57 -97
-178 -165 -244 -77 -74 -120 -126 -104 -126 5 0 54 39 108 86 87 75 107 100
166 197 42 69 81 123 104 139 20 16 58 48 84 72 26 25 74 58 106 74 54 27 61
29 79 15 50 -37 121 -64 207 -78 118 -20 155 -32 162 -52 4 -9 -3 -40 -14 -70
-11 -29 -20 -71 -20 -93 0 -21 -5 -42 -11 -46 -6 -3 -59 -1 -118 6 l-106 11
-92 -30 c-107 -36 -161 -38 -222 -11 -51 24 -61 25 -61 7 0 -8 24 -27 53 -43
66 -36 139 -38 212 -5 28 13 73 25 101 28 46 5 54 3 88 -27 20 -18 34 -35 31
-38 -3 -3 -37 -14 -76 -24 -85 -21 -140 -52 -278 -153 -128 -95 -127 -122 3
-41 95 60 138 76 265 101 46 9 102 23 124 31 77 27 114 20 193 -39 124 -91
112 -110 -111 -167 -88 -23 -173 -49 -190 -59 -43 -25 -174 -151 -191 -183
-23 -45 -16 -83 34 -180 l48 -93 -12 -120 c-7 -76 -25 -166 -47 -245 -99 -346
-138 -529 -154 -720 -14 -179 -16 -187 -48 -240 -43 -73 -55 -119 -54 -215 0
-92 11 -80 28 33 8 50 24 98 51 150 22 42 49 111 59 152 l20 75 0 -60 c1 -39
-8 -84 -24 -130 -37 -106 -34 -165 18 -298 50 -132 63 -112 23 35 -32 117 -32
149 0 218 15 30 34 80 44 110 17 54 17 54 25 25 4 -16 12 -50 18 -74 l12 -44
1 69 c1 52 9 90 34 154 42 107 45 203 10 294 l-22 59 68 62 c38 35 71 61 72
60 2 -2 -1 -35 -7 -74 -34 -221 8 -489 131 -831 l71 -195 3 -140 c8 -304 33
-463 104 -675 60 -181 67 -222 46 -293 -17 -59 -70 -117 -106 -117 -21 0 -74
-49 -94 -89 -8 -15 -19 -49 -24 -76 -5 -28 -13 -58 -17 -69 -15 -35 37 9 93
79 57 70 87 85 124 62 12 -8 48 -20 78 -26 30 -7 62 -19 72 -27 9 -9 57 -30
105 -48 79 -28 88 -34 96 -63 10 -35 35 -48 107 -57 38 -5 42 -3 26 7 -46 29
-90 74 -103 104 -7 19 -27 40 -46 49 -61 31 -62 35 -8 65 58 34 110 37 190 13
29 -8 55 -13 57 -11 5 5 -60 48 -99 65 -16 7 -58 17 -95 22 -83 11 -135 46
-179 120 -46 76 -44 86 20 94 115 13 204 7 269 -19 34 -14 64 -25 67 -25 11 0
-86 92 -111 106 -15 8 -41 14 -58 14 -72 0 -117 49 -145 161 l-16 65 39 130
c46 149 70 245 111 434 16 74 41 164 56 199 59 139 96 418 97 721 1 232 -10
316 -68 523 l-36 129 19 97 19 98 -66 -5 c-70 -5 -111 8 -141 44 -13 16 -12
17 11 10 14 -4 48 -9 76 -13 117 -13 181 77 144 205 -8 29 -7 32 5 22 38 -31
43 -147 10 -211 -15 -27 -15 -38 0 -113 8 -46 28 -112 44 -147 16 -35 61 -149
100 -253 l70 -188 -24 -132 c-29 -156 -49 -223 -73 -249 -23 -26 -20 -88 7
-152 l21 -50 -6 66 c-5 59 -3 72 19 110 14 24 30 62 37 84 28 89 41 81 60 -35
6 -41 25 -103 42 -138 41 -86 56 -176 39 -242 -13 -51 -8 -114 9 -125 6 -4 10
17 10 52 1 32 7 85 15 118 20 81 19 121 -6 215 -20 80 -23 161 -4 159 6 0 15
-22 21 -47 6 -26 19 -65 28 -87 10 -22 21 -62 25 -90 l7 -50 13 45 c14 50 10
80 -33 224 -14 48 -26 112 -26 140 0 28 -7 79 -16 111 -9 33 -33 130 -54 215
-21 85 -50 197 -65 249 l-26 93 41 194 c22 107 40 214 40 237 0 103 -130 265
-245 306 -117 43 -313 143 -318 163 -6 20 -3 24 59 67 28 20 51 49 70 88 26
52 29 70 32 179 4 114 2 124 -22 172 -16 31 -26 68 -26 94 0 143 -57 186 -273
208 -145 15 -166 30 -237 168 -45 88 -78 120 -135 129 -27 4 -35 2 -35 -9z
m-3 -348 c33 -17 68 -39 78 -50 18 -20 18 -21 -1 -35 -35 -29 -155 6 -248 71
-19 13 -18 14 15 28 51 23 89 19 156 -14z m1046 -1108 c48 -88 51 -129 20
-253 -15 -60 -30 -105 -34 -101 -3 4 -12 94 -19 201 -6 107 -14 201 -18 210
-12 33 24 -8 51 -57z m-949 -401 l11 -149 -26 -58 -27 -59 -12 30 c-16 39 -15
66 4 145 9 36 19 107 22 158 4 51 9 90 12 88 2 -3 10 -72 16 -155z m362 -1632
l-28 -54 6 210 c3 116 9 287 13 380 l7 170 15 -326 14 -326 -27 -54z"/>
</g>
</svg>
