<?xml version="1.0" encoding="iso-8859-1"?>
<!-- Generator: Adobe Illustrator 19.0.0, SVG Export Plug-In . SVG Version: 6.00 Build 0)  -->
<svg version="1.1" id="Layer_1" xmlns="http://www.w3.org/2000/svg" xmlns:xlink="http://www.w3.org/1999/xlink" x="0px" y="0px"
	 viewBox="0 0 511.999 511.999" style="enable-background:new 0 0 511.999 511.999;" xml:space="preserve">
<g>
	<g>
		<g>
			<path d="M168.414,275.967c3.605-7.232,2.837-15.872-2.027-22.336l-64-85.333c-8.043-10.752-26.069-10.752-34.112,0l-64,85.333
				c-4.864,6.464-5.632,15.104-2.027,22.336c3.627,7.232,11.008,11.797,19.072,11.797h21.355l-38.4,51.2
				c-4.864,6.464-5.632,15.104-2.027,22.336c3.627,7.232,11.008,11.797,19.072,11.797h42.667v85.333
				c0,11.776,9.557,21.333,21.333,21.333c11.797,0,21.333-9.557,21.333-21.333v-85.333h42.667c8.085,0,15.467-4.565,19.093-11.797
				c3.605-7.232,2.837-15.872-2.027-22.336l-38.4-51.2h21.333C157.406,287.765,164.788,283.199,168.414,275.967z"/>
			<path d="M339.081,147.967c3.605-7.232,2.837-15.872-2.027-22.336l-64-85.333c-8.043-10.752-26.069-10.752-34.112,0l-64,85.333
				c-4.864,6.464-5.632,15.104-2.027,22.336c3.627,7.232,11.008,11.797,19.072,11.797h21.355l-38.4,51.2
				c-4.864,6.464-5.632,15.104-2.027,22.336c3.627,7.232,11.008,11.797,19.072,11.797h21.355l-38.4,51.2
				c-4.864,6.464-5.632,15.104-2.027,22.336c3.627,7.232,11.008,11.797,19.072,11.797h42.667v85.333
				c0,11.776,9.557,21.333,21.333,21.333c11.797,0,21.333-9.557,21.333-21.333v-85.333h42.667c8.085,0,15.467-4.565,19.093-11.797
				c3.605-7.232,2.837-15.872-2.027-22.336l-38.4-51.2h21.333c8.085,0,15.467-4.565,19.093-11.797
				c3.605-7.232,2.837-15.872-2.027-22.336l-38.4-51.2h21.333C328.073,159.765,335.454,155.199,339.081,147.967z"/>
			<path d="M469.33,287.758h21.333c8.085,0,15.467-4.565,19.093-11.797c3.605-7.232,2.816-15.872-2.027-22.336l-64-85.333
				c-8.043-10.752-26.091-10.752-34.133,0l-64,85.333c-4.843,6.464-5.611,15.104-2.005,22.336
				c3.627,7.232,10.987,11.797,19.072,11.797h21.333l-38.4,51.2c-4.843,6.464-5.611,15.104-2.005,22.336
				c3.627,7.232,10.987,11.797,19.072,11.797h42.667v85.333c0,11.776,9.536,21.333,21.333,21.333s21.333-9.557,21.333-21.333
				v-85.333h42.667c8.085,0,15.467-4.565,19.093-11.797c3.605-7.232,2.816-15.872-2.027-22.336L469.33,287.758z"/>
		</g>
	</g>
</g>
<g>
</g>
<g>
</g>
<g>
</g>
<g>
</g>
<g>
</g>
<g>
</g>
<g>
</g>
<g>
</g>
<g>
</g>
<g>
</g>
<g>
</g>
<g>
</g>
<g>
</g>
<g>
</g>
<g>
</g>
</svg>
