<?xml version="1.0" encoding="iso-8859-1"?>
<!-- Generator: Adobe Illustrator 17.1.0, SVG Export Plug-In . SVG Version: 6.00 Build 0)  -->
<!DOCTYPE svg PUBLIC "-//W3C//DTD SVG 1.1//EN" "http://www.w3.org/Graphics/SVG/1.1/DTD/svg11.dtd">
<svg version="1.1" id="Capa_1" xmlns="http://www.w3.org/2000/svg" xmlns:xlink="http://www.w3.org/1999/xlink" x="0px" y="0px"
	 viewBox="0 0 94.684 94.684" style="enable-background:new 0 0 94.684 94.684;" xml:space="preserve">
<g>
	<path d="M71.023,48.185l-11.009-7.007c-0.707-0.45-1.538-1.601-1.743-2.414L55.23,26.708c-0.006-0.025-0.017-0.047-0.024-0.072
		c-0.271-1.378-1.485-2.422-2.942-2.422H37.436c-0.726,0-1.384,0.27-1.903,0.7c-0.068,0.041-0.143,0.077-0.206,0.122l-10.56,7.492
		c-1.207,0.856-1.939,2.667-1.667,4.123l3.268,17.458c0.28,1.499,1.7,2.673,3.233,2.673l1.677-0.09
		c0.807-0.045,1.55-0.422,2.038-1.033s0.69-1.419,0.555-2.217l-2.28-13.465c-0.12-0.706,0.306-1.725,0.892-2.138l1.954-1.374V56.68
		l-0.397,10.996c-0.046,1.265-0.645,3.245-1.309,4.324l-9.983,16.219c-0.522,0.848-0.636,1.818-0.311,2.661
		c0.325,0.843,1.059,1.486,2.016,1.764l3.125,0.91c0.351,0.102,0.722,0.154,1.104,0.154c1.557,0,3.1-0.859,3.838-2.139l9.518-16.478
		c0.79-1.368,1.529-3.67,1.682-5.242l0.878-9.008h2.223l3.404,8.714c0.459,1.176,0.683,3.224,0.488,4.472l-2.701,17.265
		c-0.145,0.927,0.077,1.79,0.624,2.43c0.53,0.62,1.307,0.961,2.188,0.961c0.158,0,0.32-0.011,0.488-0.034l3.222-0.447
		c1.87-0.26,3.519-1.93,3.755-3.803l2.18-17.306c0.198-1.571-0.032-3.981-0.523-5.487l-4.681-14.336v-5.393l11.838,6.816
		c0.456,0.262,0.976,0.401,1.505,0.401c1.068,0,2.07-0.563,2.615-1.469L72,52.332C72.845,50.925,72.406,49.065,71.023,48.185z"/>
	<path d="M43.85,21.672c5.975,0,10.836-4.861,10.836-10.836S49.825,0,43.85,0c-5.975,0-10.835,4.861-10.835,10.836
		S37.876,21.672,43.85,21.672z"/>
</g>
<g>
</g>
<g>
</g>
<g>
</g>
<g>
</g>
<g>
</g>
<g>
</g>
<g>
</g>
<g>
</g>
<g>
</g>
<g>
</g>
<g>
</g>
<g>
</g>
<g>
</g>
<g>
</g>
<g>
</g>
</svg>
