<?xml version="1.0" encoding="iso-8859-1"?>
<!-- Generator: Adobe Illustrator 16.0.0, SVG Export Plug-In . SVG Version: 6.00 Build 0)  -->
<!DOCTYPE svg PUBLIC "-//W3C//DTD SVG 1.1//EN" "http://www.w3.org/Graphics/SVG/1.1/DTD/svg11.dtd">
<svg version="1.1" id="Capa_1" xmlns="http://www.w3.org/2000/svg" xmlns:xlink="http://www.w3.org/1999/xlink" x="0px" y="0px"
	 width="937.3px" height="937.3px" viewBox="0 0 937.3 937.3" style="enable-background:new 0 0 937.3 937.3;" xml:space="preserve"
	>
<g>
	<path d="M500.902,916.899V389.3h-160v527.6c0,11,9,20.4,20,20.4h120C491.902,937.3,500.902,928,500.902,916.899z"/>
	<path d="M96.702,239.4c67.5-4.2,217.7-1.1,244.2,106.9h183.1c0,0,83.5-3,182.5,51.5c6.7-15.2,12.601-30.9,17.601-47.1
		c12.399-41.1,18.8-84.3,18.8-128.4c0-45.1-6.7-89.3-19.8-131.2c-5.5-17.5-12-34.5-19.601-50.8c-59.699,28.1-154.6,61.2-271.1,61.2
		c-149.1,0-269.4,18-348.3,113.5C75.802,225.1,83.602,240.2,96.702,239.4z"/>
	<path d="M774.402,2.4c-7.3,4.6-17.7,10.8-30.9,17.9c8.601,18.3,16,37.4,22.101,57.2c14.5,46.3,21.8,95.1,21.8,144.9
		c0,48.6-7,96.3-20.9,141.7c-5.899,19.2-12.899,37.8-21,55.7c10.301,6.6,20.7,13.8,31.101,21.7c7.5,5.7,18.399,3.399,23-4.9
		c29.7-54.3,113.899-240.2-3.7-429.2C791.303,0,781.702-2.2,774.402,2.4z"/>
</g>
<g>
</g>
<g>
</g>
<g>
</g>
<g>
</g>
<g>
</g>
<g>
</g>
<g>
</g>
<g>
</g>
<g>
</g>
<g>
</g>
<g>
</g>
<g>
</g>
<g>
</g>
<g>
</g>
<g>
</g>
</svg>
