<?xml version="1.0" encoding="UTF-8" standalone="no"?>
<!DOCTYPE svg PUBLIC "-//W3C//DTD SVG 1.1//EN" "http://www.w3.org/Graphics/SVG/1.1/DTD/svg11.dtd">
<svg version="1.1" xmlns="http://www.w3.org/2000/svg" xmlns:xlink="http://www.w3.org/1999/xlink" preserveAspectRatio="xMidYMid meet" viewBox="0 0 640 640" width="640" height="640"><defs><path d="M222.78 454.61C225.18 448.24 237.18 416.38 258.78 359.04L253.73 325.67C259.98 325.44 263.45 325.31 264.14 325.28C287.68 324.41 303.6 307.49 307.28 296.34C309.46 289.74 320.36 256.74 339.98 197.35L284.04 288.66L284.04 288.66L284.04 288.66C284.04 288.66 284.04 288.67 284.04 288.67C279.74 295.69 272.03 300.5 263.24 300.82C219.5 302.44 188.13 303.67 166.67 304.54C159.72 304.82 152.96 302.26 147.95 297.44C142.93 292.63 140.08 285.97 140.08 279.02C140.08 265.22 151 253.89 164.8 253.38C170.32 253.18 197.96 252.18 247.7 250.37L247.7 250.37L298.35 167.68L238.54 225.21C234.34 197.42 232.01 181.99 231.54 178.9C228.41 158.14 242.69 138.76 263.45 135.63C270.15 134.61 323.78 126.51 330.48 125.49C333.68 125.01 336.84 124.94 339.92 125.25C338.71 120.51 329.04 82.66 327.83 77.93C320.5 95.47 304.46 108.88 284.28 111.93C253.55 116.57 224.87 95.43 220.23 64.69C215.58 33.96 236.73 5.29 267.46 0.64C295.96 -3.67 322.67 14.21 330.11 41.33C334.21 35.72 340.21 31.44 347.46 29.59C355.44 27.55 419.26 11.25 427.23 9.21C443.82 4.97 460.7 14.98 464.93 31.56C465.81 35 472.83 62.48 473.71 65.92C477.95 82.5 467.94 99.38 451.36 103.62C449.95 103.98 438.67 106.86 437.25 107.22C448.31 109.94 457.45 118.67 460.12 130.54C464.02 147.94 495.26 287.14 499.16 304.54C502.91 321.24 492.41 337.82 475.71 341.57C470.35 342.77 427.44 352.4 422.08 353.6C414.73 355.25 407.41 354.14 401.19 350.96C400.99 354.01 400.33 357.08 399.15 360.08C396.63 366.5 384.05 398.59 361.41 456.34C406.35 514.94 431.32 547.49 436.31 554C446.59 567.4 444.06 586.61 430.65 596.89C417.23 607.19 398.03 604.63 387.75 591.24C379.21 580.1 310.88 491.02 302.34 479.88C295.81 471.37 294.22 460.07 298.13 450.09C301.35 441.88 327.1 376.21 330.32 368C330.9 366.51 330.65 364.83 329.65 363.59C328.66 362.34 327.08 361.72 325.5 361.96C323.91 362.2 322.56 363.29 322 364.8C319.3 371.96 305.8 407.79 281.52 472.28C273.94 556.2 269.73 602.83 268.88 612.15C267.36 628.97 252.5 641.39 235.66 639.87C218.83 638.35 206.42 623.48 207.94 606.65C208.81 597.05 213.14 549.04 220.94 462.64C221.52 459.01 222.14 456.33 222.78 454.61Z" id="c4o2rODcy"></path></defs><g><g><g><use xlink:href="#c4o2rODcy" opacity="1" fill="#000000" fill-opacity="1"></use><g><use xlink:href="#c4o2rODcy" opacity="1" fill-opacity="0" stroke="#000000" stroke-width="1" stroke-opacity="0"></use></g></g></g></g></svg>