<?xml version="1.0" encoding="iso-8859-1"?>
<!-- Generator: Adobe Illustrator 19.0.0, SVG Export Plug-In . SVG Version: 6.00 Build 0)  -->
<svg version="1.1" id="Layer_1" xmlns="http://www.w3.org/2000/svg" xmlns:xlink="http://www.w3.org/1999/xlink" x="0px" y="0px"
	 viewBox="0 0 388.142 388.142" style="enable-background:new 0 0 388.142 388.142;" xml:space="preserve">
<g>
	<g>
		<path d="M283.742,40.756l-16.737-16.737c-4.997-4.997-12.529-5.806-18.422-2.555l37.719,37.719
			C289.543,53.285,288.739,45.753,283.742,40.756z"/>
		<path d="M155.399,154.2c-0.348,7.521-11.704,32.051-29.21,49.557L4.436,325.51l0.041,0.041c-6.072,6.497-5.98,16.66,0.353,22.999
			l15.242,15.242c6.333,6.333,16.502,6.426,22.999,0.353l0.041,0.041l121.754-121.754c21.463-21.463,43.873-57.789,45.169-85.688
			c0.128-2.796,1.782-7.941,4.7-14.193l-40.366-40.361C163.878,119.363,156.147,138.169,155.399,154.2z"/>
		<path d="M387.32,116.696c-0.492-0.492-1.265-0.686-2.166-0.737l-88.038-29.967l-0.553,0.558c-2.939,2.381-7.24,2.237-9.974-0.497
			c-2.734-2.734-2.877-7.035-0.497-9.974l0.553-0.553l-52.347-52.347l-61.471,61.466l52.347,52.347l0.553-0.553
			c2.939-2.381,7.24-2.237,9.974,0.497s2.877,7.035,0.497,9.974l-0.553,0.553l29.967,88.038c0.051,0.896,0.241,1.669,0.737,2.166
			c5.499,5.499,37.033-17.126,70.436-50.534C370.188,153.729,392.814,122.195,387.32,116.696z"/>
	</g>
</g>
<g>
</g>
<g>
</g>
<g>
</g>
<g>
</g>
<g>
</g>
<g>
</g>
<g>
</g>
<g>
</g>
<g>
</g>
<g>
</g>
<g>
</g>
<g>
</g>
<g>
</g>
<g>
</g>
<g>
</g>
</svg>
