<?xml version="1.0" encoding="iso-8859-1"?>
<!-- Generator: Adobe Illustrator 18.0.0, SVG Export Plug-In . SVG Version: 6.00 Build 0)  -->
<!DOCTYPE svg PUBLIC "-//W3C//DTD SVG 1.1//EN" "http://www.w3.org/Graphics/SVG/1.1/DTD/svg11.dtd">
<svg version="1.1" id="Capa_1" xmlns="http://www.w3.org/2000/svg" xmlns:xlink="http://www.w3.org/1999/xlink" x="0px" y="0px"
	 viewBox="0 0 459.76 459.76" style="enable-background:new 0 0 459.76 459.76;" xml:space="preserve">
<g id="XMLID_30_">
	<path id="XMLID_225_" d="M169.34,385.412v-49.215c-4.588-4.587-34.231-34.231-38.915-38.915h-28.761
		c0.329,1.605,1.03,3.129,2.098,4.424c1.926,2.337,4.796,3.7,7.824,3.7c3.933,0,8.651,0,13.933,0v123.825L169.34,385.412z"/>
	<path id="XMLID_493_" d="M200.71,459.76c12.101,0,21.91-9.809,21.91-21.91v-33.851l-42.174,42.174
		C183.724,454.144,191.557,459.76,200.71,459.76z"/>
	<path id="XMLID_496_" d="M222.62,317.61v-12.203c5.283,0,10.001,0,13.932,0c3.03,0,5.901-1.355,7.828-3.693
		c1.068-1.297,1.769-2.824,2.097-4.431h-44.184C209.352,304.342,215.537,310.527,222.62,317.61z"/>
	<polygon id="XMLID_497_" points="178.799,375.952 193.947,360.805 178.799,345.657 	"/>
	<circle id="XMLID_500_" cx="174.069" cy="37.841" r="37.841"/>
	<path id="XMLID_506_" d="M117.05,213.7l-5.362,27.683h21.472c-0.178-1.776-0.13-0.17-0.13-24.192L117.05,213.7z"/>
	<path id="XMLID_515_" d="M388.687,256.629l-165.308,0c1.685-3.293-0.357-11.67-1.717-15.245h0
		c-4.705-12.364-16.079-21.464-29.755-22.853c-2.352-0.239-1.649-0.185-24.32-0.185v-8.772h10.841c1.726,0,3.35-0.433,4.773-1.193
		l0,0c3.28-1.749,5.39-5.157,5.39-8.971c0-5.523-4.491-10.163-10.163-10.163h-2.424c-0.898-7.506-6.417-13.967-14.217-15.672
		l-37.065-8.098c1.488-4.176,2.811-7.917,4.11-11.623l35.566,7.771c8.52,1.862,15.415,7.121,19.592,14.041
		c10.779,2.524,18.832,12.208,18.832,23.745c0,2.288-0.316,4.502-0.908,6.604c16.393,4.664,29.374,17.508,34.237,33.816
		c-16.696-86.201-14.626-74.734-15.574-82.477c9.84,27.857,22.751,63.485,30.223,84.029h38.863
		c-6.229-17.074-30.31-83.218-41.745-116.491c-8.471-24.65-22.675-37.149-42.217-37.149h-63.262
		c-19.542,0-33.745,12.499-42.216,37.149c-3.245,9.442-5.668,16.41-8.66,24.842c-2.205,6.215-4.719,13.224-8.101,22.612
		c-1.189,3.299-1.556,6.882-0.816,10.31c1.557,7.206,7.11,12.559,13.973,14.059l50.642,11.065l0.784,48.848l-76.97,0
		c-6.995,0-12.995,5.472-13.124,12.466c-0.131,7.125,5.607,12.943,12.702,12.943h66.088l78.767,78.767l-81.204,81.204
		c-3.828,3.828-4.279,10.061-0.702,14.126c3.918,4.454,10.706,4.616,14.834,0.49l81.446-81.446l81.446,81.446
		c4.13,4.128,10.92,3.962,14.837-0.493c3.574-4.065,3.122-10.296-0.705-14.123l-81.203-81.203l78.767-78.767h66.087
		c7.096,0,12.833-5.818,12.702-12.943C401.682,262.101,395.682,256.629,388.687,256.629z M229.881,346.431
		c-6.11-6.11-57.098-57.098-64.393-64.393h128.787L229.881,346.431z"/>
</g>
<g>
</g>
<g>
</g>
<g>
</g>
<g>
</g>
<g>
</g>
<g>
</g>
<g>
</g>
<g>
</g>
<g>
</g>
<g>
</g>
<g>
</g>
<g>
</g>
<g>
</g>
<g>
</g>
<g>
</g>
</svg>
