<?xml version="1.0" encoding="iso-8859-1"?>
<!-- Generator: Adobe Illustrator 17.1.0, SVG Export Plug-In . SVG Version: 6.00 Build 0)  -->
<!DOCTYPE svg PUBLIC "-//W3C//DTD SVG 1.1//EN" "http://www.w3.org/Graphics/SVG/1.1/DTD/svg11.dtd">
<svg version="1.1" id="Capa_1" xmlns="http://www.w3.org/2000/svg" xmlns:xlink="http://www.w3.org/1999/xlink" x="0px" y="0px"
	 viewBox="0 0 363.955 363.955" style="enable-background:new 0 0 363.955 363.955;" xml:space="preserve">
<path d="M344.199,162.222C344.199,72.772,271.427,0,181.977,0S19.756,72.772,19.756,162.222c0,62.181,35.173,116.293,86.662,143.512
	c-0.278,1.125-0.441,2.289-0.441,3.484v13.387c0,2.573-1.753,5.351-4.585,5.351H83.947c-8.255,0-15.011,6.638-15.059,14.796
	l-0.037,6.24c-0.023,3.98,1.51,7.728,4.318,10.553c2.828,2.845,6.601,4.411,10.623,4.411h196.371c4.021,0,7.794-1.566,10.622-4.411
	c2.808-2.824,4.342-6.572,4.318-10.553l-0.037-6.24c-0.048-8.158-6.803-14.796-15.059-14.796h-17.444
	c-2.833,0-4.586-2.777-4.586-5.351v-13.387c0-1.196-0.163-2.359-0.441-3.484C309.026,278.515,344.199,224.403,344.199,162.222z
	 M204.977,292.436v-51.481H261.2c3.207,0,5.863-1.494,7.105-3.997c1.253-2.525,0.824-5.583-1.146-8.177l-30.206-39.826h6.104
	c3.001,0,5.469-1.388,6.603-3.711c1.129-2.316,0.707-5.1-1.129-7.447l-31.174-39.842h7.559c2.785,0,5.063-1.308,6.094-3.497
	c1.023-2.176,0.592-4.734-1.158-6.85l-42.111-50.776c-1.444-1.744-3.533-2.744-5.732-2.744c-2.218,0-4.33,1.015-5.792,2.778
	L134.1,127.592c-1.75,2.112-2.181,4.676-1.155,6.858c1.032,2.194,3.31,3.505,6.092,3.505h7.562l-31.178,39.833
	c-1.836,2.348-2.257,5.134-1.127,7.452c1.134,2.326,3.602,3.715,6.601,3.715h6.101l-30.203,39.847
	c-1.968,2.593-2.397,5.645-1.147,8.163c1.24,2.498,3.897,3.99,7.107,3.99h56.222v51.481
	c-61.981-10.917-109.221-65.15-109.221-130.214C49.756,89.314,109.07,30,181.977,30s132.222,59.314,132.222,132.222
	C314.199,227.286,266.959,281.519,204.977,292.436z"/>
<g>
</g>
<g>
</g>
<g>
</g>
<g>
</g>
<g>
</g>
<g>
</g>
<g>
</g>
<g>
</g>
<g>
</g>
<g>
</g>
<g>
</g>
<g>
</g>
<g>
</g>
<g>
</g>
<g>
</g>
</svg>
