<?xml version='1.0' encoding='iso-8859-1'?>
<!DOCTYPE svg PUBLIC '-//W3C//DTD SVG 1.1//EN' 'http://www.w3.org/Graphics/SVG/1.1/DTD/svg11.dtd'>
<svg version="1.1" xmlns="http://www.w3.org/2000/svg" viewBox="0 0 297 297" xmlns:xlink="http://www.w3.org/1999/xlink" enable-background="new 0 0 297 297">
  <g>
    <path d="m132.858,50.23c2.502,0 4.938-1.015 6.701-2.777 1.762-1.763 2.777-4.198 2.777-6.7 0-2.492-1.016-4.938-2.777-6.7-1.764-1.764-4.199-2.777-6.701-2.777-2.492,0-4.937,1.014-6.699,2.777-1.764,1.763-2.777,4.208-2.777,6.7 0,2.502 1.014,4.938 2.777,6.7 1.762,1.763 4.207,2.777 6.699,2.777z"/>
    <path d="m101.585,34.593c2.492,0 4.937-1.015 6.699-2.777 1.771-1.763 2.777-4.208 2.777-6.7s-1.006-4.938-2.777-6.701c-1.762-1.763-4.207-2.776-6.699-2.776-2.494,0-4.94,1.014-6.701,2.776-1.764,1.764-2.777,4.209-2.777,6.701s1.014,4.938 2.777,6.7c1.761,1.762 4.207,2.777 6.701,2.777z"/>
    <path d="m132.858,18.955c2.494,0 4.938-1.015 6.701-2.777 1.771-1.762 2.777-4.207 2.777-6.7 0-2.492-1.006-4.938-2.777-6.7-1.763-1.764-4.199-2.778-6.701-2.778-2.492,0-4.937,1.014-6.699,2.777-1.764,1.763-2.777,4.208-2.777,6.7 0,2.493 1.014,4.939 2.777,6.7 1.772,1.763 4.207,2.778 6.699,2.778z"/>
    <path d="m179.772,34.593c2.492,0 4.938-1.015 6.699-2.777 1.771-1.763 2.777-4.208 2.777-6.7s-1.006-4.938-2.777-6.701c-1.762-1.763-4.207-2.776-6.699-2.776-2.492,0-4.937,1.014-6.701,2.776-1.764,1.764-2.777,4.209-2.777,6.701 0,2.502 1.014,4.938 2.777,6.7 1.764,1.762 4.209,2.777 6.701,2.777z"/>
    <path d="m129.341,159.498c7.361,0 14.084,2.89 19.162,7.631 5.078-4.741 11.799-7.631 19.162-7.631 11.475,0 21.389,7.026 25.953,17.139h32.971c-8.484-18.977-23.73-34.601-43.258-43.309v-26.471h3.197c5.234,0 9.479-4.244 9.479-9.478v-25.35c0-5.234-4.244-9.477-9.479-9.477h-15.205c1.463-1.706 2.289-3.911 2.289-6.161 0-2.492-1.006-4.938-2.777-6.701-1.764-1.763-4.199-2.776-6.701-2.776-2.492,0-4.938,1.014-6.699,2.776-1.764,1.764-2.777,4.209-2.777,6.701 0,2.249 0.832,4.455 2.289,6.16h-46.475c-2.514,0-4.924,0.998-6.701,2.775-1.777,1.778-2.775,4.188-2.775,6.702v25.353c0,5.233 4.242,9.478 9.477,9.478h3.199v26.47c-19.527,8.708-34.775,24.331-43.26,43.309h32.971c4.565-10.114 14.481-17.14 25.958-17.14z"/>
    <path d="m232.542,195.592h-37.014c-2.229,9.453-9.303,19.584-21.447,30.767-10.031,9.237-19.953,15.793-20.371,16.067-1.58,1.039-3.395,1.559-5.207,1.559-1.814,0-3.627-0.519-5.207-1.559-0.418-0.274-10.342-6.83-20.375-16.066-12.146-11.182-19.221-21.314-21.449-30.768h-37.014c-0.981,5.172-1.494,10.48-1.494,15.874 0,47.163 38.371,85.534 85.535,85.534 47.164,0 85.537-38.371 85.537-85.534 0-5.394-0.513-10.702-1.494-15.874z"/>
    <path d="m157.979,189.141c0,5.233-4.244,9.477-9.477,9.477-5.234,0-9.479-4.243-9.479-9.477 0-5.893-4.344-10.688-9.684-10.688-5.34,0-9.686,4.795-9.686,10.689 0,8.996 15.715,24.127 28.846,33.805 13.131-9.678 28.844-24.809 28.844-33.806 0-5.893-4.342-10.688-9.68-10.688-5.338-2.84217e-14-9.684,4.794-9.684,10.688z"/>
  </g>
</svg>
