<?xml version="1.0" encoding="iso-8859-1"?>
<!-- Generator: Adobe Illustrator 18.0.0, SVG Export Plug-In . SVG Version: 6.00 Build 0)  -->
<!DOCTYPE svg PUBLIC "-//W3C//DTD SVG 1.1//EN" "http://www.w3.org/Graphics/SVG/1.1/DTD/svg11.dtd">
<svg version="1.1" id="Capa_1" xmlns="http://www.w3.org/2000/svg" xmlns:xlink="http://www.w3.org/1999/xlink" x="0px" y="0px"
	 viewBox="0 0 460.38 460.38" style="enable-background:new 0 0 460.38 460.38;" xml:space="preserve">
<g id="XMLID_227_">
	<path id="XMLID_348_" d="M373.887,306.994c-8.045-1.292-15.066-5.074-20.421-10.424l0.397,140.476
		c0.036,12.9,10.505,23.332,23.397,23.332c0.022,0,0.046,0,0.068,0c12.923-0.036,23.369-10.542,23.332-23.464l-0.383-135.575
		C392.766,306.277,383.461,308.532,373.887,306.994z"/>
	<circle id="XMLID_1038_" cx="102.133" cy="40.412" r="40.412"/>
	<path id="XMLID_1039_" d="M202.849,166.637l-61.229-7.182l-40.042-39.787l37.981,19.912l14.003,1.643v-17.296
		c0-15.077-12.222-27.299-27.299-27.299H77.579c-15.077,0-27.299,12.223-27.299,27.299L49.8,436.915
		c-0.036,12.922,10.41,23.427,23.332,23.464c0.023,0,0.045,0,0.068,0c12.891,0,23.361-10.432,23.397-23.332l0.489-172.989
		c0-0.022-0.001-0.044-0.001-0.066h10.091l0.013,172.991c0.001,12.923,10.478,23.397,23.4,23.397
		c12.923-0.002,23.398-10.478,23.397-23.401c-0.016-208.126-0.424-217.225-0.424-217.225l-25.449-2.986
		c-7.852-0.921-17.353-0.742-22.944-11.068l-31.078-58.366l44.821,44.535c3.097,3.077,7.136,5.025,11.472,5.534l67.921,7.967
		c10.734,1.252,20.387-6.43,21.638-17.095C221.198,177.58,213.544,167.892,202.849,166.637z"/>
	<circle id="XMLID_1040_" cx="348.327" cy="40.412" r="40.412"/>
	<path id="XMLID_1041_" d="M409.462,193.418l-23.087-65.191l13.805,20.519v-24.819c0-15.077-12.222-27.299-27.299-27.299h-48.683
		c-15.077,0-27.299,12.223-27.299,27.299v6.937l-62.5,35.727c4.028,7.004,5.924,15.315,4.91,23.957
		c-1.292,11.011-7.058,20.4-15.262,26.587c2.157-0.814-2.841,1.917,72.852-41.351c0,0-0.411,84.62-0.424,261.195
		c-0.001,12.923,10.474,23.399,23.397,23.401c0,0,0.001,0,0.002,0c12.922,0,23.398-10.475,23.399-23.397l0.012-159.224
		c-0.9-4.325-1.049-8.881-0.307-13.503l0.042-0.264l11.238-69.978l-4.271-48.576l-0.372-4.192l21.427,60.503l-10.492,65.33
		c-1.708,10.632,5.528,20.636,16.16,22.344c10.655,1.708,20.639-5.547,22.344-16.16l11.281-70.242
		C410.851,199.797,410.552,196.496,409.462,193.418z"/>
</g>
<g>
</g>
<g>
</g>
<g>
</g>
<g>
</g>
<g>
</g>
<g>
</g>
<g>
</g>
<g>
</g>
<g>
</g>
<g>
</g>
<g>
</g>
<g>
</g>
<g>
</g>
<g>
</g>
<g>
</g>
</svg>
