<?xml version="1.0" encoding="iso-8859-1"?>
<!-- Generator: Adobe Illustrator 18.0.0, SVG Export Plug-In . SVG Version: 6.00 Build 0)  -->
<!DOCTYPE svg PUBLIC "-//W3C//DTD SVG 1.1//EN" "http://www.w3.org/Graphics/SVG/1.1/DTD/svg11.dtd">
<svg version="1.1" id="Capa_1" xmlns="http://www.w3.org/2000/svg" xmlns:xlink="http://www.w3.org/1999/xlink" x="0px" y="0px"
	 viewBox="0 0 55.308 55.308" style="enable-background:new 0 0 55.308 55.308;" xml:space="preserve">
<g>
	<path d="M40.685,3.554c-7.823,0-14.212,6.18-14.587,13.912c-2.697-3.432-6.875-5.619-11.474-5.619C6.56,11.846,0,18.406,0,26.469
		s6.56,14.623,14.623,14.623c0.934,0,1.855-0.093,2.759-0.266c-0.272-1.19-0.428-2.424-0.428-3.695
		c0-6.724,4.023-12.508,9.78-15.122c0.472-0.215,0.954-0.411,1.447-0.583c0.026-0.009,0.05-0.02,0.076-0.029
		c1.671-0.572,3.457-0.889,5.32-0.889c6.752,0,12.566,4.053,15.165,9.849c4.021-2.672,6.566-7.242,6.566-12.18
		C55.308,10.114,48.748,3.554,40.685,3.554z M7.41,18.696c0-0.552,0.448-1,1-1h2.355c0.48,0,0.81-0.283,0.839-0.398l0.45-1.788
		c0.135-0.536,0.678-0.859,1.214-0.726c0.536,0.135,0.86,0.678,0.726,1.214l-0.45,1.788c-0.275,1.089-1.47,1.91-2.779,1.91H8.41
		C7.857,19.696,7.41,19.248,7.41,18.696z M18.518,22.899c-0.357,0.422-0.988,0.472-1.41,0.115l-2.166-1.839
		c-0.354-0.301-0.889-0.328-1.271-0.064l-2.841,1.964c-0.173,0.12-0.372,0.177-0.567,0.177c-0.317,0-0.629-0.15-0.824-0.432
		c-0.314-0.454-0.2-1.077,0.254-1.391l2.841-1.964c1.132-0.781,2.656-0.705,3.704,0.186l2.165,1.838
		C18.824,21.847,18.875,22.478,18.518,22.899z M20.001,19.696c-0.029,0-0.059-0.001-0.089-0.004l-2.894-0.256
		c-1.329-0.118-2.405-1.042-2.502-2.149l-0.126-1.445c-0.048-0.55,0.359-1.036,0.909-1.083c0.565-0.059,1.036,0.359,1.083,0.909
		l0.126,1.445c0.025,0.069,0.27,0.295,0.686,0.332l2.895,0.256c0.55,0.049,0.957,0.534,0.908,1.084
		C20.95,19.304,20.514,19.696,20.001,19.696z M33.41,10.198c0-0.552,0.448-1,1-1h2.355c0.48,0,0.81-0.283,0.839-0.398l0.45-1.788
		c0.135-0.536,0.677-0.862,1.214-0.726c0.536,0.135,0.86,0.678,0.726,1.214l-0.45,1.788c-0.275,1.089-1.47,1.91-2.779,1.91H34.41
		C33.857,11.198,33.41,10.75,33.41,10.198z M44.518,14.401c-0.357,0.421-0.989,0.472-1.41,0.115l-2.166-1.839
		c-0.354-0.301-0.888-0.328-1.271-0.064l-2.841,1.964c-0.173,0.12-0.372,0.177-0.567,0.177c-0.317,0-0.629-0.15-0.824-0.432
		c-0.314-0.454-0.2-1.077,0.254-1.391l2.841-1.964c1.132-0.781,2.655-0.705,3.704,0.186l2.165,1.838
		C44.824,13.349,44.875,13.98,44.518,14.401z M46.001,11.198c-0.029,0-0.059-0.001-0.089-0.004l-2.894-0.256
		c-1.329-0.118-2.405-1.042-2.502-2.149l-0.126-1.445c-0.048-0.55,0.359-1.036,0.909-1.083c0.563-0.058,1.036,0.359,1.083,0.909
		l0.126,1.445c0.025,0.069,0.27,0.295,0.686,0.332l2.895,0.256c0.55,0.049,0.957,0.534,0.908,1.084
		C46.95,10.806,46.514,11.198,46.001,11.198z"/>
	<path d="M33.577,22.508c-8.063,0-14.623,6.56-14.623,14.623s6.56,14.623,14.623,14.623c8.063,0,14.624-6.56,14.624-14.623
		S41.64,22.508,33.577,22.508z M26.25,29.198c0-0.552,0.448-1,1-1h2.355c0.48,0,0.81-0.283,0.839-0.398l0.45-1.788
		c0.135-0.536,0.679-0.862,1.214-0.726c0.536,0.135,0.86,0.678,0.726,1.214l-0.45,1.788c-0.275,1.089-1.47,1.91-2.779,1.91H27.25
		C26.698,30.198,26.25,29.75,26.25,29.198z M37.358,33.401c-0.358,0.421-0.989,0.472-1.41,0.115l-2.165-1.839
		c-0.355-0.302-0.89-0.328-1.272-0.064l-2.841,1.964c-0.173,0.12-0.372,0.177-0.567,0.177c-0.317,0-0.629-0.15-0.824-0.432
		c-0.314-0.454-0.2-1.077,0.254-1.391l2.841-1.964c1.132-0.782,2.656-0.705,3.704,0.186l2.165,1.839
		C37.665,32.349,37.716,32.98,37.358,33.401z M38.842,30.198c-0.029,0-0.059-0.001-0.089-0.004l-2.894-0.256
		c-1.329-0.118-2.405-1.042-2.502-2.149l-0.126-1.446c-0.048-0.55,0.359-1.035,0.909-1.083c0.564-0.051,1.035,0.359,1.083,0.909
		l0.126,1.445c0.025,0.069,0.27,0.294,0.686,0.331l2.895,0.256c0.55,0.049,0.957,0.534,0.908,1.084
		C39.791,29.806,39.354,30.198,38.842,30.198z"/>
</g>
<g>
</g>
<g>
</g>
<g>
</g>
<g>
</g>
<g>
</g>
<g>
</g>
<g>
</g>
<g>
</g>
<g>
</g>
<g>
</g>
<g>
</g>
<g>
</g>
<g>
</g>
<g>
</g>
<g>
</g>
</svg>
