<?xml version="1.0" encoding="UTF-8" standalone="no"?>
<!DOCTYPE svg PUBLIC "-//W3C//DTD SVG 1.1//EN" "http://www.w3.org/Graphics/SVG/1.1/DTD/svg11.dtd">
<svg version="1.1" xmlns="http://www.w3.org/2000/svg" xmlns:xlink="http://www.w3.org/1999/xlink" preserveAspectRatio="xMidYMid meet" viewBox="0 0 640 640" width="640" height="640"><defs><path d="M325.82 0.11L328.73 0.25L331.64 0.44L334.55 0.69L337.45 1L340.35 1.36L343.24 1.78L346.13 2.25L349.01 2.77L351.89 3.36L354.75 4L357.61 4.69L360.46 5.44L363.3 6.24L366.13 7.1L368.95 8.02L371.75 8.99L374.55 10.02L377.32 11.1L377.59 11.21L377.86 11.33L378.12 11.46L378.38 11.59L378.63 11.73L378.88 11.88L379.13 12.03L379.36 12.19L379.6 12.35L379.83 12.52L380.05 12.7L380.27 12.88L380.49 13.07L380.7 13.26L380.9 13.46L381.1 13.66L381.29 13.87L381.48 14.09L381.66 14.3L381.83 14.53L382 14.75L382.17 14.99L382.32 15.22L382.47 15.46L382.62 15.71L382.76 15.96L382.89 16.21L383.01 16.47L383.13 16.72L383.24 16.99L383.35 17.25L383.44 17.52L383.54 17.8L383.62 18.07L383.7 18.35L383.76 18.63L383.83 18.91L383.88 19.2L383.92 19.49L383.96 19.78L383.98 19.91L384.02 20.24L384.1 20.74L384.2 21.42L384.34 22.26L384.51 23.26L384.72 24.41L384.98 25.69L385.27 27.12L385.61 28.67L386 30.33L386.43 32.11L386.92 34L387.46 35.97L388.06 38.04L388.71 40.18L389.43 42.4L390.21 44.69L391.05 47.03L391.96 49.42L392.95 51.85L394 54.31L395.13 56.81L396.33 59.32L397.61 61.84L398.98 64.37L400.43 66.89L401.96 69.4L403.58 71.89L405.29 74.35L407.1 76.78L408.99 79.17L410.99 81.51L413.08 83.78L415.28 86L417.58 88.14L419.98 90.19L422.5 92.16L425.12 94.04L427.86 95.81L429.6 96.84L431.38 97.83L433.18 98.76L435.01 99.64L436.87 100.46L438.75 101.24L440.67 101.96L442.61 102.63L444.58 103.25L446.58 103.81L448.61 104.32L450.66 104.78L452.74 105.19L454.85 105.55L456.99 105.85L459.15 106.1L461.34 106.3L463.56 106.44L465.81 106.54L468.08 106.58L470.38 106.56L472.71 106.5L475.06 106.38L477.44 106.21L479.85 105.99L482.28 105.72L484.74 105.39L487.23 105.01L489.74 104.58L492.28 104.1L494.84 103.56L497.43 102.97L500.05 102.33L502.69 101.64L505.36 100.89L508.05 100.09L510.77 99.24L513.52 98.34L516.29 97.38L519.09 96.37L519.34 96.28L519.6 96.2L519.86 96.12L520.12 96.05L520.38 95.99L520.64 95.93L520.9 95.88L521.16 95.84L521.42 95.8L521.69 95.77L521.95 95.74L522.22 95.73L522.48 95.72L522.74 95.71L523.01 95.72L523.27 95.72L523.53 95.74L523.8 95.76L524.06 95.79L524.32 95.83L524.58 95.87L524.84 95.91L525.1 95.97L525.35 96.03L525.61 96.1L525.86 96.17L526.11 96.25L526.36 96.34L526.61 96.43L526.86 96.53L527.1 96.63L527.34 96.74L527.58 96.86L527.82 96.98L528.05 97.11L528.29 97.25L528.51 97.39L528.74 97.53L528.96 97.69L529.18 97.85L531.39 99.53L533.56 101.26L535.69 103.02L537.79 104.81L539.85 106.64L541.87 108.51L543.86 110.41L545.81 112.34L547.72 114.31L549.6 116.3L551.44 118.33L553.23 120.4L554.99 122.49L556.71 124.61L558.39 126.77L560.03 128.95L561.63 131.16L563.18 133.4L564.7 135.67L566.17 137.96L567.61 140.28L569 142.62L570.34 145L571.65 147.39L572.91 149.81L574.13 152.25L575.3 154.72L576.43 157.21L577.51 159.72L578.55 162.25L579.55 164.81L580.49 167.38L581.4 169.98L582.25 172.59L583.06 175.22L583.82 177.87L584.53 180.54L585.2 183.22L585.82 185.92L586.39 188.64L586.44 188.9L586.48 189.17L586.52 189.44L586.55 189.72L586.58 190L586.6 190.28L586.61 190.56L586.62 190.85L586.62 191.14L586.62 191.43L586.61 191.72L586.59 192.01L586.57 192.3L586.54 192.59L586.51 192.89L586.47 193.18L586.42 193.47L586.37 193.76L586.31 194.05L586.25 194.34L586.17 194.63L586.1 194.91L586.02 195.19L585.93 195.47L585.83 195.75L585.73 196.02L585.63 196.29L585.51 196.55L585.39 196.81L585.27 197.07L585.14 197.32L585 197.57L584.86 197.81L584.71 198.04L584.55 198.27L584.39 198.49L584.23 198.71L584.05 198.91L583.87 199.12L583.69 199.31L578.84 204.39L574.25 209.7L569.91 215.23L565.81 220.96L561.96 226.88L558.36 232.98L555.01 239.24L551.91 245.67L549.05 252.23L546.44 258.93L544.08 265.75L541.97 272.67L540.11 279.69L538.5 286.79L537.13 293.97L536.01 301.2L535.15 308.49L534.52 315.81L534.15 323.15L534.03 330.5L534.15 337.86L534.52 345.2L535.15 352.52L536.01 359.8L537.13 367.04L538.5 374.21L540.11 381.32L541.97 388.34L544.08 395.26L546.44 402.08L549.05 408.77L551.91 415.34L555.01 421.76L558.36 428.03L561.96 434.13L565.81 440.05L569.91 445.78L574.25 451.3L578.84 456.61L583.69 461.7L583.87 461.89L584.05 462.09L584.23 462.28L584.4 462.49L584.56 462.7L584.72 462.91L584.88 463.12L585.02 463.34L585.17 463.56L585.3 463.78L585.43 464.01L585.56 464.24L585.68 464.47L585.79 464.7L585.9 464.94L586 465.18L586.1 465.42L586.19 465.66L586.27 465.91L586.35 466.16L586.42 466.41L586.49 466.66L586.55 466.91L586.6 467.17L586.65 467.42L586.69 467.68L586.73 467.94L586.76 468.2L586.78 468.46L586.79 468.72L586.8 468.98L586.81 469.24L586.8 469.5L586.79 469.77L586.78 470.03L586.76 470.29L586.73 470.56L586.69 470.82L586.65 471.08L586.6 471.35L586.01 474.14L585.38 476.91L584.7 479.66L583.97 482.39L583.2 485.1L582.38 487.79L581.51 490.46L580.6 493.1L579.64 495.72L578.64 498.32L577.59 500.89L576.5 503.45L575.36 505.97L574.18 508.47L572.96 510.95L571.69 513.39L570.38 515.82L569.03 518.21L567.63 520.58L566.2 522.92L564.72 525.23L563.2 527.52L561.64 529.77L560.04 531.99L558.4 534.19L556.72 536.35L555 538.48L553.24 540.58L551.44 542.65L549.6 544.69L547.72 546.69L545.81 548.66L543.86 550.6L541.87 552.5L539.85 554.36L537.79 556.2L535.69 557.99L533.55 559.75L531.38 561.47L529.18 563.16L528.96 563.32L528.75 563.47L528.52 563.61L528.3 563.75L528.07 563.89L527.84 564.01L527.61 564.14L527.38 564.25L527.14 564.36L526.9 564.46L526.66 564.56L526.41 564.65L526.17 564.74L525.92 564.82L525.67 564.89L525.42 564.96L525.17 565.02L524.92 565.07L524.66 565.12L524.41 565.16L524.15 565.2L523.89 565.23L523.63 565.25L523.38 565.27L523.12 565.28L522.86 565.29L522.6 565.28L522.34 565.28L522.08 565.26L521.82 565.24L521.56 565.22L521.3 565.19L521.04 565.15L520.78 565.1L520.53 565.05L520.27 564.99L520.01 564.93L519.76 564.86L519.51 564.78L519.25 564.7L518.59 564.47L517.46 564.1L515.89 563.61L513.9 563.01L511.51 562.33L508.73 561.58L505.59 560.79L502.11 559.96L498.31 559.13L494.2 558.31L489.81 557.52L485.16 556.77L480.27 556.1L475.16 555.51L469.84 555.03L464.34 554.67L458.68 554.46L452.88 554.41L446.96 554.55L440.93 554.89L434.82 555.44L428.65 556.24L422.44 557.3L416.2 558.63L409.97 560.27L403.75 562.22L397.57 564.51L391.45 567.15L385.41 570.16L379.46 573.57L373.63 577.39L367.94 581.65L362.41 586.35L357.06 591.53L351.91 597.19L346.97 603.36L342.27 610.06L337.83 617.31L333.67 625.12L329.81 633.51L329.68 633.81L329.54 634.09L329.4 634.38L329.24 634.65L329.08 634.92L328.92 635.19L328.74 635.45L328.56 635.7L328.37 635.95L328.17 636.19L327.97 636.42L327.76 636.65L327.54 636.87L327.32 637.09L327.1 637.3L326.86 637.5L326.63 637.69L326.38 637.88L326.13 638.06L325.88 638.23L325.62 638.4L325.36 638.56L325.09 638.71L324.82 638.85L324.54 638.99L324.26 639.11L323.98 639.23L323.69 639.34L323.4 639.45L323.1 639.54L322.8 639.63L322.5 639.7L322.2 639.77L321.89 639.83L321.58 639.88L321.27 639.93L320.96 639.96L320.64 639.98L320.32 640L320 640L319.68 640L319.36 639.98L319.05 639.96L318.73 639.93L318.42 639.88L318.11 639.83L317.8 639.77L317.5 639.7L317.2 639.63L316.9 639.54L316.6 639.45L316.31 639.34L316.02 639.23L315.74 639.11L315.46 638.99L315.18 638.85L314.91 638.71L314.64 638.56L314.38 638.4L314.12 638.23L313.86 638.06L313.61 637.88L313.37 637.69L313.13 637.5L312.9 637.3L312.67 637.09L312.45 636.87L312.24 636.65L312.03 636.42L311.82 636.19L311.63 635.95L311.44 635.7L311.26 635.45L311.08 635.19L310.91 634.92L310.75 634.65L310.6 634.38L310.45 634.09L310.31 633.81L310.18 633.51L306.32 625.12L302.16 617.31L297.72 610.06L293.02 603.36L288.09 597.19L282.93 591.53L277.58 586.36L272.05 581.65L266.36 577.4L260.53 573.58L254.59 570.17L248.54 567.15L242.42 564.51L236.24 562.23L230.02 560.28L223.79 558.64L217.55 557.31L211.34 556.25L205.17 555.45L199.06 554.89L193.03 554.56L187.11 554.42L181.31 554.47L175.65 554.68L170.15 555.04L164.83 555.52L159.72 556.11L154.83 556.78L150.18 557.52L145.79 558.32L141.68 559.14L137.88 559.97L134.4 560.79L131.26 561.59L128.49 562.33L126.09 563.01L124.1 563.61L122.53 564.1L121.4 564.47L120.74 564.7L120.49 564.78L120.23 564.86L119.98 564.93L119.72 564.99L119.46 565.05L119.21 565.1L118.95 565.15L118.69 565.19L118.43 565.22L118.17 565.24L117.91 565.26L117.65 565.28L117.39 565.28L117.13 565.29L116.87 565.28L116.61 565.27L116.35 565.25L116.1 565.23L115.84 565.2L115.58 565.16L115.33 565.12L115.07 565.07L114.82 565.02L114.57 564.96L114.32 564.89L114.07 564.82L113.82 564.74L113.58 564.65L113.33 564.56L113.09 564.46L112.85 564.36L112.61 564.25L112.38 564.14L112.15 564.01L111.92 563.89L111.69 563.75L111.47 563.61L111.25 563.47L111.03 563.32L110.81 563.16L108.61 561.47L106.44 559.75L104.31 557.99L102.21 556.2L100.15 554.37L98.12 552.5L96.14 550.6L94.19 548.67L92.27 546.7L90.4 544.7L88.56 542.67L86.77 540.61L85.01 538.52L83.29 536.39L81.61 534.24L79.97 532.06L78.37 529.85L76.81 527.61L75.3 525.34L73.82 523.05L72.39 520.73L71 518.38L69.65 516.01L68.35 513.62L67.09 511.2L65.87 508.75L64.7 506.29L63.57 503.8L62.48 501.29L61.44 498.76L60.45 496.2L59.5 493.63L58.6 491.04L57.75 488.42L56.94 485.79L56.18 483.15L55.46 480.48L54.8 477.8L54.18 475.1L53.61 472.38L53.56 472.12L53.52 471.85L53.48 471.57L53.45 471.3L53.42 471.02L53.4 470.74L53.39 470.45L53.38 470.16L53.38 469.87L53.38 469.58L53.39 469.29L53.41 469L53.43 468.71L53.46 468.42L53.49 468.12L53.53 467.83L53.58 467.54L53.63 467.25L53.69 466.96L53.75 466.67L53.82 466.38L53.9 466.1L53.98 465.81L54.07 465.54L54.16 465.26L54.26 464.99L54.37 464.72L54.48 464.45L54.6 464.19L54.73 463.94L54.86 463.69L55 463.44L55.14 463.2L55.29 462.96L55.44 462.74L55.6 462.51L55.77 462.3L55.95 462.09L56.13 461.89L56.31 461.7L61.15 456.61L65.75 451.3L70.09 445.78L74.19 440.05L78.04 434.13L81.64 428.03L84.99 421.76L88.09 415.34L90.95 408.77L93.55 402.08L95.91 395.26L98.02 388.34L99.89 381.32L101.5 374.21L102.87 367.04L103.98 359.8L104.85 352.52L105.47 345.2L105.85 337.86L105.97 330.5L105.85 323.15L105.47 315.81L104.85 308.49L103.98 301.2L102.87 293.97L101.5 286.79L99.89 279.69L98.02 272.67L95.91 265.75L93.55 258.93L90.95 252.23L88.09 245.67L84.99 239.24L81.64 232.98L78.04 226.88L74.19 220.96L70.09 215.23L65.75 209.7L61.15 204.39L56.31 199.31L56.12 199.12L55.94 198.92L55.77 198.72L55.6 198.52L55.43 198.31L55.27 198.1L55.12 197.89L54.97 197.67L54.83 197.45L54.69 197.23L54.56 197L54.44 196.77L54.32 196.54L54.2 196.3L54.1 196.07L53.99 195.83L53.9 195.59L53.81 195.34L53.72 195.1L53.65 194.85L53.57 194.6L53.51 194.35L53.45 194.09L53.39 193.84L53.35 193.58L53.3 193.33L53.27 193.07L53.24 192.81L53.22 192.55L53.2 192.29L53.19 192.03L53.19 191.77L53.19 191.5L53.2 191.24L53.22 190.98L53.24 190.71L53.27 190.45L53.3 190.19L53.35 189.92L53.4 189.66L53.98 186.87L54.61 184.1L55.29 181.35L56.02 178.62L56.79 175.91L57.61 173.22L58.48 170.55L59.39 167.91L60.35 165.29L61.35 162.69L62.4 160.11L63.49 157.56L64.63 155.04L65.81 152.54L67.04 150.06L68.3 147.61L69.61 145.19L70.96 142.79L72.36 140.43L73.8 138.09L75.27 135.77L76.79 133.49L78.35 131.24L79.96 129.01L81.6 126.82L83.28 124.66L85 122.53L86.76 120.42L88.56 118.36L90.39 116.32L92.27 114.32L94.18 112.35L96.13 110.41L98.12 108.51L100.15 106.64L102.21 104.81L104.31 103.02L106.44 101.26L108.61 99.53L110.81 97.85L111.03 97.69L111.26 97.53L111.48 97.39L111.71 97.24L111.94 97.11L112.18 96.98L112.41 96.86L112.65 96.74L112.89 96.63L113.14 96.53L113.38 96.43L113.63 96.33L113.88 96.25L114.13 96.17L114.39 96.1L114.64 96.03L114.9 95.97L115.16 95.91L115.41 95.87L115.67 95.83L115.94 95.79L116.2 95.76L116.46 95.74L116.72 95.72L116.99 95.71L117.25 95.71L117.51 95.72L117.78 95.73L118.04 95.74L118.3 95.77L118.57 95.8L118.83 95.84L119.09 95.88L119.36 95.93L119.62 95.99L119.88 96.05L120.14 96.12L120.4 96.2L120.65 96.28L120.91 96.37L123.71 97.38L126.48 98.34L129.22 99.24L131.94 100.09L134.64 100.89L137.31 101.63L139.95 102.33L142.57 102.97L145.16 103.56L147.72 104.09L150.26 104.58L152.77 105.01L155.26 105.39L157.72 105.71L160.15 105.99L162.56 106.21L164.94 106.38L167.29 106.5L169.62 106.56L171.92 106.57L174.19 106.53L176.44 106.44L178.65 106.29L180.85 106.1L183.01 105.85L185.15 105.54L187.26 105.19L189.34 104.78L191.39 104.32L193.42 103.81L195.42 103.25L197.39 102.63L199.33 101.96L201.24 101.24L203.13 100.46L204.99 99.64L206.82 98.76L208.62 97.83L210.39 96.84L212.14 95.81L214.87 94.04L217.5 92.16L220.01 90.19L222.42 88.14L224.72 86L226.91 83.78L229.01 81.51L231 79.17L232.9 76.78L234.7 74.35L236.42 71.89L238.04 69.4L239.57 66.89L241.02 64.37L242.38 61.84L243.67 59.32L244.87 56.81L246 54.31L247.05 51.85L248.03 49.42L248.94 47.03L249.79 44.69L250.57 42.4L251.28 40.18L251.94 38.04L252.54 35.97L253.08 34L253.57 32.11L254 30.33L254.39 28.67L254.73 27.12L255.02 25.69L255.27 24.41L255.48 23.26L255.66 22.26L255.79 21.42L255.9 20.74L255.97 20.24L256.02 19.91L256.03 19.78L256.07 19.49L256.12 19.2L256.17 18.91L256.23 18.63L256.3 18.35L256.38 18.07L256.46 17.8L256.55 17.52L256.65 17.25L256.75 16.99L256.87 16.72L256.98 16.46L257.11 16.21L257.24 15.96L257.38 15.71L257.52 15.46L257.67 15.22L257.83 14.99L257.99 14.75L258.16 14.53L258.34 14.3L258.52 14.09L258.71 13.87L258.9 13.66L259.1 13.46L259.3 13.26L259.51 13.07L259.72 12.88L259.94 12.7L260.17 12.52L260.4 12.35L260.63 12.19L260.87 12.03L261.11 11.88L261.36 11.73L261.62 11.59L261.87 11.46L262.14 11.33L262.4 11.21L262.67 11.1L265.45 10.02L268.24 8.99L271.05 8.02L273.87 7.1L276.7 6.24L279.54 5.44L282.38 4.69L285.24 4L288.11 3.36L290.98 2.77L293.87 2.25L296.75 1.78L299.65 1.36L302.54 1L305.45 0.69L308.35 0.44L311.26 0.25L314.17 0.11L317.09 0.03L320 0L322.91 0.03L325.82 0.11ZM298.92 525.13L298.42 525.19L297.93 525.26L297.45 525.36L296.96 525.48L296.49 525.63L296.02 525.79L295.56 525.98L295.1 526.19L294.66 526.42L294.22 526.68L293.8 526.95L293.38 527.25L292.98 527.57L292.6 527.9L292.22 528.26L291.87 528.64L291.52 529.05L291.2 529.47L290.9 529.91L290.62 530.35L290.36 530.81L290.13 531.28L289.93 531.75L289.75 532.23L289.59 532.71L289.46 533.2L289.35 533.69L289.26 534.19L289.2 534.68L289.16 535.18L289.15 535.68L289.16 536.18L289.19 536.67L289.24 537.17L289.32 537.66L289.42 538.14L289.54 538.62L289.68 539.1L289.85 539.57L290.04 540.03L290.25 540.49L290.48 540.93L290.73 541.37L291.01 541.79L291.3 542.2L291.62 542.6L291.96 542.99L292.32 543.36L292.7 543.72L293.1 544.06L293.53 544.39L294.13 544.83L294.74 545.28L295.34 545.73L295.94 546.18L296.54 546.64L297.14 547.1L297.73 547.56L298.32 548.03L298.91 548.5L299.5 548.97L300.09 549.45L300.68 549.93L301.26 550.41L301.84 550.9L302.42 551.38L302.99 551.88L303.57 552.37L304.14 552.87L304.71 553.37L305.28 553.87L305.84 554.37L306.4 554.88L306.96 555.39L307.52 555.9L308.08 556.42L308.63 556.94L309.18 557.46L309.73 557.98L310.27 558.51L310.81 559.04L311.35 559.57L311.89 560.1L312.43 560.64L312.61 560.82L312.8 561L312.99 561.17L313.18 561.34L313.38 561.5L313.58 561.65L313.79 561.8L314 561.95L314.21 562.09L314.43 562.23L314.65 562.36L314.87 562.48L315.09 562.6L315.32 562.71L315.55 562.82L315.78 562.93L316.01 563.02L316.25 563.12L316.49 563.2L316.73 563.28L316.97 563.36L317.22 563.43L317.46 563.49L317.71 563.55L317.96 563.6L318.21 563.65L318.47 563.69L318.72 563.72L318.97 563.75L319.23 563.77L319.49 563.79L319.75 563.8L320 563.8L320.26 563.8L320.52 563.79L320.78 563.77L321.03 563.75L321.29 563.72L321.54 563.69L321.79 563.65L322.04 563.6L322.29 563.55L322.54 563.49L322.78 563.43L323.03 563.36L323.27 563.28L323.51 563.2L323.75 563.12L323.99 563.02L324.22 562.93L324.45 562.82L324.68 562.71L324.91 562.6L325.13 562.48L325.35 562.36L325.57 562.23L325.79 562.09L326 561.95L326.21 561.8L326.41 561.65L326.62 561.5L326.81 561.34L327.01 561.17L327.2 561L327.39 560.82L327.57 560.64L328.11 560.1L328.64 559.57L329.18 559.04L329.73 558.51L330.27 557.98L330.82 557.46L331.37 556.94L331.92 556.42L332.48 555.9L333.04 555.39L333.6 554.88L334.16 554.37L334.72 553.87L335.29 553.37L335.86 552.87L336.43 552.37L337 551.88L337.58 551.38L338.16 550.9L338.74 550.41L339.32 549.93L339.91 549.45L340.49 548.97L341.08 548.5L341.67 548.03L342.27 547.56L342.86 547.1L343.46 546.64L344.06 546.18L344.66 545.73L345.26 545.28L345.87 544.83L346.47 544.39L346.89 544.06L347.3 543.72L347.68 543.36L348.04 542.99L348.38 542.6L348.69 542.2L348.99 541.79L349.27 541.37L349.52 540.93L349.75 540.49L349.96 540.03L350.15 539.57L350.32 539.1L350.46 538.62L350.58 538.14L350.68 537.66L350.76 537.17L350.81 536.67L350.84 536.18L350.85 535.68L350.83 535.18L350.79 534.68L350.73 534.19L350.65 533.69L350.54 533.2L350.41 532.71L350.25 532.23L350.07 531.75L349.86 531.28L349.63 530.81L349.38 530.35L349.1 529.91L348.8 529.47L348.47 529.05L348.13 528.64L347.77 528.26L347.4 527.9L347.01 527.57L346.61 527.25L346.2 526.95L345.78 526.68L345.34 526.42L344.9 526.19L344.44 525.98L343.98 525.79L343.51 525.63L343.03 525.48L342.55 525.36L342.06 525.26L341.57 525.19L341.08 525.13L340.58 525.1L340.08 525.09L339.59 525.11L339.09 525.15L338.59 525.21L338.1 525.29L337.61 525.4L337.12 525.53L336.63 525.69L336.16 525.87L335.68 526.08L335.22 526.31L334.76 526.56L334.32 526.84L333.88 527.14L333.44 527.46L333.01 527.78L332.58 528.1L332.15 528.42L331.71 528.75L331.28 529.08L330.85 529.4L330.43 529.73L330 530.06L329.57 530.4L329.14 530.73L328.72 531.06L328.3 531.4L327.87 531.74L327.45 532.08L327.03 532.42L326.61 532.76L326.19 533.1L325.77 533.44L325.35 533.79L324.93 534.14L324.52 534.48L324.1 534.83L323.69 535.19L323.27 535.54L322.86 535.89L322.45 536.25L322.04 536.6L321.63 536.96L321.22 537.32L320.82 537.68L320.41 538.04L320 538.4L319.6 538.04L319.19 537.68L318.79 537.32L318.38 536.96L317.97 536.6L317.56 536.25L317.15 535.89L316.73 535.54L316.32 535.18L315.9 534.83L315.49 534.48L315.07 534.14L314.65 533.79L314.24 533.44L313.82 533.1L313.4 532.76L312.98 532.42L312.55 532.08L312.13 531.74L311.71 531.4L311.28 531.06L310.86 530.73L310.43 530.39L310 530.06L309.57 529.73L309.14 529.4L308.71 529.08L308.28 528.75L307.85 528.42L307.42 528.1L306.99 527.78L306.55 527.46L306.12 527.14L305.68 526.84L305.23 526.56L304.78 526.31L304.31 526.08L303.84 525.87L303.36 525.69L302.88 525.53L302.39 525.4L301.9 525.29L301.41 525.21L300.91 525.15L300.41 525.11L299.91 525.09L299.42 525.1L298.92 525.13ZM207.39 491.84L206.85 491.91L206.32 492.01L205.8 492.14L205.28 492.29L204.78 492.47L204.28 492.67L203.8 492.9L203.33 493.15L202.88 493.42L202.44 493.72L202.02 494.03L201.61 494.37L201.22 494.73L200.84 495.1L200.49 495.5L200.15 495.91L199.84 496.34L199.54 496.78L199.27 497.25L199.02 497.72L198.79 498.21L198.59 498.72L198.41 499.24L198.26 499.77L198.13 500.31L198.04 500.86L197.97 501.42L197.93 501.99L197.92 502.55L197.94 503.1L197.98 503.65L198.06 504.19L198.16 504.73L198.29 505.25L198.44 505.77L198.62 506.27L198.83 506.76L199.05 507.24L199.3 507.71L199.58 508.17L199.87 508.61L200.19 509.03L200.52 509.44L200.88 509.83L201.25 510.2L201.64 510.56L202.06 510.89L202.48 511.21L202.93 511.5L203.39 511.78L203.86 512.03L204.35 512.25L204.86 512.45L205.37 512.63L205.9 512.78L206.45 512.91L207 513L207.56 513.07L208.96 513.21L210.36 513.37L211.75 513.52L213.14 513.69L214.53 513.87L215.91 514.06L217.29 514.25L218.66 514.46L220.03 514.67L221.39 514.89L222.75 515.13L224.11 515.37L225.46 515.62L226.8 515.87L228.14 516.14L229.48 516.42L230.81 516.7L232.14 517L233.46 517.3L234.78 517.61L236.09 517.93L237.39 518.26L238.69 518.6L239.99 518.95L241.28 519.31L242.56 519.67L243.84 520.04L245.11 520.42L246.38 520.82L247.64 521.21L248.9 521.62L249 521.66L249.11 521.69L249.22 521.72L249.33 521.76L249.43 521.79L249.54 521.82L249.65 521.84L249.76 521.87L249.87 521.9L249.97 521.92L250.08 521.94L250.19 521.97L250.3 521.99L250.41 522.01L250.52 522.03L250.62 522.04L250.73 522.06L250.84 522.07L250.95 522.09L251.06 522.1L251.16 522.11L251.27 522.12L251.38 522.13L251.49 522.14L251.59 522.15L251.7 522.15L251.81 522.16L251.92 522.16L252.02 522.16L252.13 522.17L252.24 522.17L252.67 522.16L253.1 522.13L253.53 522.09L253.95 522.03L254.37 521.95L254.79 521.86L255.2 521.75L255.6 521.62L256 521.48L256.4 521.32L256.78 521.15L257.16 520.96L257.54 520.76L257.9 520.54L258.26 520.31L258.6 520.06L258.94 519.8L259.27 519.53L259.58 519.24L259.89 518.94L260.18 518.63L260.46 518.3L260.73 517.96L260.99 517.61L261.23 517.25L261.46 516.88L261.67 516.49L261.87 516.09L262.06 515.68L262.22 515.26L262.38 514.84L262.54 514.29L262.67 513.75L262.78 513.2L262.85 512.65L262.9 512.11L262.91 511.57L262.9 511.03L262.87 510.49L262.8 509.96L262.71 509.43L262.6 508.92L262.46 508.4L262.29 507.9L262.1 507.41L261.89 506.92L261.65 506.45L261.39 505.99L261.1 505.55L260.8 505.11L260.47 504.7L260.12 504.29L259.75 503.91L259.36 503.54L258.95 503.19L258.53 502.87L258.08 502.56L257.61 502.27L257.13 502.01L256.63 501.76L256.11 501.55L255.58 501.36L254.18 500.9L252.77 500.45L251.36 500.02L249.94 499.59L248.52 499.18L247.09 498.77L245.65 498.37L244.21 497.98L242.76 497.61L241.31 497.24L239.85 496.88L238.38 496.53L236.91 496.2L235.44 495.87L233.96 495.55L232.47 495.24L230.98 494.95L229.48 494.66L227.98 494.38L226.48 494.11L224.97 493.85L223.45 493.61L221.93 493.37L220.41 493.14L218.88 492.93L217.35 492.72L215.81 492.52L214.27 492.34L212.72 492.16L211.17 491.99L209.62 491.84L209.06 491.79L208.5 491.78L207.94 491.79L207.39 491.84ZM430.41 491.83L428.86 491.98L427.31 492.15L425.76 492.32L424.22 492.51L422.68 492.71L421.15 492.91L419.62 493.13L418.1 493.36L416.58 493.6L415.06 493.84L413.55 494.1L412.05 494.37L410.55 494.65L409.05 494.93L407.56 495.23L406.07 495.54L404.59 495.86L403.12 496.19L401.65 496.52L400.18 496.87L398.73 497.23L397.27 497.6L395.82 497.97L394.38 498.36L392.95 498.76L391.52 499.16L390.09 499.58L388.67 500.01L387.26 500.44L385.86 500.89L384.46 501.35L383.92 501.54L383.4 501.75L382.9 501.99L382.42 502.26L381.95 502.55L381.51 502.85L381.08 503.18L380.67 503.53L380.28 503.9L379.91 504.28L379.56 504.69L379.24 505.1L378.93 505.54L378.65 505.98L378.39 506.44L378.15 506.91L377.93 507.4L377.74 507.89L377.58 508.39L377.43 508.91L377.32 509.42L377.23 509.95L377.16 510.48L377.13 511.02L377.12 511.56L377.14 512.1L377.18 512.64L377.26 513.19L377.36 513.74L377.49 514.28L377.66 514.82L377.81 515.25L377.98 515.67L378.16 516.08L378.36 516.48L378.58 516.86L378.8 517.24L379.05 517.6L379.3 517.95L379.57 518.29L379.85 518.62L380.15 518.93L380.45 519.23L380.77 519.52L381.09 519.79L381.43 520.05L381.78 520.3L382.13 520.53L382.5 520.75L382.87 520.95L383.25 521.14L383.64 521.31L384.03 521.47L384.43 521.61L384.83 521.74L385.25 521.85L385.66 521.94L386.08 522.02L386.51 522.08L386.93 522.12L387.36 522.15L387.8 522.16L387.9 522.16L388.01 522.15L388.12 522.15L388.22 522.15L388.33 522.14L388.44 522.14L388.55 522.13L388.65 522.12L388.76 522.11L388.87 522.1L388.98 522.09L389.08 522.08L389.19 522.06L389.3 522.05L389.41 522.03L389.52 522.02L389.62 522L389.73 521.98L389.84 521.96L389.95 521.93L390.06 521.91L390.17 521.89L390.27 521.86L390.38 521.83L390.49 521.81L390.6 521.78L390.71 521.75L390.81 521.72L390.92 521.68L391.03 521.65L391.14 521.61L392.39 521.2L393.65 520.81L394.92 520.41L396.19 520.03L397.47 519.66L398.75 519.3L400.04 518.94L401.33 518.59L402.63 518.25L403.94 517.92L405.25 517.6L406.57 517.29L407.89 516.99L409.22 516.69L410.55 516.41L411.89 516.13L413.23 515.86L414.57 515.61L415.93 515.36L417.28 515.12L418.64 514.88L420.01 514.66L421.38 514.45L422.75 514.24L424.13 514.05L425.51 513.86L426.9 513.68L428.29 513.51L429.68 513.35L431.08 513.2L432.48 513.06L433.04 512.99L433.59 512.9L434.14 512.77L434.66 512.62L435.18 512.44L435.68 512.24L436.17 512.01L436.65 511.76L437.11 511.49L437.55 511.2L437.98 510.88L438.39 510.55L438.79 510.19L439.16 509.82L439.52 509.43L439.85 509.02L440.17 508.6L440.46 508.16L440.73 507.7L440.98 507.23L441.21 506.75L441.41 506.26L441.59 505.75L441.75 505.24L441.88 504.72L441.98 504.18L442.05 503.64L442.1 503.09L442.12 502.54L442.11 501.98L442.07 501.41L442 500.85L441.9 500.3L441.77 499.75L441.62 499.23L441.45 498.71L441.24 498.2L441.02 497.71L440.77 497.24L440.5 496.78L440.2 496.33L439.89 495.9L439.55 495.49L439.2 495.1L438.83 494.72L438.44 494.37L438.03 494.03L437.61 493.71L437.17 493.42L436.71 493.15L436.24 492.9L435.76 492.67L435.27 492.47L434.77 492.29L434.25 492.13L433.73 492.01L433.19 491.91L432.65 491.83L432.1 491.79L431.54 491.77L430.98 491.78L430.41 491.83ZM512.88 446.93L512.47 446.98L512.06 447.04L511.65 447.12L511.24 447.21L510.83 447.32L510.42 447.45L510.02 447.6L509.63 447.76L509.23 447.94L508.84 448.13L508.46 448.35L508.08 448.58L507.72 448.82L507.37 449.07L507.03 449.34L506.71 449.62L506.4 449.91L506.1 450.21L505.82 450.52L505.55 450.83L505.29 451.16L505.05 451.5L504.82 451.84L504.61 452.2L504.41 452.56L504.22 452.92L504.05 453.3L503.9 453.68L503.75 454.06L503.63 454.45L503.52 454.85L503.42 455.24L503.34 455.64L503.27 456.05L503.22 456.46L503.19 456.87L503.17 457.28L503.16 457.69L503.18 458.1L503.2 458.51L503.25 458.93L503.31 459.34L503.39 459.75L503.48 460.16L503.59 460.57L503.72 460.97L503.87 461.37L504.03 461.77L504.21 462.16L504.4 462.55L504.62 462.94L504.89 463.41L505.17 463.87L505.44 464.34L505.72 464.81L506 465.27L506.28 465.74L506.56 466.2L506.84 466.67L507.12 467.13L507.41 467.59L507.69 468.05L507.98 468.51L508.27 468.97L508.55 469.43L508.84 469.89L509.13 470.35L509.43 470.8L509.72 471.26L510.01 471.72L510.31 472.17L510.6 472.62L510.9 473.07L511.19 473.53L511.49 473.98L511.79 474.43L512.09 474.88L512.39 475.32L512.69 475.77L513 476.22L513.3 476.66L513.61 477.11L513.91 477.55L514.22 477.99L514.52 478.43L514.83 478.87L515.14 479.31L515.45 479.75L515.76 480.19L516.07 480.62L516.39 481.06L516.19 481.45L516 481.84L515.8 482.22L515.6 482.61L515.4 482.99L515.2 483.38L515 483.76L514.79 484.14L514.58 484.52L514.37 484.9L514.16 485.28L513.95 485.66L513.73 486.04L513.51 486.41L513.29 486.78L513.07 487.16L512.85 487.53L512.63 487.9L512.4 488.27L512.17 488.64L511.94 489L511.71 489.37L511.47 489.74L511.24 490.1L511 490.46L510.76 490.82L510.52 491.18L510.27 491.54L510.03 491.9L509.78 492.26L509.53 492.61L509.28 492.97L509.03 493.32L508.77 493.67L508.52 494.02L508.26 494.37L508 494.72L507.74 495.06L507.47 495.41L507.21 495.75L506.69 495.66L506.17 495.56L505.65 495.46L505.12 495.37L504.6 495.27L504.08 495.18L503.56 495.09L503.04 494.99L502.51 494.9L501.99 494.81L501.47 494.73L500.94 494.64L500.42 494.55L499.89 494.46L499.37 494.38L498.85 494.29L498.32 494.21L497.8 494.13L497.27 494.05L496.75 493.97L496.22 493.89L495.7 493.81L495.17 493.73L494.65 493.65L494.12 493.58L493.6 493.5L493.07 493.43L492.55 493.36L492.02 493.29L491.5 493.21L490.97 493.15L490.45 493.08L489.92 493.01L489.4 492.94L488.87 492.88L488.35 492.81L487.82 492.75L487.3 492.69L486.77 492.62L486.25 492.56L485.81 492.52L485.38 492.49L484.95 492.48L484.52 492.49L484.09 492.52L483.67 492.56L483.26 492.62L482.84 492.7L482.44 492.79L482.04 492.9L481.64 493.02L481.25 493.16L480.87 493.31L480.49 493.48L480.12 493.66L479.76 493.86L479.41 494.07L479.06 494.29L478.73 494.53L478.4 494.78L478.08 495.04L477.78 495.31L477.48 495.6L477.2 495.89L476.92 496.2L476.66 496.52L476.41 496.85L476.17 497.19L475.94 497.54L475.73 497.9L475.53 498.26L475.35 498.64L475.18 499.02L475.02 499.42L474.88 499.82L474.75 500.23L474.64 500.64L474.55 501.07L474.47 501.5L474.41 501.93L474.37 502.37L474.35 502.81L474.34 503.24L474.35 503.67L474.38 504.09L474.42 504.51L474.49 504.93L474.56 505.34L474.66 505.75L474.77 506.15L474.89 506.55L475.03 506.94L475.18 507.32L475.35 507.7L475.54 508.07L475.73 508.43L475.94 508.78L476.16 509.13L476.4 509.46L476.65 509.79L476.91 510.1L477.18 510.41L477.47 510.7L477.76 510.99L478.07 511.26L478.38 511.52L478.71 511.77L479.05 512.01L479.4 512.24L479.76 512.45L480.12 512.65L480.5 512.83L480.88 513L481.27 513.16L481.67 513.3L482.08 513.42L482.5 513.53L482.92 513.62L483.35 513.7L483.78 513.76L484.42 513.83L485.06 513.91L485.69 513.99L486.33 514.07L486.97 514.15L487.6 514.23L488.24 514.31L488.88 514.4L489.51 514.48L490.15 514.57L490.78 514.66L491.42 514.75L492.06 514.85L492.69 514.94L493.33 515.04L493.96 515.13L494.6 515.23L495.24 515.33L495.87 515.43L496.51 515.54L497.14 515.64L497.77 515.75L498.41 515.86L499.04 515.97L499.67 516.08L500.31 516.19L500.94 516.3L501.57 516.42L502.2 516.53L502.83 516.65L503.46 516.77L504.09 516.89L504.72 517.01L505.35 517.14L505.98 517.26L506.61 517.39L507.23 517.52L507.86 517.65L508.48 517.78L509.11 517.91L509.16 517.92L509.22 517.93L509.28 517.94L509.33 517.95L509.39 517.96L509.44 517.97L509.5 517.98L509.56 517.99L509.61 518L509.67 518.01L509.72 518.02L509.78 518.03L509.83 518.03L509.89 518.04L509.94 518.05L510 518.06L510.06 518.06L510.11 518.07L510.17 518.08L510.22 518.08L510.28 518.09L510.33 518.09L510.39 518.1L510.44 518.1L510.5 518.11L510.55 518.11L510.61 518.12L510.66 518.12L510.72 518.13L510.78 518.13L510.83 518.13L510.89 518.13L510.94 518.14L511 518.14L511.05 518.14L511.11 518.14L511.16 518.14L511.22 518.14L511.27 518.14L511.33 518.14L511.55 518.14L511.78 518.13L512 518.12L512.23 518.11L512.45 518.09L512.67 518.06L512.89 518.03L513.12 517.99L513.34 517.95L513.55 517.91L513.77 517.86L513.99 517.81L514.2 517.75L514.42 517.69L514.63 517.62L514.84 517.55L515.05 517.48L515.26 517.4L515.47 517.31L515.67 517.22L515.87 517.13L516.07 517.03L516.27 516.93L516.47 516.83L516.66 516.72L516.86 516.6L517.05 516.48L517.24 516.36L517.42 516.24L517.6 516.1L517.79 515.97L517.96 515.83L518.14 515.69L518.31 515.54L518.48 515.39L518.65 515.24L518.81 515.08L518.98 514.92L519.13 514.75L519.29 514.58L519.9 513.89L520.5 513.2L521.1 512.51L521.69 511.81L522.27 511.1L522.85 510.39L523.42 509.68L523.98 508.96L524.54 508.24L525.09 507.51L525.63 506.78L526.17 506.04L526.7 505.3L527.23 504.56L527.75 503.81L528.26 503.05L528.77 502.3L529.26 501.53L529.76 500.77L530.24 500L530.72 499.22L531.2 498.45L531.66 497.66L532.12 496.88L532.58 496.09L533.02 495.29L533.46 494.5L533.89 493.69L534.32 492.89L534.74 492.08L535.15 491.26L535.56 490.45L535.96 489.62L536.35 488.8L536.74 487.97L537.12 487.14L537.49 486.3L537.85 485.46L538.21 484.62L538.56 483.77L538.67 483.5L538.77 483.24L538.85 482.97L538.94 482.7L539.01 482.43L539.08 482.16L539.14 481.88L539.19 481.61L539.24 481.33L539.28 481.06L539.31 480.78L539.33 480.51L539.35 480.23L539.36 479.95L539.36 479.68L539.36 479.4L539.35 479.13L539.33 478.85L539.3 478.58L539.27 478.3L539.23 478.03L539.18 477.76L539.13 477.49L539.07 477.22L539 476.95L538.92 476.69L538.84 476.42L538.75 476.16L538.66 475.9L538.56 475.65L538.45 475.39L538.33 475.14L538.21 474.89L538.08 474.64L537.94 474.4L537.8 474.16L537.65 473.92L537.49 473.68L537.33 473.45L537.16 473.22L536.78 472.73L536.4 472.23L536.02 471.73L535.65 471.23L535.27 470.72L534.9 470.22L534.53 469.71L534.16 469.2L533.79 468.69L533.42 468.18L533.06 467.67L532.69 467.16L532.33 466.64L531.96 466.12L531.6 465.6L531.24 465.08L530.89 464.56L530.53 464.03L530.17 463.51L529.82 462.98L529.47 462.46L529.12 461.93L528.77 461.4L528.42 460.86L528.07 460.33L527.73 459.8L527.38 459.26L527.04 458.72L526.7 458.18L526.36 457.64L526.02 457.1L525.69 456.56L525.35 456.02L525.02 455.48L524.69 454.93L524.36 454.38L524.03 453.84L523.71 453.29L523.38 452.74L523.06 452.19L522.83 451.81L522.59 451.45L522.33 451.1L522.06 450.76L521.78 450.44L521.5 450.13L521.19 449.83L520.88 449.55L520.57 449.28L520.24 449.02L519.9 448.78L519.55 448.55L519.2 448.33L518.84 448.14L518.47 447.95L518.1 447.78L517.72 447.62L517.33 447.48L516.94 447.35L516.55 447.24L516.15 447.15L515.75 447.07L515.35 447L514.94 446.95L514.53 446.91L514.12 446.9L513.71 446.89L513.29 446.9L512.88 446.93ZM125.47 446.91L125.06 446.94L124.65 446.99L124.25 447.06L123.84 447.14L123.45 447.23L123.05 447.35L122.66 447.47L122.28 447.61L121.9 447.77L121.52 447.94L121.16 448.13L120.8 448.33L120.44 448.54L120.1 448.77L119.76 449.01L119.43 449.27L119.11 449.54L118.8 449.82L118.5 450.12L118.21 450.43L117.94 450.76L117.67 451.1L117.41 451.45L117.17 451.81L116.94 452.19L116.62 452.74L116.3 453.29L115.97 453.84L115.64 454.38L115.31 454.93L114.98 455.47L114.65 456.02L114.31 456.56L113.98 457.1L113.64 457.64L113.3 458.18L112.96 458.72L112.62 459.26L112.28 459.79L111.93 460.33L111.58 460.86L111.24 461.39L110.89 461.92L110.53 462.45L110.18 462.98L109.83 463.51L109.47 464.03L109.12 464.56L108.76 465.08L108.4 465.6L108.04 466.12L107.67 466.64L107.31 467.15L106.94 467.67L106.58 468.18L106.21 468.69L105.84 469.2L105.47 469.71L105.1 470.22L104.73 470.72L104.35 471.23L103.98 471.73L103.6 472.23L103.22 472.73L102.84 473.22L102.67 473.45L102.51 473.68L102.35 473.92L102.2 474.15L102.06 474.4L101.92 474.64L101.79 474.89L101.67 475.14L101.55 475.39L101.45 475.64L101.34 475.9L101.25 476.16L101.16 476.42L101.08 476.69L101 476.95L100.93 477.22L100.87 477.49L100.82 477.76L100.77 478.03L100.73 478.3L100.7 478.58L100.67 478.85L100.65 479.13L100.64 479.4L100.64 479.68L100.64 479.95L100.65 480.23L100.67 480.51L100.69 480.78L100.72 481.06L100.76 481.33L100.81 481.61L100.86 481.88L100.92 482.15L100.99 482.43L101.06 482.7L101.15 482.97L101.23 483.24L101.33 483.5L101.44 483.77L101.79 484.61L102.15 485.46L102.51 486.3L102.88 487.14L103.26 487.97L103.65 488.8L104.04 489.62L104.44 490.44L104.85 491.26L105.26 492.08L105.68 492.89L106.11 493.69L106.54 494.49L106.98 495.29L107.42 496.09L107.88 496.88L108.34 497.66L108.8 498.45L109.28 499.22L109.76 500L110.24 500.77L110.74 501.53L111.23 502.29L111.74 503.05L112.25 503.81L112.77 504.55L113.3 505.3L113.83 506.04L114.37 506.78L114.91 507.51L115.46 508.23L116.02 508.96L116.58 509.68L117.15 510.39L117.73 511.1L118.31 511.8L118.9 512.5L119.5 513.2L120.1 513.89L120.71 514.58L120.87 514.75L121.02 514.92L121.19 515.08L121.35 515.24L121.52 515.39L121.69 515.54L121.86 515.69L122.04 515.83L122.21 515.97L122.4 516.1L122.58 516.23L122.77 516.36L122.95 516.48L123.14 516.6L123.34 516.71L123.53 516.82L123.73 516.93L123.93 517.03L124.13 517.13L124.33 517.22L124.54 517.31L124.74 517.39L124.95 517.47L125.16 517.55L125.37 517.62L125.58 517.69L125.8 517.75L126.01 517.81L126.23 517.86L126.45 517.91L126.67 517.95L126.89 517.99L127.11 518.03L127.33 518.06L127.55 518.08L127.77 518.11L128 518.12L128.22 518.13L128.45 518.14L128.67 518.14L128.73 518.14L128.78 518.14L128.84 518.14L128.89 518.14L128.95 518.14L129 518.14L129.06 518.14L129.11 518.13L129.17 518.13L129.22 518.13L129.28 518.12L129.34 518.12L129.39 518.12L129.45 518.11L129.5 518.11L129.56 518.1L129.61 518.1L129.67 518.09L129.72 518.09L129.78 518.08L129.83 518.08L129.89 518.07L129.94 518.06L130 518.06L130.06 518.05L130.11 518.04L130.17 518.03L130.22 518.02L130.28 518.02L130.33 518.01L130.39 518L130.44 517.99L130.5 517.98L130.56 517.97L130.61 517.96L130.67 517.95L130.72 517.94L130.78 517.93L130.84 517.92L130.89 517.91L131.52 517.78L132.14 517.65L132.77 517.52L133.39 517.39L134.02 517.26L134.65 517.14L135.28 517.01L135.91 516.89L136.54 516.77L137.17 516.65L137.8 516.53L138.43 516.42L139.06 516.3L139.69 516.19L140.33 516.08L140.96 515.96L141.59 515.86L142.23 515.75L142.86 515.64L143.49 515.54L144.13 515.43L144.76 515.33L145.4 515.23L146.04 515.13L146.67 515.03L147.31 514.94L147.94 514.84L148.58 514.75L149.22 514.66L149.85 514.57L150.49 514.48L151.12 514.4L151.76 514.31L152.4 514.23L153.03 514.14L153.67 514.06L154.31 513.98L154.94 513.91L155.58 513.83L156.22 513.76L156.65 513.7L157.08 513.62L157.5 513.53L157.92 513.42L158.33 513.3L158.73 513.16L159.12 513L159.5 512.83L159.88 512.65L160.24 512.45L160.6 512.24L160.95 512.01L161.29 511.77L161.62 511.52L161.93 511.26L162.24 510.99L162.53 510.7L162.82 510.41L163.09 510.1L163.35 509.79L163.6 509.46L163.84 509.12L164.06 508.78L164.27 508.43L164.47 508.07L164.65 507.7L164.82 507.32L164.97 506.94L165.11 506.55L165.23 506.15L165.34 505.75L165.44 505.34L165.52 504.93L165.58 504.51L165.62 504.09L165.65 503.67L165.66 503.24L165.65 502.8L165.63 502.37L165.59 501.93L165.53 501.5L165.45 501.07L165.36 500.64L165.25 500.23L165.13 499.82L164.99 499.42L164.84 499.02L164.67 498.64L164.48 498.26L164.29 497.9L164.08 497.54L163.85 497.19L163.62 496.85L163.37 496.52L163.11 496.21L162.83 495.9L162.55 495.6L162.25 495.32L161.95 495.05L161.63 494.79L161.31 494.54L160.97 494.3L160.63 494.08L160.28 493.87L159.92 493.67L159.55 493.49L159.17 493.32L158.79 493.17L158.4 493.03L158 492.9L157.6 492.8L157.19 492.7L156.77 492.63L156.35 492.57L155.93 492.52L155.5 492.5L155.07 492.49L154.63 492.49L154.2 492.52L153.75 492.56L153.23 492.62L152.7 492.68L152.18 492.75L151.66 492.81L151.13 492.87L150.61 492.94L150.08 493.01L149.56 493.08L149.03 493.14L148.5 493.21L147.98 493.28L147.45 493.36L146.93 493.43L146.4 493.5L145.88 493.58L145.35 493.65L144.83 493.73L144.3 493.81L143.78 493.89L143.25 493.96L142.73 494.05L142.2 494.13L141.68 494.21L141.15 494.29L140.63 494.38L140.11 494.46L139.58 494.55L139.06 494.64L138.53 494.72L138.01 494.81L137.49 494.9L136.97 494.99L136.44 495.08L135.92 495.18L135.4 495.27L134.88 495.37L134.36 495.46L133.83 495.56L133.31 495.65L132.79 495.75L132.53 495.41L132.26 495.06L132 494.72L131.74 494.37L131.48 494.02L131.23 493.67L130.97 493.32L130.72 492.97L130.47 492.61L130.22 492.26L129.97 491.9L129.73 491.54L129.48 491.18L129.24 490.82L129 490.46L128.76 490.1L128.53 489.74L128.29 489.37L128.06 489L127.83 488.64L127.6 488.27L127.38 487.9L127.15 487.53L126.93 487.16L126.71 486.78L126.49 486.41L126.27 486.03L126.05 485.66L125.84 485.28L125.63 484.9L125.42 484.52L125.21 484.14L125 483.76L124.8 483.38L124.6 482.99L124.4 482.61L124.2 482.22L124 481.83L123.81 481.45L123.61 481.06L123.93 480.62L124.24 480.19L124.55 479.75L124.86 479.31L125.17 478.87L125.48 478.43L125.78 477.99L126.09 477.55L126.4 477.1L126.7 476.66L127 476.22L127.31 475.77L127.61 475.32L127.91 474.87L128.21 474.43L128.51 473.98L128.81 473.53L129.1 473.07L129.4 472.62L129.7 472.17L129.99 471.71L130.28 471.26L130.58 470.8L130.87 470.35L131.16 469.89L131.45 469.43L131.73 468.97L132.02 468.51L132.31 468.05L132.59 467.59L132.88 467.13L133.16 466.67L133.44 466.2L133.72 465.74L134 465.27L134.28 464.81L134.56 464.34L134.84 463.87L135.11 463.4L135.39 462.94L135.6 462.55L135.8 462.16L135.97 461.77L136.14 461.37L136.28 460.97L136.41 460.56L136.52 460.16L136.61 459.75L136.69 459.34L136.75 458.93L136.8 458.51L136.83 458.1L136.84 457.69L136.83 457.28L136.82 456.86L136.78 456.46L136.73 456.05L136.66 455.64L136.58 455.24L136.49 454.84L136.37 454.45L136.25 454.06L136.11 453.68L135.95 453.3L135.78 452.92L135.59 452.56L135.39 452.2L135.18 451.84L134.95 451.5L134.71 451.16L134.45 450.83L134.18 450.51L133.9 450.2L133.6 449.9L133.29 449.62L132.97 449.34L132.63 449.07L132.28 448.82L131.92 448.58L131.54 448.35L131.16 448.13L130.77 447.93L130.38 447.75L129.98 447.59L129.58 447.45L129.17 447.32L128.76 447.21L128.35 447.11L127.94 447.03L127.53 446.97L127.12 446.93L126.71 446.9L126.29 446.88L125.88 446.89L125.47 446.91ZM311.2 202.24L308.94 202.74L306.73 203.29L304.58 203.89L302.47 204.55L300.41 205.25L298.4 206.01L296.44 206.81L294.54 207.66L292.68 208.56L290.88 209.5L289.13 210.49L287.43 211.53L285.79 212.61L284.2 213.73L282.66 214.89L281.18 216.1L279.75 217.35L278.38 218.63L277.06 219.96L275.81 221.32L274.6 222.72L273.46 224.16L272.37 225.64L271.35 227.15L270.38 228.69L269.47 230.27L268.62 231.88L267.83 233.52L267.1 235.19L266.43 236.89L265.82 238.63L265.28 240.39L264.79 242.18L264.37 243.99L264.02 245.83L263.73 247.7L263.5 249.59L263.33 251.51L263.23 253.45L263.2 255.41L263.24 257.56L263.36 259.65L263.55 261.69L263.81 263.69L264.15 265.63L264.56 267.53L265.05 269.38L265.6 271.18L266.23 272.94L266.92 274.65L267.68 276.32L268.5 277.95L269.39 279.53L270.35 281.08L271.37 282.58L272.45 284.05L273.59 285.48L274.79 286.87L276.05 288.23L277.37 289.55L278.75 290.84L280.18 292.09L281.66 293.31L283.2 294.5L284.8 295.66L286.44 296.79L288.14 297.9L289.88 298.97L291.67 300.02L293.52 301.04L295.4 302.04L297.34 303.01L299.31 303.96L301.33 304.89L303.4 305.8L305.5 306.68L307.65 307.55L309.83 308.4L312.05 309.23L314.31 310.04L315.87 310.6L317.38 311.16L318.84 311.72L320.26 312.28L321.64 312.83L322.98 313.39L324.27 313.96L325.52 314.52L326.72 315.09L327.89 315.65L329.01 316.23L330.09 316.8L331.13 317.38L332.12 317.97L333.08 318.55L333.99 319.15L334.87 319.75L335.7 320.35L336.5 320.97L337.25 321.59L337.97 322.21L338.64 322.85L339.28 323.49L339.88 324.14L340.44 324.8L340.96 325.47L341.44 326.15L341.89 326.84L342.3 327.54L342.67 328.25L343.01 328.97L343.31 329.7L343.57 330.45L343.8 331.21L343.99 331.98L344.14 332.77L344.27 333.57L344.35 334.38L344.4 335.21L344.42 336.05L344.4 336.94L344.34 337.8L344.24 338.65L344.09 339.47L343.91 340.27L343.69 341.06L343.43 341.82L343.14 342.56L342.81 343.28L342.44 343.98L342.03 344.66L341.59 345.32L341.11 345.95L340.6 346.57L340.06 347.16L339.48 347.73L338.88 348.28L338.23 348.8L337.56 349.31L336.86 349.79L336.12 350.25L335.36 350.69L334.57 351.1L333.75 351.49L332.9 351.86L332.02 352.21L331.12 352.53L330.19 352.83L329.23 353.11L328.25 353.36L327.24 353.59L326.21 353.8L325.16 353.98L324.08 354.14L322.98 354.27L321.86 354.38L320.71 354.47L319.55 354.53L318.37 354.56L317.16 354.58L315.78 354.57L314.41 354.53L313.04 354.47L311.68 354.39L310.33 354.29L308.98 354.17L307.64 354.03L306.32 353.87L305 353.69L303.69 353.49L302.38 353.27L301.09 353.04L299.81 352.79L298.54 352.52L297.28 352.23L296.03 351.93L294.79 351.61L293.56 351.28L292.35 350.94L291.14 350.58L289.95 350.21L288.77 349.83L287.61 349.43L286.45 349.03L285.31 348.61L284.19 348.18L283.08 347.75L281.98 347.3L280.89 346.85L279.83 346.38L278.77 345.91L277.74 345.44L276.71 344.95L275.71 344.46L274.72 343.97L273.75 343.47L272.79 342.96L271.85 342.45L270.93 341.94L270.03 341.43L261.5 376.38L262.33 376.87L263.18 377.35L264.06 377.83L264.96 378.31L265.89 378.78L266.85 379.24L267.83 379.7L268.84 380.15L269.87 380.59L270.92 381.02L271.99 381.45L273.09 381.87L274.21 382.29L275.34 382.69L276.5 383.09L277.67 383.47L278.87 383.85L280.08 384.22L281.3 384.57L282.55 384.92L283.81 385.26L285.08 385.58L286.37 385.9L287.67 386.2L288.98 386.49L290.31 386.77L291.65 387.04L292.99 387.29L294.35 387.53L295.72 387.76L297.1 387.97L298.48 388.17L299.87 388.36L301.27 388.53L302.68 388.69L304.09 388.83L305.51 388.95L306.93 389.06L308.35 389.15L309.78 389.23L309.78 417.57L337.6 417.57L337.6 387.12L340.02 386.64L342.39 386.1L344.7 385.5L346.95 384.84L349.15 384.12L351.29 383.34L353.37 382.51L355.4 381.63L357.37 380.69L359.28 379.7L361.13 378.66L362.92 377.57L364.66 376.43L366.33 375.25L367.95 374.02L369.5 372.74L371 371.43L372.43 370.06L373.81 368.66L375.12 367.22L376.38 365.74L377.57 364.22L378.7 362.67L379.76 361.08L380.77 359.46L381.71 357.8L382.59 356.11L383.41 354.4L384.16 352.65L384.85 350.88L385.47 349.08L386.03 347.25L386.53 345.4L386.95 343.53L387.32 341.64L387.62 339.72L387.85 337.79L388.02 335.83L388.12 333.86L388.15 331.88L388.13 329.88L388.05 327.92L387.92 326L387.74 324.12L387.5 322.27L387.21 320.46L386.87 318.68L386.47 316.94L386.01 315.24L385.5 313.57L384.93 311.93L384.3 310.32L383.61 308.74L382.87 307.2L382.06 305.69L381.19 304.2L380.27 302.75L379.28 301.33L378.23 299.93L377.12 298.56L375.94 297.22L374.7 295.9L373.39 294.61L372.02 293.35L370.59 292.11L369.09 290.89L367.52 289.7L365.88 288.53L364.17 287.38L362.4 286.25L360.55 285.15L358.64 284.06L356.65 282.99L354.6 281.94L352.47 280.91L350.26 279.9L347.99 278.91L345.64 277.93L343.22 276.97L340.72 276.02L338.94 275.31L337.21 274.61L335.53 273.92L333.9 273.24L332.33 272.57L330.81 271.91L329.33 271.26L327.91 270.62L326.54 269.98L325.22 269.35L323.95 268.73L322.72 268.11L321.55 267.5L320.42 266.89L319.34 266.28L318.31 265.68L317.32 265.08L316.38 264.48L315.49 263.88L314.64 263.28L313.84 262.68L313.08 262.08L312.37 261.48L311.7 260.87L311.07 260.26L310.49 259.65L309.95 259.04L309.45 258.41L309 257.79L308.58 257.15L308.21 256.51L307.88 255.87L307.59 255.21L307.34 254.55L307.13 253.87L306.96 253.19L306.82 252.49L306.73 251.78L306.67 251.06L306.65 250.33L306.67 249.7L306.7 249.08L306.76 248.45L306.84 247.83L306.95 247.21L307.08 246.59L307.24 245.98L307.42 245.38L307.63 244.78L307.87 244.19L308.14 243.6L308.44 243.03L308.77 242.46L309.12 241.9L309.51 241.36L309.93 240.83L310.39 240.3L310.87 239.8L311.39 239.3L311.94 238.83L312.53 238.36L313.15 237.92L313.81 237.49L314.5 237.08L315.24 236.69L316 236.31L316.81 235.96L317.66 235.63L318.54 235.32L319.47 235.04L320.44 234.77L321.45 234.54L322.5 234.32L323.59 234.14L324.73 233.98L325.91 233.84L327.13 233.74L328.4 233.66L329.71 233.62L331.08 233.6L332.6 233.61L334.09 233.65L335.55 233.71L336.99 233.8L338.4 233.9L339.78 234.03L341.14 234.18L342.47 234.34L343.78 234.53L345.05 234.73L346.31 234.95L347.53 235.18L348.73 235.42L349.91 235.68L351.06 235.95L352.18 236.24L353.28 236.53L354.35 236.83L355.4 237.14L356.42 237.46L357.42 237.78L358.4 238.11L359.35 238.44L360.28 238.78L361.18 239.11L362.06 239.45L362.91 239.79L363.74 240.13L364.55 240.47L365.34 240.8L366.1 241.13L366.84 241.46L367.56 241.78L368.25 242.09L368.93 242.4L369.58 242.7L370.2 242.99L370.81 243.26L371.39 243.53L371.96 243.78L380.19 210.01L379.48 209.65L378.76 209.3L378.03 208.94L377.28 208.59L376.52 208.25L375.74 207.91L374.95 207.57L374.14 207.23L373.32 206.9L372.49 206.58L371.63 206.26L370.77 205.94L369.88 205.63L368.98 205.32L368.07 205.03L367.13 204.73L366.18 204.45L365.22 204.16L364.23 203.89L363.23 203.62L362.21 203.37L361.17 203.11L360.11 202.87L359.03 202.63L357.94 202.41L356.82 202.19L355.68 201.98L354.53 201.78L353.35 201.58L352.16 201.4L350.94 201.23L349.7 201.07L348.44 200.92L347.16 200.77L345.86 200.64L344.54 200.52L343.19 200.41L341.82 200.32L340.43 200.23L339.01 200.16L339.01 173.88L311.2 173.88L311.2 202.24ZM481.2 348.28L480.66 348.35L480.12 348.45L479.6 348.58L479.08 348.72L478.58 348.9L478.1 349.09L477.62 349.31L477.16 349.55L476.71 349.82L476.28 350.1L475.86 350.4L475.46 350.72L475.07 351.06L474.71 351.42L474.36 351.79L474.03 352.18L473.71 352.59L473.42 353.01L473.15 353.44L472.89 353.89L472.66 354.35L472.46 354.82L472.27 355.31L472.11 355.8L471.97 356.3L471.85 356.81L471.76 357.33L471.7 357.86L471.66 358.39L471.64 358.93L471.66 359.47L471.7 360.02L471.87 361.57L472.05 363.12L472.23 364.66L472.42 366.2L472.63 367.74L472.84 369.28L473.05 370.82L473.28 372.35L473.52 373.89L473.76 375.42L474.01 376.94L474.28 378.47L474.55 379.99L474.82 381.52L475.11 383.03L475.4 384.55L475.71 386.06L476.02 387.57L476.34 389.08L476.67 390.59L477 392.09L477.35 393.59L477.7 395.08L478.06 396.57L478.43 398.06L478.81 399.55L479.19 401.03L479.59 402.51L479.99 403.98L480.4 405.45L480.82 406.92L481.24 408.38L481.38 408.81L481.53 409.23L481.7 409.64L481.89 410.04L482.09 410.43L482.3 410.81L482.53 411.18L482.77 411.53L483.03 411.88L483.29 412.21L483.57 412.53L483.87 412.84L484.17 413.14L484.48 413.42L484.81 413.69L485.14 413.95L485.49 414.19L485.84 414.42L486.2 414.63L486.57 414.83L486.95 415.02L487.34 415.19L487.73 415.35L488.13 415.49L488.53 415.61L488.94 415.72L489.35 415.82L489.77 415.89L490.19 415.95L490.62 416L491.05 416.02L491.48 416.03L491.57 416.03L491.67 416.03L491.76 416.03L491.85 416.02L491.95 416.02L492.04 416.02L492.14 416.01L492.23 416.01L492.33 416L492.42 415.99L492.52 415.98L492.61 415.97L492.7 415.96L492.8 415.95L492.89 415.94L492.99 415.92L493.08 415.91L493.18 415.9L493.27 415.88L493.37 415.86L493.46 415.85L493.56 415.83L493.65 415.81L493.74 415.79L493.84 415.77L493.93 415.75L494.03 415.72L494.12 415.7L494.22 415.67L494.31 415.65L494.4 415.62L494.5 415.59L495.02 415.43L495.53 415.23L496.02 415.02L496.5 414.78L496.96 414.52L497.41 414.24L497.84 413.94L498.25 413.62L498.64 413.28L499.02 412.92L499.37 412.55L499.71 412.16L500.03 411.76L500.32 411.34L500.6 410.91L500.86 410.46L501.09 410.01L501.3 409.54L501.49 409.07L501.66 408.58L501.8 408.09L501.92 407.58L502.02 407.08L502.09 406.56L502.14 406.04L502.16 405.52L502.15 404.99L502.12 404.46L502.06 403.93L501.98 403.4L501.86 402.87L501.72 402.34L501.33 400.99L500.95 399.64L500.57 398.29L500.2 396.93L499.84 395.57L499.48 394.21L499.13 392.84L498.79 391.47L498.46 390.1L498.14 388.72L497.82 387.34L497.51 385.96L497.21 384.57L496.91 383.18L496.63 381.79L496.35 380.4L496.08 379L495.81 377.6L495.56 376.2L495.31 374.79L495.07 373.39L494.84 371.98L494.61 370.57L494.39 369.15L494.18 367.74L493.98 366.32L493.79 364.9L493.6 363.48L493.43 362.06L493.26 360.63L493.09 359.21L492.94 357.78L492.87 357.24L492.77 356.7L492.65 356.18L492.5 355.67L492.33 355.17L492.13 354.68L491.91 354.2L491.67 353.74L491.41 353.29L491.13 352.86L490.83 352.44L490.51 352.04L490.17 351.66L489.81 351.29L489.44 350.94L489.05 350.61L488.65 350.3L488.23 350.01L487.79 349.73L487.34 349.48L486.88 349.25L486.41 349.04L485.93 348.85L485.44 348.69L484.93 348.55L484.42 348.44L483.9 348.34L483.37 348.28L482.84 348.24L482.3 348.23L481.75 348.24L481.2 348.28ZM156.61 348.28L156.08 348.35L155.56 348.44L155.04 348.55L154.54 348.69L154.04 348.86L153.56 349.04L153.09 349.25L152.63 349.48L152.18 349.74L151.75 350.01L151.33 350.3L150.93 350.61L150.54 350.95L150.17 351.29L149.81 351.66L149.48 352.05L149.16 352.45L148.86 352.86L148.58 353.3L148.32 353.74L148.08 354.2L147.86 354.68L147.67 355.17L147.5 355.67L147.35 356.18L147.23 356.7L147.13 357.24L147.06 357.78L146.91 359.21L146.75 360.63L146.58 362.05L146.4 363.48L146.22 364.9L146.02 366.31L145.82 367.73L145.61 369.15L145.4 370.56L145.17 371.97L144.94 373.38L144.7 374.78L144.45 376.19L144.2 377.59L143.94 378.99L143.66 380.39L143.39 381.78L143.1 383.17L142.8 384.56L142.5 385.95L142.19 387.33L141.88 388.71L141.55 390.09L141.22 391.46L140.88 392.84L140.53 394.2L140.18 395.57L139.81 396.93L139.44 398.29L139.07 399.64L138.68 400.99L138.29 402.34L138.15 402.87L138.03 403.4L137.95 403.93L137.89 404.46L137.86 404.99L137.85 405.52L137.87 406.04L137.92 406.56L137.99 407.07L138.09 407.58L138.21 408.08L138.35 408.58L138.52 409.06L138.71 409.54L138.92 410.01L139.15 410.46L139.41 410.91L139.69 411.34L139.98 411.75L140.3 412.16L140.64 412.55L140.99 412.92L141.37 413.28L141.76 413.61L142.17 413.93L142.6 414.24L143.04 414.52L143.5 414.78L143.98 415.02L144.47 415.23L144.98 415.42L145.5 415.59L145.6 415.62L145.69 415.65L145.79 415.67L145.88 415.7L145.98 415.72L146.07 415.74L146.17 415.77L146.26 415.79L146.36 415.81L146.45 415.83L146.55 415.84L146.64 415.86L146.74 415.88L146.83 415.89L146.93 415.91L147.02 415.92L147.12 415.94L147.21 415.95L147.31 415.96L147.4 415.97L147.5 415.98L147.59 415.99L147.68 416L147.78 416L147.87 416.01L147.97 416.02L148.06 416.02L148.16 416.02L148.25 416.03L148.35 416.03L148.44 416.03L148.53 416.03L148.96 416.02L149.39 416L149.82 415.95L150.24 415.89L150.66 415.82L151.07 415.72L151.48 415.61L151.88 415.49L152.28 415.35L152.67 415.19L153.06 415.02L153.43 414.83L153.8 414.63L154.17 414.42L154.52 414.19L154.86 413.95L155.2 413.69L155.52 413.42L155.84 413.14L156.14 412.84L156.43 412.53L156.71 412.21L156.98 411.88L157.24 411.53L157.48 411.18L157.71 410.81L157.92 410.43L158.12 410.04L158.31 409.64L158.48 409.23L158.63 408.81L158.77 408.38L159.19 406.91L159.61 405.45L160.02 403.98L160.42 402.5L160.82 401.02L161.2 399.54L161.58 398.05L161.95 396.56L162.31 395.07L162.66 393.58L163.01 392.08L163.34 390.57L163.67 389.07L163.99 387.56L164.3 386.05L164.6 384.54L164.9 383.02L165.18 381.5L165.46 379.98L165.73 378.46L165.99 376.93L166.24 375.4L166.48 373.87L166.72 372.34L166.95 370.8L167.17 369.27L167.38 367.73L167.58 366.19L167.77 364.65L167.95 363.1L168.13 361.56L168.3 360.01L168.34 359.46L168.36 358.92L168.34 358.38L168.3 357.85L168.24 357.32L168.15 356.8L168.03 356.29L167.89 355.79L167.73 355.3L167.55 354.81L167.34 354.34L167.11 353.88L166.85 353.43L166.58 353L166.29 352.58L165.97 352.17L165.64 351.78L165.29 351.41L164.93 351.05L164.54 350.71L164.14 350.39L163.72 350.09L163.29 349.81L162.84 349.55L162.38 349.31L161.91 349.09L161.42 348.89L160.92 348.72L160.4 348.57L159.88 348.45L159.35 348.35L158.8 348.28L158.24 348.24L157.69 348.23L157.15 348.24L156.61 348.28ZM147.62 245.01L147.09 245.07L146.56 245.16L146.03 245.28L145.5 245.42L144.98 245.59L144.47 245.78L143.98 246L143.5 246.23L143.04 246.49L142.59 246.77L142.16 247.07L141.75 247.39L141.36 247.73L140.98 248.09L140.63 248.46L140.29 248.85L139.97 249.25L139.68 249.67L139.4 250.1L139.14 250.54L138.91 251L138.7 251.47L138.51 251.94L138.34 252.43L138.2 252.92L138.08 253.42L137.98 253.93L137.91 254.44L137.86 254.96L137.84 255.49L137.85 256.01L137.88 256.54L137.94 257.07L138.02 257.6L138.14 258.14L138.28 258.67L138.67 260.01L139.05 261.36L139.43 262.72L139.8 264.07L140.16 265.43L140.52 266.8L140.87 268.16L141.21 269.53L141.54 270.91L141.86 272.29L142.18 273.67L142.49 275.05L142.79 276.43L143.09 277.82L143.37 279.22L143.65 280.61L143.92 282.01L144.19 283.41L144.44 284.81L144.69 286.21L144.93 287.62L145.16 289.03L145.39 290.44L145.61 291.85L145.82 293.27L146.02 294.69L146.21 296.1L146.4 297.53L146.57 298.95L146.74 300.37L146.91 301.8L147.06 303.22L147.13 303.73L147.22 304.24L147.33 304.73L147.46 305.21L147.62 305.68L147.8 306.14L147.99 306.59L148.21 307.03L148.44 307.46L148.7 307.87L148.97 308.27L149.25 308.66L149.56 309.03L149.88 309.39L150.21 309.73L150.56 310.06L150.93 310.37L151.31 310.67L151.7 310.95L152.1 311.21L152.51 311.45L152.94 311.67L153.37 311.88L153.82 312.06L154.27 312.23L154.74 312.37L155.21 312.5L155.69 312.6L156.18 312.68L156.67 312.74L157.17 312.77L157.67 312.79L157.7 312.79L157.74 312.79L157.77 312.79L157.81 312.79L157.84 312.79L157.88 312.78L157.91 312.78L157.95 312.78L157.98 312.78L158.02 312.78L158.05 312.78L158.09 312.78L158.12 312.78L158.16 312.77L158.2 312.77L158.23 312.77L158.27 312.77L158.3 312.77L158.34 312.76L158.37 312.76L158.41 312.76L158.44 312.76L158.48 312.75L158.51 312.75L158.55 312.75L158.59 312.74L158.62 312.74L158.66 312.74L158.69 312.73L158.73 312.73L158.76 312.73L158.8 312.72L159.34 312.65L159.88 312.55L160.4 312.43L160.92 312.28L161.42 312.11L161.9 311.91L162.38 311.69L162.84 311.45L163.29 311.19L163.72 310.91L164.14 310.61L164.54 310.28L164.93 309.95L165.29 309.59L165.64 309.21L165.97 308.82L166.29 308.42L166.58 308L166.85 307.56L167.11 307.12L167.34 306.66L167.55 306.19L167.73 305.7L167.89 305.21L168.03 304.71L168.15 304.2L168.24 303.68L168.3 303.15L168.34 302.62L168.36 302.08L168.34 301.54L168.3 300.99L168.13 299.45L167.95 297.9L167.77 296.36L167.58 294.81L167.37 293.27L167.16 291.73L166.95 290.2L166.72 288.66L166.48 287.13L166.24 285.6L165.99 284.07L165.72 282.54L165.45 281.02L165.18 279.5L164.89 277.98L164.6 276.46L164.29 274.95L163.98 273.44L163.66 271.93L163.33 270.43L163 268.93L162.65 267.43L162.3 265.93L161.94 264.44L161.57 262.95L161.19 261.47L160.81 259.99L160.41 258.51L160.01 257.03L159.6 255.57L159.18 254.1L158.76 252.64L158.59 252.11L158.4 251.61L158.18 251.11L157.94 250.63L157.68 250.17L157.4 249.73L157.1 249.3L156.78 248.89L156.44 248.49L156.08 248.12L155.71 247.76L155.32 247.42L154.92 247.1L154.5 246.81L154.07 246.53L153.62 246.27L153.17 246.04L152.7 245.83L152.22 245.64L151.74 245.47L151.24 245.32L150.74 245.2L150.23 245.11L149.72 245.04L149.2 244.99L148.68 244.97L148.15 244.98L147.62 245.01ZM490.29 245.05L489.77 245.12L489.27 245.22L488.77 245.34L488.27 245.48L487.78 245.65L487.31 245.84L486.84 246.05L486.38 246.28L485.94 246.54L485.51 246.82L485.09 247.11L484.68 247.43L484.29 247.77L483.92 248.12L483.56 248.5L483.22 248.89L482.9 249.3L482.6 249.73L482.31 250.17L482.05 250.64L481.81 251.11L481.6 251.61L481.4 252.11L481.23 252.64L480.81 254.1L480.39 255.57L479.98 257.04L479.58 258.51L479.18 259.99L478.8 261.47L478.42 262.96L478.05 264.45L477.69 265.94L477.34 267.43L476.99 268.93L476.66 270.44L476.33 271.94L476.01 273.45L475.7 274.96L475.4 276.47L475.1 277.99L474.82 279.51L474.54 281.03L474.27 282.55L474.01 284.08L473.76 285.61L473.52 287.14L473.28 288.67L473.05 290.21L472.83 291.75L472.62 293.28L472.42 294.82L472.23 296.37L472.05 297.91L471.87 299.46L471.7 301L471.66 301.55L471.64 302.09L471.66 302.63L471.7 303.17L471.76 303.69L471.85 304.21L471.97 304.72L472.11 305.22L472.27 305.71L472.46 306.2L472.66 306.67L472.9 307.13L473.15 307.57L473.42 308.01L473.71 308.43L474.03 308.83L474.36 309.22L474.71 309.6L475.08 309.96L475.46 310.3L475.86 310.62L476.28 310.92L476.71 311.2L477.16 311.46L477.62 311.7L478.1 311.92L478.58 312.12L479.09 312.29L479.6 312.44L480.12 312.56L480.66 312.66L481.2 312.73L481.24 312.74L481.27 312.74L481.31 312.74L481.34 312.74L481.38 312.75L481.42 312.75L481.45 312.75L481.49 312.76L481.52 312.76L481.56 312.76L481.59 312.76L481.63 312.76L481.67 312.77L481.7 312.77L481.74 312.77L481.77 312.77L481.81 312.77L481.84 312.78L481.88 312.78L481.91 312.78L481.95 312.78L481.98 312.78L482.02 312.78L482.05 312.78L482.09 312.78L482.12 312.78L482.16 312.79L482.19 312.79L482.23 312.79L482.26 312.79L482.3 312.79L482.33 312.79L482.84 312.77L483.33 312.74L483.83 312.68L484.31 312.6L484.79 312.5L485.26 312.37L485.73 312.23L486.18 312.06L486.63 311.88L487.06 311.67L487.49 311.45L487.9 311.21L488.31 310.95L488.7 310.67L489.07 310.37L489.44 310.06L489.79 309.73L490.12 309.39L490.44 309.03L490.75 308.66L491.04 308.27L491.31 307.87L491.56 307.46L491.79 307.03L492.01 306.59L492.21 306.14L492.38 305.68L492.54 305.21L492.67 304.73L492.78 304.24L492.87 303.73L492.94 303.22L493.09 301.8L493.25 300.37L493.42 298.95L493.6 297.53L493.79 296.11L493.98 294.69L494.18 293.27L494.39 291.86L494.6 290.45L494.83 289.04L495.06 287.63L495.3 286.22L495.55 284.82L495.8 283.41L496.07 282.01L496.34 280.62L496.62 279.22L496.9 277.83L497.2 276.44L497.5 275.06L497.81 273.67L498.13 272.29L498.45 270.91L498.78 269.54L499.12 268.17L499.47 266.8L499.83 265.44L500.19 264.08L500.56 262.72L500.94 261.36L501.32 260.01L501.71 258.67L501.85 258.14L501.97 257.6L502.05 257.07L502.11 256.54L502.14 256.01L502.15 255.49L502.13 254.96L502.08 254.44L502.01 253.93L501.91 253.42L501.79 252.92L501.65 252.43L501.48 251.94L501.29 251.47L501.08 251L500.85 250.54L500.59 250.1L500.31 249.67L500.02 249.25L499.7 248.85L499.36 248.46L499.01 248.09L498.63 247.73L498.24 247.39L497.83 247.07L497.4 246.77L496.96 246.49L496.5 246.23L496.02 246L495.53 245.78L495.02 245.59L494.5 245.42L493.97 245.28L493.44 245.17L492.91 245.08L492.38 245.02L491.85 244.99L491.33 244.99L490.81 245.01L490.29 245.05ZM127.31 143.67L127.02 143.69L126.73 143.72L126.44 143.76L126.16 143.81L125.87 143.86L125.59 143.92L125.31 143.99L125.03 144.06L124.76 144.14L124.48 144.23L124.21 144.33L123.95 144.44L123.68 144.55L123.42 144.67L123.16 144.8L122.9 144.93L122.65 145.07L122.4 145.22L122.16 145.38L121.91 145.54L121.68 145.71L121.44 145.88L121.22 146.07L120.99 146.25L120.77 146.45L120.56 146.65L120.35 146.86L120.14 147.08L119.94 147.3L119.36 147.97L118.79 148.65L118.22 149.33L117.65 150.01L117.1 150.7L116.54 151.39L116 152.09L115.46 152.79L114.92 153.49L114.4 154.2L113.88 154.92L113.36 155.63L112.85 156.35L112.35 157.08L111.85 157.81L111.36 158.54L110.87 159.28L110.39 160.02L109.92 160.76L109.45 161.51L108.99 162.26L108.54 163.02L108.09 163.78L107.65 164.54L107.21 165.31L106.78 166.08L106.36 166.85L105.94 167.63L105.53 168.41L105.13 169.2L104.73 169.98L104.34 170.78L103.95 171.57L103.58 172.37L103.2 173.17L102.84 173.98L102.48 174.79L102.12 175.6L101.78 176.42L101.44 177.24L101.33 177.5L101.24 177.77L101.15 178.04L101.06 178.3L100.99 178.58L100.92 178.85L100.86 179.12L100.81 179.39L100.76 179.67L100.72 179.94L100.69 180.22L100.67 180.5L100.65 180.77L100.64 181.05L100.64 181.32L100.64 181.6L100.66 181.88L100.67 182.15L100.7 182.42L100.73 182.7L100.77 182.97L100.82 183.24L100.87 183.51L100.93 183.78L101 184.05L101.08 184.32L101.16 184.58L101.25 184.84L101.34 185.1L101.45 185.36L101.56 185.61L101.67 185.87L101.79 186.12L101.92 186.36L102.06 186.61L102.2 186.85L102.35 187.09L102.51 187.32L102.68 187.55L102.85 187.78L103.22 188.28L103.6 188.78L103.98 189.28L104.35 189.78L104.73 190.28L105.1 190.79L105.47 191.29L105.84 191.8L106.21 192.31L106.58 192.82L106.95 193.34L107.31 193.85L107.67 194.37L108.04 194.89L108.4 195.41L108.76 195.93L109.12 196.45L109.47 196.97L109.83 197.5L110.18 198.02L110.54 198.55L110.89 199.08L111.24 199.61L111.58 200.15L111.93 200.68L112.28 201.21L112.62 201.75L112.96 202.29L113.3 202.83L113.64 203.37L113.98 203.91L114.32 204.45L114.65 204.99L114.98 205.54L115.31 206.08L115.64 206.63L115.97 207.18L116.3 207.73L116.62 208.28L116.95 208.83L117.1 209.08L117.26 209.33L117.42 209.57L117.59 209.81L117.76 210.03L117.94 210.26L118.13 210.48L118.32 210.69L118.51 210.89L118.71 211.09L118.91 211.29L119.12 211.47L119.33 211.66L119.55 211.83L119.77 212L120 212.16L120.22 212.32L120.46 212.47L120.69 212.62L120.93 212.75L121.17 212.88L121.42 213.01L121.66 213.13L121.91 213.24L122.17 213.35L122.42 213.45L122.68 213.54L122.94 213.62L123.2 213.7L123.46 213.78L123.73 213.84L124 213.9L124.27 213.95L124.54 214L124.81 214.04L125.08 214.07L125.35 214.09L125.63 214.11L125.9 214.12L126.18 214.12L126.31 214.12L126.45 214.12L126.59 214.12L126.72 214.11L126.86 214.1L127 214.09L127.14 214.08L127.27 214.07L127.41 214.05L127.55 214.03L127.69 214.02L127.82 214L127.96 213.97L128.1 213.95L128.23 213.92L128.37 213.89L128.51 213.87L128.64 213.83L128.78 213.8L128.91 213.77L129.05 213.73L129.18 213.69L129.32 213.65L129.45 213.61L129.59 213.56L129.72 213.52L129.85 213.47L129.99 213.42L130.12 213.37L130.25 213.31L130.38 213.26L130.51 213.2L130.64 213.14L130.78 213.08L130.9 213.02L131.03 212.95L131.16 212.88L131.29 212.81L131.42 212.74L131.54 212.67L131.92 212.44L132.28 212.2L132.63 211.94L132.97 211.68L133.29 211.4L133.6 211.11L133.9 210.81L134.18 210.5L134.45 210.18L134.71 209.85L134.95 209.51L135.18 209.17L135.39 208.81L135.59 208.45L135.78 208.09L135.95 207.71L136.11 207.33L136.25 206.95L136.38 206.56L136.49 206.16L136.58 205.77L136.67 205.36L136.73 204.96L136.78 204.55L136.82 204.14L136.84 203.73L136.84 203.32L136.83 202.91L136.8 202.49L136.75 202.08L136.69 201.67L136.61 201.26L136.52 200.85L136.41 200.44L136.28 200.04L136.14 199.64L135.98 199.24L135.8 198.84L135.6 198.46L135.39 198.07L135.11 197.6L134.84 197.14L134.56 196.67L134.28 196.2L134 195.74L133.72 195.27L133.44 194.81L133.16 194.35L132.88 193.88L132.59 193.42L132.31 192.96L132.02 192.5L131.74 192.04L131.45 191.58L131.16 191.12L130.87 190.67L130.58 190.21L130.28 189.75L129.99 189.3L129.7 188.85L129.4 188.39L129.11 187.94L128.81 187.49L128.51 187.04L128.21 186.59L127.91 186.14L127.61 185.69L127.31 185.24L127.01 184.8L126.7 184.35L126.4 183.91L126.09 183.46L125.78 183.02L125.48 182.58L125.17 182.14L124.86 181.7L124.55 181.26L124.24 180.82L123.93 180.38L123.62 179.95L123.79 179.59L123.98 179.23L124.16 178.87L124.34 178.51L124.53 178.15L124.72 177.79L124.91 177.43L125.1 177.08L125.29 176.72L125.48 176.37L125.68 176.02L125.88 175.67L126.07 175.31L126.27 174.96L126.48 174.62L126.68 174.27L126.89 173.92L127.09 173.58L127.3 173.23L127.51 172.89L127.72 172.54L127.94 172.2L128.15 171.86L128.37 171.52L128.59 171.18L128.81 170.84L129.03 170.51L129.25 170.17L129.48 169.84L129.7 169.5L129.93 169.17L130.16 168.84L130.39 168.51L130.63 168.18L130.86 167.85L131.1 167.52L131.33 167.2L131.57 166.87L131.81 166.55L132.06 166.22L132.6 166.34L133.13 166.45L133.67 166.56L134.21 166.67L134.74 166.78L135.28 166.89L135.81 167L136.35 167.1L136.88 167.2L137.41 167.3L137.95 167.4L138.48 167.5L139.01 167.6L139.54 167.69L140.08 167.79L140.61 167.88L141.14 167.97L141.67 168.06L142.19 168.15L142.72 168.23L143.25 168.32L143.78 168.4L144.3 168.48L144.83 168.56L145.35 168.64L145.88 168.72L146.4 168.79L146.93 168.87L147.45 168.94L147.97 169.01L148.49 169.08L149.01 169.15L149.53 169.21L150.05 169.28L150.57 169.34L151.08 169.4L151.6 169.46L152.12 169.52L152.63 169.57L153.15 169.63L153.59 169.66L154.03 169.67L154.47 169.67L154.9 169.65L155.33 169.61L155.75 169.56L156.17 169.49L156.59 169.41L156.99 169.31L157.4 169.19L157.79 169.06L158.18 168.92L158.56 168.76L158.94 168.59L159.3 168.4L159.66 168.2L160.01 167.99L160.35 167.77L160.69 167.53L161.01 167.28L161.32 167.02L161.62 166.74L161.91 166.46L162.19 166.16L162.46 165.85L162.72 165.54L162.96 165.21L163.19 164.87L163.41 164.52L163.62 164.17L163.81 163.8L163.99 163.42L164.16 163.04L164.31 162.65L164.44 162.25L164.56 161.84L164.66 161.43L164.75 161.01L164.82 160.58L164.87 160.14L164.91 159.7L164.93 159.27L164.93 158.83L164.92 158.4L164.89 157.98L164.84 157.55L164.77 157.14L164.69 156.73L164.59 156.32L164.48 155.92L164.35 155.52L164.21 155.13L164.05 154.75L163.88 154.38L163.69 154.01L163.49 153.65L163.28 153.3L163.05 152.96L162.81 152.63L162.56 152.3L162.3 151.99L162.02 151.68L161.73 151.39L161.44 151.11L161.13 150.84L160.81 150.58L160.48 150.33L160.14 150.1L159.79 149.88L159.43 149.67L159.06 149.48L158.68 149.3L158.3 149.13L157.9 148.98L157.5 148.84L157.09 148.72L156.68 148.62L156.25 148.53L155.82 148.46L155.39 148.4L154.79 148.34L154.19 148.27L153.58 148.2L152.98 148.13L152.37 148.05L151.77 147.98L151.16 147.9L150.55 147.82L149.94 147.73L149.33 147.65L148.71 147.56L148.1 147.47L147.48 147.37L146.87 147.28L146.25 147.18L145.63 147.08L145.01 146.98L144.39 146.87L143.77 146.77L143.15 146.66L142.53 146.54L141.9 146.43L141.28 146.31L140.65 146.19L140.02 146.07L139.4 145.95L138.77 145.82L138.14 145.69L137.51 145.56L136.88 145.43L136.25 145.29L135.62 145.16L134.98 145.02L134.35 144.87L133.72 144.73L133.08 144.58L132.45 144.43L131.81 144.28L131.18 144.13L130.54 143.97L130.25 143.9L129.95 143.84L129.66 143.79L129.36 143.75L129.07 143.71L128.77 143.69L128.48 143.67L128.19 143.66L127.89 143.65L127.6 143.66L127.31 143.67ZM511.5 143.66L511.21 143.68L510.92 143.71L510.62 143.74L510.33 143.78L510.04 143.83L509.74 143.89L509.45 143.96L508.81 144.12L508.18 144.27L507.55 144.42L506.91 144.57L506.28 144.72L505.65 144.87L505.01 145.01L504.38 145.15L503.75 145.29L503.12 145.42L502.49 145.56L501.86 145.69L501.23 145.82L500.61 145.94L499.98 146.07L499.35 146.19L498.73 146.31L498.1 146.43L497.48 146.54L496.86 146.65L496.23 146.76L495.61 146.87L494.99 146.98L494.37 147.08L493.76 147.18L493.14 147.28L492.52 147.37L491.91 147.47L491.29 147.56L490.68 147.65L490.07 147.73L489.46 147.82L488.85 147.9L488.24 147.98L487.63 148.05L487.03 148.13L486.42 148.2L485.82 148.27L485.22 148.34L484.62 148.4L484.18 148.46L483.75 148.53L483.33 148.62L482.91 148.72L482.5 148.84L482.1 148.98L481.7 149.13L481.32 149.3L480.94 149.48L480.57 149.67L480.21 149.88L479.86 150.1L479.52 150.33L479.19 150.58L478.87 150.84L478.57 151.11L478.27 151.39L477.98 151.69L477.7 151.99L477.44 152.3L477.19 152.63L476.95 152.96L476.72 153.3L476.51 153.65L476.31 154.01L476.12 154.38L475.95 154.75L475.79 155.13L475.65 155.52L475.52 155.92L475.41 156.32L475.31 156.73L475.23 157.14L475.16 157.55L475.11 157.98L475.08 158.4L475.06 158.83L475.06 159.26L475.08 159.7L475.12 160.14L475.17 160.58L475.24 161L475.33 161.43L475.44 161.84L475.56 162.25L475.69 162.65L475.84 163.04L476.01 163.42L476.19 163.8L476.38 164.16L476.59 164.52L476.81 164.87L477.04 165.2L477.29 165.53L477.54 165.85L477.81 166.16L478.09 166.45L478.38 166.74L478.69 167.01L479 167.27L479.32 167.52L479.65 167.76L479.99 167.99L480.34 168.2L480.7 168.4L481.07 168.58L481.44 168.76L481.83 168.91L482.22 169.06L482.61 169.19L483.01 169.3L483.42 169.4L483.84 169.49L484.25 169.56L484.68 169.61L485.11 169.65L485.54 169.67L485.98 169.67L486.41 169.66L486.86 169.63L487.37 169.57L487.89 169.52L488.41 169.46L488.92 169.4L489.44 169.34L489.96 169.28L490.48 169.21L491 169.15L491.52 169.08L492.04 169.01L492.56 168.94L493.09 168.87L493.61 168.79L494.13 168.72L494.66 168.64L495.18 168.56L495.71 168.48L496.23 168.4L496.76 168.32L497.29 168.23L497.82 168.15L498.34 168.06L498.87 167.97L499.4 167.88L499.93 167.79L500.46 167.69L500.99 167.6L501.53 167.5L502.06 167.4L502.59 167.3L503.12 167.2L503.66 167.1L504.19 166.99L504.72 166.89L505.26 166.78L505.79 166.67L506.33 166.56L506.86 166.45L507.4 166.34L507.94 166.22L508.18 166.55L508.42 166.87L508.66 167.2L508.9 167.52L509.13 167.85L509.37 168.18L509.6 168.51L509.84 168.84L510.07 169.17L510.29 169.5L510.52 169.84L510.75 170.17L510.97 170.51L511.19 170.84L511.41 171.18L511.63 171.52L511.85 171.86L512.06 172.2L512.28 172.54L512.49 172.89L512.7 173.23L512.91 173.57L513.12 173.92L513.32 174.27L513.52 174.61L513.73 174.96L513.93 175.31L514.13 175.66L514.32 176.02L514.52 176.37L514.71 176.72L514.91 177.08L515.1 177.43L515.29 177.79L515.47 178.15L515.66 178.5L515.84 178.86L516.03 179.22L516.21 179.59L516.39 179.95L516.07 180.38L515.76 180.82L515.45 181.26L515.14 181.7L514.83 182.14L514.52 182.58L514.22 183.02L513.91 183.46L513.61 183.91L513.3 184.35L513 184.8L512.69 185.24L512.39 185.69L512.09 186.14L511.79 186.59L511.49 187.04L511.19 187.49L510.9 187.94L510.6 188.39L510.31 188.85L510.01 189.3L509.72 189.75L509.43 190.21L509.13 190.67L508.84 191.12L508.55 191.58L508.27 192.04L507.98 192.5L507.69 192.96L507.41 193.42L507.12 193.88L506.84 194.35L506.56 194.81L506.28 195.27L506 195.74L505.72 196.2L505.44 196.67L505.17 197.13L504.89 197.6L504.62 198.07L504.4 198.45L504.21 198.84L504.03 199.24L503.87 199.64L503.72 200.04L503.59 200.44L503.48 200.85L503.39 201.26L503.31 201.67L503.25 202.08L503.2 202.49L503.18 202.91L503.16 203.32L503.17 203.73L503.19 204.14L503.22 204.55L503.27 204.96L503.34 205.36L503.42 205.76L503.52 206.16L503.63 206.56L503.75 206.95L503.9 207.33L504.05 207.71L504.22 208.08L504.41 208.45L504.61 208.81L504.82 209.17L505.05 209.51L505.29 209.85L505.55 210.18L505.82 210.5L506.1 210.81L506.4 211.11L506.71 211.4L507.03 211.68L507.37 211.94L507.72 212.2L508.08 212.44L508.46 212.67L508.58 212.74L508.71 212.81L508.84 212.88L508.97 212.95L509.1 213.01L509.23 213.08L509.36 213.14L509.49 213.2L509.62 213.26L509.75 213.31L509.88 213.37L510.02 213.42L510.15 213.47L510.28 213.52L510.42 213.56L510.55 213.61L510.68 213.65L510.82 213.69L510.95 213.73L511.09 213.76L511.23 213.8L511.36 213.83L511.5 213.86L511.63 213.89L511.77 213.92L511.91 213.95L512.04 213.97L512.18 213.99L512.32 214.01L512.45 214.03L512.59 214.05L512.73 214.07L512.87 214.08L513 214.09L513.14 214.1L513.28 214.11L513.41 214.11L513.55 214.12L513.69 214.12L513.83 214.12L514.1 214.12L514.38 214.11L514.65 214.09L514.92 214.07L515.19 214.03L515.47 214L515.74 213.95L516 213.9L516.27 213.84L516.54 213.77L516.8 213.7L517.06 213.62L517.32 213.54L517.58 213.44L517.84 213.34L518.09 213.24L518.34 213.13L518.59 213.01L518.83 212.88L519.07 212.75L519.31 212.61L519.55 212.47L519.78 212.32L520.01 212.16L520.23 212L520.45 211.83L520.67 211.65L520.88 211.47L521.09 211.29L521.29 211.09L521.49 210.89L521.69 210.69L521.88 210.47L522.06 210.26L522.24 210.03L522.42 209.8L522.58 209.57L522.75 209.33L522.91 209.08L523.06 208.83L523.38 208.28L523.7 207.73L524.03 207.18L524.36 206.63L524.69 206.08L525.02 205.54L525.35 204.99L525.69 204.45L526.02 203.91L526.36 203.37L526.7 202.83L527.04 202.29L527.38 201.75L527.72 201.21L528.07 200.68L528.42 200.15L528.76 199.61L529.11 199.08L529.47 198.55L529.82 198.02L530.17 197.5L530.53 196.97L530.88 196.45L531.24 195.93L531.6 195.41L531.96 194.89L532.33 194.37L532.69 193.85L533.06 193.34L533.42 192.82L533.79 192.31L534.16 191.8L534.53 191.29L534.9 190.79L535.27 190.28L535.65 189.78L536.02 189.28L536.4 188.78L536.78 188.28L537.16 187.78L537.33 187.55L537.49 187.32L537.65 187.09L537.8 186.85L537.94 186.61L538.08 186.36L538.21 186.12L538.33 185.87L538.45 185.61L538.55 185.36L538.66 185.1L538.75 184.84L538.84 184.58L538.92 184.31L539 184.05L539.07 183.78L539.13 183.51L539.18 183.24L539.23 182.97L539.27 182.7L539.3 182.42L539.33 182.15L539.35 181.87L539.36 181.6L539.36 181.32L539.36 181.05L539.35 180.77L539.33 180.49L539.31 180.22L539.28 179.94L539.24 179.67L539.19 179.39L539.14 179.12L539.08 178.85L539.01 178.58L538.94 178.3L538.85 178.04L538.77 177.77L538.67 177.5L538.56 177.24L538.22 176.42L537.88 175.6L537.52 174.79L537.16 173.98L536.8 173.17L536.43 172.37L536.05 171.57L535.66 170.78L535.27 169.98L534.87 169.19L534.47 168.41L534.06 167.63L533.64 166.85L533.22 166.07L532.79 165.3L532.35 164.54L531.91 163.77L531.46 163.01L531.01 162.26L530.55 161.51L530.08 160.76L529.61 160.01L529.13 159.27L528.64 158.54L528.15 157.8L527.65 157.07L527.15 156.35L526.64 155.63L526.13 154.91L525.6 154.2L525.08 153.49L524.54 152.79L524 152.09L523.46 151.39L522.91 150.7L522.35 150.01L521.78 149.33L521.21 148.65L520.64 147.97L520.06 147.3L519.86 147.08L519.65 146.86L519.44 146.65L519.23 146.45L519 146.25L518.78 146.06L518.55 145.88L518.32 145.7L518.08 145.53L517.84 145.37L517.59 145.22L517.34 145.07L517.09 144.93L516.83 144.79L516.57 144.66L516.31 144.54L516.04 144.43L515.77 144.33L515.5 144.23L515.23 144.14L514.95 144.06L514.67 143.98L514.39 143.91L514.11 143.85L513.82 143.8L513.54 143.75L513.25 143.72L512.96 143.69L512.67 143.67L512.38 143.65L512.09 143.65L511.8 143.65L511.5 143.66ZM381.47 117.72L380.98 117.77L380.48 117.85L380 117.94L379.51 118.06L379.04 118.21L378.56 118.37L378.1 118.56L377.64 118.77L377.19 119L376.76 119.26L376.33 119.54L375.91 119.84L375.5 120.16L375.11 120.5L374.73 120.87L374.37 121.26L374.03 121.67L373.71 122.09L373.41 122.52L373.14 122.95L372.89 123.4L372.66 123.86L372.46 124.33L372.28 124.8L372.12 125.28L371.99 125.76L371.88 126.25L371.79 126.74L371.73 127.24L371.69 127.73L371.67 128.23L371.67 128.72L371.7 129.22L371.75 129.71L371.83 130.21L371.92 130.69L372.04 131.18L372.19 131.66L372.35 132.13L372.54 132.59L372.75 133.05L372.98 133.5L373.24 133.94L373.51 134.37L373.81 134.79L374.14 135.19L374.48 135.59L374.85 135.97L375.23 136.33L376.5 137.45L377.78 138.55L379.08 139.63L380.38 140.69L381.69 141.74L383.01 142.76L384.35 143.77L385.69 144.76L387.04 145.74L388.41 146.69L389.78 147.63L391.17 148.55L392.56 149.45L393.97 150.33L395.38 151.2L396.81 152.04L398.24 152.87L399.69 153.68L401.14 154.47L402.6 155.24L404.08 156L405.56 156.73L407.05 157.45L408.55 158.15L410.06 158.83L411.58 159.49L413.11 160.13L414.65 160.75L416.19 161.35L417.75 161.94L419.31 162.5L420.89 163.05L422.47 163.58L422.57 163.61L422.67 163.64L422.77 163.67L422.87 163.7L422.97 163.73L423.07 163.75L423.17 163.78L423.27 163.8L423.37 163.83L423.47 163.85L423.57 163.87L423.67 163.89L423.77 163.91L423.87 163.93L423.97 163.95L424.07 163.96L424.17 163.98L424.27 163.99L424.37 164.01L424.48 164.02L424.58 164.03L424.68 164.04L424.78 164.05L424.88 164.06L424.98 164.07L425.08 164.08L425.18 164.08L425.28 164.09L425.38 164.09L425.48 164.1L425.58 164.1L425.68 164.1L425.78 164.1L426.19 164.09L426.59 164.07L426.99 164.03L427.39 163.98L427.79 163.91L428.18 163.82L428.57 163.73L428.96 163.61L429.34 163.49L429.71 163.35L430.08 163.19L430.44 163.02L430.8 162.84L431.15 162.65L431.49 162.44L431.82 162.22L432.15 161.99L432.46 161.75L432.77 161.49L433.07 161.22L433.36 160.94L433.64 160.65L433.91 160.34L434.16 160.03L434.41 159.71L434.64 159.37L434.86 159.02L435.07 158.67L435.27 158.3L435.45 157.92L435.62 157.54L435.78 157.14L435.92 156.74L436.07 156.23L436.2 155.71L436.3 155.2L436.37 154.69L436.42 154.18L436.45 153.67L436.45 153.16L436.42 152.65L436.37 152.15L436.3 151.66L436.21 151.17L436.09 150.68L435.95 150.2L435.79 149.73L435.61 149.27L435.4 148.82L435.18 148.37L434.93 147.94L434.67 147.52L434.38 147.11L434.08 146.72L433.76 146.34L433.42 145.97L433.06 145.62L432.68 145.29L432.29 144.97L431.88 144.67L431.45 144.38L431.01 144.12L430.55 143.88L430.08 143.66L429.59 143.46L429.09 143.28L427.76 142.84L426.44 142.38L425.13 141.91L423.83 141.42L422.53 140.91L421.24 140.39L419.96 139.85L418.69 139.3L417.42 138.73L416.16 138.14L414.91 137.54L413.66 136.92L412.43 136.29L411.2 135.64L409.98 134.98L408.77 134.3L407.56 133.61L406.37 132.9L405.18 132.17L404 131.43L402.83 130.67L401.66 129.9L400.51 129.11L399.36 128.31L398.23 127.49L397.1 126.66L395.98 125.81L394.86 124.94L393.76 124.07L392.67 123.17L391.58 122.26L390.51 121.34L389.44 120.4L389.03 120.05L388.61 119.73L388.18 119.43L387.74 119.16L387.29 118.91L386.83 118.68L386.36 118.48L385.89 118.3L385.41 118.14L384.93 118.01L384.44 117.9L383.95 117.81L383.45 117.75L382.96 117.71L382.46 117.69L381.97 117.69L381.47 117.72ZM256.56 117.7L256.07 117.77L255.58 117.86L255.09 117.97L254.6 118.1L254.13 118.26L253.65 118.44L253.19 118.64L252.73 118.87L252.28 119.12L251.84 119.4L251.42 119.7L251 120.02L250.59 120.36L249.53 121.3L248.45 122.23L247.37 123.14L246.27 124.03L245.17 124.91L244.06 125.78L242.94 126.62L241.81 127.46L240.67 128.28L239.53 129.08L238.37 129.87L237.21 130.64L236.04 131.4L234.86 132.14L233.67 132.86L232.48 133.57L231.27 134.27L230.06 134.95L228.84 135.61L227.61 136.26L226.38 136.89L225.13 137.51L223.88 138.11L222.62 138.7L221.36 139.27L220.08 139.82L218.8 140.36L217.51 140.88L216.21 141.39L214.91 141.88L213.6 142.36L212.28 142.81L210.96 143.26L210.45 143.44L209.97 143.64L209.49 143.86L209.03 144.1L208.59 144.36L208.17 144.65L207.76 144.95L207.36 145.27L206.99 145.6L206.63 145.95L206.29 146.32L205.96 146.7L205.66 147.1L205.38 147.5L205.11 147.93L204.87 148.36L204.64 148.8L204.44 149.25L204.25 149.72L204.09 150.19L203.95 150.66L203.84 151.15L203.74 151.64L203.67 152.14L203.62 152.64L203.6 153.14L203.6 153.65L203.62 154.16L203.67 154.67L203.74 155.18L203.85 155.69L203.97 156.21L204.13 156.72L204.27 157.12L204.42 157.52L204.59 157.9L204.78 158.28L204.97 158.65L205.18 159L205.4 159.35L205.64 159.68L205.88 160.01L206.14 160.32L206.41 160.63L206.69 160.92L206.98 161.2L207.28 161.47L207.58 161.72L207.9 161.97L208.23 162.2L208.56 162.42L208.9 162.63L209.25 162.82L209.6 163L209.97 163.17L210.33 163.33L210.71 163.47L211.09 163.59L211.47 163.7L211.86 163.8L212.25 163.89L212.65 163.96L213.05 164.01L213.45 164.05L213.86 164.07L214.26 164.08L214.36 164.08L214.46 164.08L214.56 164.08L214.67 164.07L214.77 164.07L214.87 164.06L214.97 164.06L215.07 164.05L215.17 164.04L215.27 164.03L215.37 164.02L215.47 164.01L215.57 164L215.67 163.99L215.77 163.97L215.87 163.96L215.97 163.94L216.08 163.93L216.18 163.91L216.28 163.89L216.38 163.87L216.48 163.85L216.58 163.83L216.68 163.8L216.78 163.78L216.88 163.76L216.98 163.73L217.08 163.7L217.18 163.68L217.28 163.65L217.38 163.62L217.48 163.59L217.58 163.56L219.16 163.03L220.74 162.48L222.3 161.91L223.86 161.33L225.4 160.72L226.94 160.1L228.47 159.46L229.99 158.8L231.5 158.12L233 157.42L234.49 156.7L235.97 155.97L237.44 155.21L238.91 154.44L240.36 153.65L241.8 152.84L243.24 152.01L244.66 151.16L246.08 150.3L247.48 149.42L248.88 148.52L250.26 147.6L251.64 146.66L253 145.7L254.35 144.73L255.7 143.74L257.03 142.73L258.35 141.7L259.66 140.65L260.96 139.59L262.25 138.51L263.53 137.41L264.8 136.29L265.19 135.92L265.55 135.54L265.9 135.15L266.22 134.75L266.52 134.33L266.8 133.9L267.05 133.46L267.28 133.01L267.49 132.55L267.68 132.09L267.85 131.61L267.99 131.13L268.11 130.65L268.21 130.16L268.28 129.67L268.33 129.18L268.36 128.68L268.36 128.18L268.35 127.69L268.31 127.19L268.24 126.7L268.16 126.21L268.05 125.72L267.91 125.24L267.76 124.76L267.58 124.28L267.37 123.82L267.15 123.36L266.9 122.91L266.62 122.47L266.33 122.04L266.01 121.63L265.66 121.22L265.3 120.83L264.92 120.46L264.52 120.12L264.12 119.79L263.7 119.49L263.27 119.22L262.83 118.96L262.38 118.73L261.92 118.52L261.46 118.33L260.98 118.16L260.51 118.02L260.02 117.9L259.53 117.8L259.04 117.73L258.55 117.68L258.05 117.65L257.55 117.65L257.06 117.66L256.56 117.7ZM318.08 42.77L317.12 42.79L316.17 42.82L315.21 42.85L314.26 42.9L313.31 42.95L312.35 43.01L311.4 43.08L310.45 43.16L309.51 43.24L308.56 43.33L307.61 43.43L306.67 43.54L305.73 43.66L304.79 43.78L303.85 43.91L302.91 44.05L301.98 44.2L301.05 44.36L300.75 44.41L300.46 44.47L300.17 44.55L299.88 44.63L299.6 44.71L299.32 44.81L299.04 44.91L298.76 45.02L298.49 45.13L298.23 45.26L297.97 45.39L297.71 45.53L297.45 45.67L297.2 45.82L296.96 45.98L296.72 46.15L296.48 46.32L296.25 46.49L296.02 46.68L295.8 46.87L295.59 47.06L295.38 47.26L295.17 47.47L294.97 47.68L294.78 47.9L294.59 48.12L294.41 48.35L294.23 48.58L294.06 48.82L293.9 49.07L293.74 49.32L293.59 49.57L293.45 49.83L293.32 50.09L293.19 50.36L293.06 50.63L292.95 50.9L292.84 51.18L292.74 51.47L292.65 51.75L292.47 52.35L292.28 52.96L292.09 53.56L291.9 54.16L291.7 54.76L291.51 55.36L291.31 55.96L291.11 56.55L290.9 57.15L290.7 57.75L290.49 58.34L290.28 58.94L290.07 59.53L289.86 60.13L289.64 60.72L289.42 61.31L289.2 61.9L288.98 62.49L288.76 63.08L288.53 63.67L288.3 64.25L288.07 64.84L287.84 65.42L287.61 66.01L287.37 66.59L287.13 67.17L286.89 67.75L286.65 68.33L286.4 68.91L286.16 69.48L285.91 70.06L285.66 70.63L285.4 71.21L285.15 71.78L284.89 72.35L284.63 72.92L284.37 73.48L284.11 74.05L283.85 74.62L283.58 75.18L283.4 75.58L283.24 75.98L283.09 76.39L282.97 76.8L282.86 77.21L282.76 77.63L282.69 78.04L282.63 78.46L282.59 78.87L282.56 79.29L282.55 79.71L282.56 80.12L282.58 80.53L282.62 80.94L282.68 81.35L282.75 81.75L282.83 82.16L282.93 82.55L283.05 82.95L283.18 83.33L283.32 83.72L283.48 84.1L283.66 84.47L283.85 84.83L284.05 85.19L284.26 85.54L284.49 85.88L284.74 86.21L285 86.54L285.27 86.85L285.55 87.16L285.85 87.46L286.15 87.74L286.48 88.01L286.81 88.28L287.16 88.52L287.51 88.76L287.88 88.99L288.27 89.2L288.66 89.39L288.77 89.44L288.88 89.49L288.99 89.54L289.1 89.59L289.22 89.64L289.33 89.68L289.44 89.72L289.55 89.77L289.67 89.81L289.78 89.85L289.89 89.88L290.01 89.92L290.12 89.96L290.23 89.99L290.35 90.02L290.46 90.05L290.58 90.08L290.69 90.11L290.8 90.14L290.92 90.17L291.03 90.19L291.15 90.21L291.26 90.24L291.38 90.26L291.5 90.28L291.61 90.29L291.73 90.31L291.84 90.33L291.96 90.34L292.07 90.36L292.19 90.37L292.3 90.38L292.42 90.39L292.53 90.4L292.65 90.4L292.77 90.41L292.88 90.41L293 90.42L293.11 90.42L293.23 90.42L293.53 90.41L293.82 90.4L294.12 90.38L294.42 90.35L294.71 90.31L295.01 90.27L295.3 90.21L295.59 90.15L295.88 90.08L296.16 90.01L296.45 89.92L296.73 89.83L297.01 89.73L297.28 89.62L297.55 89.5L297.82 89.38L298.09 89.25L298.35 89.11L298.61 88.96L298.86 88.81L299.11 88.65L299.36 88.48L299.6 88.31L299.84 88.13L300.07 87.94L300.3 87.74L300.52 87.54L300.74 87.33L300.95 87.12L301.16 86.89L301.36 86.66L301.55 86.43L301.74 86.19L301.92 85.94L302.1 85.68L302.27 85.42L302.43 85.15L302.59 84.88L302.73 84.6L302.88 84.31L303.1 83.83L303.33 83.35L303.55 82.87L303.77 82.39L304 81.91L304.22 81.43L304.44 80.94L304.65 80.46L304.87 79.97L305.09 79.48L305.3 78.99L305.51 78.51L305.72 78.02L305.93 77.53L306.14 77.04L306.35 76.54L306.56 76.05L306.76 75.56L306.97 75.06L307.17 74.57L307.37 74.07L307.57 73.58L307.77 73.08L307.97 72.58L308.16 72.09L308.36 71.59L308.55 71.09L308.74 70.59L308.93 70.09L309.12 69.58L309.31 69.08L309.49 68.58L309.68 68.08L309.86 67.57L310.04 67.07L310.22 66.56L310.4 66.06L310.58 65.55L310.76 65.05L310.93 64.54L311.38 64.5L311.83 64.45L312.29 64.42L312.74 64.38L313.19 64.35L313.64 64.31L314.09 64.28L314.55 64.26L315 64.23L315.45 64.21L315.91 64.19L316.36 64.17L316.82 64.15L317.27 64.14L317.72 64.13L318.18 64.12L318.63 64.11L319.09 64.1L319.54 64.1L320 64.1L320.45 64.1L320.91 64.1L321.36 64.11L321.82 64.12L322.27 64.13L322.73 64.14L323.18 64.15L323.64 64.17L324.09 64.19L324.55 64.21L325 64.23L325.45 64.26L325.91 64.28L326.36 64.31L326.81 64.35L327.26 64.38L327.71 64.42L328.16 64.45L328.62 64.5L329.07 64.54L329.24 65.05L329.42 65.55L329.6 66.06L329.77 66.56L329.96 67.07L330.14 67.57L330.32 68.08L330.51 68.58L330.69 69.08L330.88 69.58L331.07 70.08L331.26 70.59L331.45 71.09L331.64 71.58L331.84 72.08L332.03 72.58L332.23 73.08L332.43 73.57L332.63 74.07L332.83 74.57L333.03 75.06L333.24 75.55L333.44 76.05L333.65 76.54L333.86 77.03L334.06 77.52L334.27 78.01L334.49 78.5L334.7 78.99L334.91 79.48L335.13 79.97L335.35 80.45L335.56 80.94L335.78 81.42L336 81.91L336.22 82.39L336.45 82.87L336.67 83.35L336.9 83.83L337.12 84.31L337.32 84.71L337.53 85.09L337.75 85.46L337.99 85.82L338.24 86.17L338.5 86.5L338.77 86.82L339.06 87.13L339.35 87.43L339.66 87.71L339.97 87.98L340.3 88.24L340.63 88.49L340.97 88.72L341.32 88.93L341.68 89.14L342.05 89.32L342.42 89.5L342.79 89.66L343.18 89.8L343.57 89.93L343.96 90.05L344.36 90.15L344.76 90.23L345.16 90.3L345.57 90.36L345.98 90.4L346.39 90.42L346.81 90.43L347.22 90.42L347.64 90.39L348.05 90.35L348.47 90.29L348.88 90.21L349.3 90.12L349.71 90.01L350.12 89.88L350.52 89.74L350.93 89.57L351.33 89.39L351.72 89.2L352.11 88.99L352.48 88.76L352.84 88.53L353.18 88.28L353.52 88.02L353.84 87.74L354.15 87.46L354.44 87.16L354.73 86.86L355 86.54L355.26 86.22L355.5 85.89L355.73 85.54L355.95 85.19L356.15 84.84L356.34 84.47L356.51 84.1L356.67 83.72L356.81 83.34L356.94 82.95L357.06 82.56L357.16 82.16L357.25 81.76L357.32 81.35L357.37 80.94L357.41 80.53L357.43 80.12L357.44 79.71L357.43 79.29L357.4 78.88L357.36 78.46L357.3 78.04L357.23 77.63L357.13 77.21L357.02 76.8L356.9 76.39L356.75 75.98L356.59 75.58L356.41 75.18L356.14 74.61L355.88 74.05L355.62 73.48L355.36 72.91L355.1 72.34L354.84 71.77L354.59 71.2L354.34 70.63L354.09 70.05L353.84 69.48L353.59 68.9L353.35 68.32L353.11 67.74L352.87 67.16L352.63 66.58L352.39 66L352.16 65.42L351.92 64.83L351.69 64.25L351.47 63.66L351.24 63.07L351.02 62.49L350.79 61.9L350.57 61.31L350.36 60.72L350.14 60.12L349.93 59.53L349.72 58.94L349.51 58.34L349.3 57.75L349.09 57.15L348.89 56.55L348.69 55.96L348.49 55.36L348.3 54.76L348.1 54.16L347.91 53.56L347.72 52.96L347.53 52.35L347.35 51.75L347.26 51.47L347.16 51.18L347.05 50.9L346.93 50.63L346.81 50.36L346.68 50.09L346.55 49.83L346.4 49.57L346.25 49.32L346.1 49.07L345.94 48.82L345.77 48.58L345.59 48.35L345.41 48.12L345.22 47.9L345.03 47.68L344.83 47.47L344.62 47.26L344.41 47.06L344.2 46.87L343.97 46.68L343.75 46.49L343.52 46.32L343.28 46.14L343.04 45.98L342.8 45.82L342.55 45.67L342.29 45.53L342.03 45.39L341.77 45.26L341.5 45.13L341.23 45.02L340.96 44.91L340.68 44.81L340.4 44.71L340.12 44.62L339.83 44.55L339.54 44.47L339.24 44.41L338.95 44.36L338.02 44.2L337.08 44.05L336.14 43.91L335.21 43.78L334.26 43.66L333.32 43.54L332.38 43.43L331.43 43.33L330.48 43.24L329.53 43.16L328.58 43.08L327.63 43.01L326.68 42.95L325.72 42.9L324.77 42.85L323.81 42.82L322.86 42.79L321.9 42.77L320.95 42.76L319.99 42.75L319.04 42.76L318.08 42.77Z" id="eWIJUtDIn"></path></defs><g><g><g><use xlink:href="#eWIJUtDIn" opacity="1" fill="#000000" fill-opacity="1"></use><g><use xlink:href="#eWIJUtDIn" opacity="1" fill-opacity="0" stroke="#000000" stroke-width="1" stroke-opacity="0"></use></g></g></g></g></svg>