<?xml version="1.0" encoding="iso-8859-1"?>
<!-- Generator: Adobe Illustrator 18.1.1, SVG Export Plug-In . SVG Version: 6.00 Build 0)  -->
<svg version="1.1" id="Capa_1" xmlns="http://www.w3.org/2000/svg" xmlns:xlink="http://www.w3.org/1999/xlink" x="0px" y="0px"
	 viewBox="0 0 612.002 612.002" style="enable-background:new 0 0 612.002 612.002;" xml:space="preserve">
<g>
	<g>
		<g>
			<path d="M610.762,277.401c-1.777-3.103-5.162-4.946-8.754-4.701l-8.143,0.517l-5.059-6.431c-2.21-2.811-5.801-4.128-9.327-3.385
				c-3.498,0.743-6.271,3.404-7.165,6.864l-2.022,7.889l-7.654,2.793c-3.366,1.222-5.745,4.259-6.13,7.823
				c-0.386,3.564,1.288,7.033,4.306,8.951l6.92,4.382l0.32,8.143c0.141,3.573,2.294,6.76,5.557,8.227
				c1.232,0.545,2.539,0.818,3.836,0.818c2.153,0,4.278-0.733,5.989-2.153l6.281-5.19l7.842,2.238
				c3.423,0.968,7.137-0.085,9.544-2.736c2.407-2.652,3.093-6.441,1.768-9.769l-3.009-7.597l4.532-6.732
				C612.398,284.358,612.539,280.513,610.762,277.401z"/>
			<g>
				<path d="M327.878,210.577c-15.524,0-30.135,6.046-41.117,17.037L16.994,497.363c-22.66,22.679-22.66,59.555,0.009,82.234
					c10.982,10.982,25.584,17.037,41.117,17.037s30.144-6.055,41.117-17.037l269.749-269.739
					c10.992-10.982,17.047-25.584,17.047-41.127c0-15.533-6.046-30.135-17.028-41.117
					C358.004,216.623,343.402,210.577,327.878,210.577z M335.748,276.592l-50.839,50.839l-15.749-15.749l50.839-50.839
					c2.84-2.84,6.159-3.263,7.879-3.263c1.721,0,5.04,0.423,7.879,3.263c2.84,2.84,3.263,6.149,3.263,7.87
					C339.011,270.443,338.588,273.752,335.748,276.592z"/>
				<path d="M543.234,286.136c2.172-8.114-0.15-16.765-6.093-22.707l-58.399-58.399l21.372-79.771
					c2.172-8.114-0.15-16.765-6.083-22.698c-5.942-5.942-14.612-8.274-22.707-6.083l-79.771,21.381l-58.4-58.399
					c-5.942-5.942-14.602-8.255-22.707-6.083c-8.114,2.172-14.452,8.509-16.614,16.624l-20.798,77.58l-58.343,7.259
					c-12.881,1.608-22.021,13.342-20.422,26.233c1.608,12.881,13.258,21.983,26.233,20.422l74.045-9.224
					c9.487-1.185,17.319-8.002,19.802-17.244l14.348-53.547l39.208,39.208c5.942,5.933,14.602,8.265,22.707,6.083l53.547-14.348
					l-14.348,53.547c-2.172,8.114,0.15,16.765,6.083,22.707l39.208,39.208l-53.557,14.348c-9.619,2.576-16.577,10.945-17.348,20.864
					l-6.065,77.204c-1.016,12.938,8.65,24.258,21.588,25.274c0.63,0.047,1.251,0.075,1.871,0.075
					c12.148,0,22.444-9.355,23.403-21.663l4.758-60.646l76.828-20.582C534.724,300.587,541.052,294.25,543.234,286.136z"/>
				<path d="M221.583,108.55l6.92,4.382l0.32,8.143c0.141,3.573,2.294,6.76,5.547,8.218c1.232,0.555,2.539,0.818,3.846,0.818
					c2.144,0,4.278-0.733,5.989-2.153l6.29-5.2l7.832,2.228c3.441,0.978,7.146-0.075,9.553-2.736
					c2.407-2.651,3.093-6.441,1.777-9.769l-3.009-7.597l4.532-6.732c2.003-2.971,2.144-6.826,0.357-9.929
					c-1.786-3.103-5.171-4.936-8.754-4.711l-8.143,0.517l-5.059-6.431c-2.21-2.802-5.83-4.118-9.327-3.385
					c-3.498,0.743-6.281,3.394-7.174,6.864l-2.022,7.889l-7.654,2.811c-3.366,1.222-5.745,4.259-6.13,7.823
					C216.891,103.163,218.565,106.632,221.583,108.55z"/>
				<path d="M574.008,156.221c-1.777-3.112-5.19-4.918-8.754-4.701l-8.143,0.517l-5.059-6.431c-2.21-2.802-5.82-4.118-9.327-3.385
					c-3.507,0.743-6.281,3.394-7.174,6.864l-2.022,7.889l-7.644,2.793c-3.366,1.222-5.745,4.259-6.13,7.823s1.288,7.033,4.316,8.951
					l6.911,4.382l0.31,8.133c0.141,3.573,2.294,6.76,5.557,8.227c1.232,0.555,2.539,0.818,3.846,0.818
					c2.144,0,4.269-0.733,5.989-2.153l6.29-5.19l7.832,2.228c3.441,0.968,7.146-0.075,9.553-2.727
					c2.407-2.661,3.093-6.441,1.768-9.769l-3.009-7.607l4.532-6.732C575.653,163.179,575.785,159.333,574.008,156.221z"/>
				<path d="M403.888,78.227c3.375,0,6.817-0.423,10.23-1.307c17.827-4.645,28.565-22.961,23.939-40.845
					c-3.874-14.771-19.049-23.657-33.802-19.811c-5.98,1.551-10.992,5.341-14.123,10.681c-3.122,5.331-3.987,11.556-2.435,17.526
					c2.708,10.352,13.295,16.605,23.685,13.916c2.51-0.649,4.024-3.216,3.366-5.726c-0.649-2.51-3.206-4.043-5.726-3.366
					c-5.331,1.382-10.832-1.843-12.233-7.193c-0.921-3.545-0.404-7.231,1.448-10.399c1.852-3.169,4.823-5.416,8.378-6.337
					c9.732-2.576,19.783,3.319,22.331,13.079c3.328,12.853-4.4,26.036-17.207,29.373c-16.68,4.316-33.811-5.698-38.137-22.35
					c-0.649-2.52-3.216-4.043-5.726-3.366c-2.52,0.649-4.024,3.216-3.366,5.726C369.259,66.098,385.798,78.227,403.888,78.227z"/>
				<path d="M520.461,337.473c-12.327,3.206-19.745,15.862-16.539,28.208c2.708,10.362,13.314,16.595,23.694,13.916
					c2.51-0.649,4.024-3.216,3.366-5.726c-0.649-2.51-3.216-4.043-5.726-3.366c-5.322,1.363-10.832-1.843-12.233-7.193
					c-1.899-7.325,2.501-14.828,9.807-16.736c9.76-2.539,19.783,3.338,22.34,13.098c3.338,12.853-4.382,26.026-17.207,29.364
					c-16.68,4.335-33.811-5.689-38.137-22.34c-0.649-2.52-3.225-4.043-5.726-3.366c-2.51,0.649-4.024,3.216-3.366,5.726
					c4.729,18.26,21.268,30.389,39.368,30.389c3.375,0,6.817-0.423,10.23-1.307c17.827-4.645,28.574-22.961,23.939-40.835
					C550.389,342.522,535.213,333.628,520.461,337.473z"/>
			</g>
		</g>
	</g>
	<g>
	</g>
	<g>
	</g>
	<g>
	</g>
	<g>
	</g>
	<g>
	</g>
	<g>
	</g>
	<g>
	</g>
	<g>
	</g>
	<g>
	</g>
	<g>
	</g>
	<g>
	</g>
	<g>
	</g>
	<g>
	</g>
	<g>
	</g>
	<g>
	</g>
</g>
<g>
</g>
<g>
</g>
<g>
</g>
<g>
</g>
<g>
</g>
<g>
</g>
<g>
</g>
<g>
</g>
<g>
</g>
<g>
</g>
<g>
</g>
<g>
</g>
<g>
</g>
<g>
</g>
<g>
</g>
</svg>
