<?xml version="1.0" encoding="iso-8859-1"?>
<!-- Generator: Adobe Illustrator 18.1.1, SVG Export Plug-In . SVG Version: 6.00 Build 0)  -->
<svg version="1.1" id="Capa_1" xmlns="http://www.w3.org/2000/svg" xmlns:xlink="http://www.w3.org/1999/xlink" x="0px" y="0px"
	 viewBox="0 0 15.163 15.163" style="enable-background:new 0 0 15.163 15.163;" xml:space="preserve">
<g>
	<path style="fill:#030104;" d="M11.649,10.797c-0.025-0.014-0.053-0.022-0.079-0.032L7.947,1.183l0.017-0.02
		C8.003,1.139,8.045,1.121,8.09,1.116c0.265-0.025,0.626,0.11,0.804,0.481c0.392,1.185,1.217,1.252,1.217,1.252
		S9.309,2.554,9.099,1.718C8.984,1.25,8.65,1.02,8.65,1.02C8.501,0.901,8.314,0.822,8.072,0.823c-0.033,0-0.063,0.01-0.096,0.016
		c0.02-0.025,0.039-0.047,0.066-0.062c0.181-0.093,0.477-0.1,0.71,0.114C8.973,1.152,9.19,1.293,9.382,1.37
		c0.422,0.655,0.974,0.701,0.974,0.701s-0.479-0.18-0.802-0.646c0.251,0.058,0.422,0.009,0.422,0.009S9.76,1.437,9.505,1.342
		C9.43,1.217,9.362,1.079,9.32,0.915C9.204,0.437,8.863,0.202,8.863,0.202C8.709,0.08,8.518-0.001,8.271,0
		C8.017,0.001,7.807,0.174,7.687,0.344c-0.014,0.02-0.089,0.124-0.104,0.144C7.524,0.564,7.166,1.303,7.166,1.303
		s-0.063,0.158-0.12,0.3c-0.01,0.018-0.018,0.036-0.022,0.056c-0.576,1.438-2.547,6.371-3.61,9.187
		c-0.887,0.382-2.531,1.252-2.331,2.391c0.153,0.871,1.085,1.708,6.832,1.923c0.118,0.002,0.241,0.003,0.368,0.003
		c2.154,0,5.412-0.241,5.777-1.669C14.343,12.389,12.921,11.473,11.649,10.797z M8.161,0.348C8.201,0.323,8.244,0.305,8.289,0.3
		C8.56,0.274,8.93,0.412,9.111,0.792C9.17,0.97,9.239,1.12,9.312,1.252c-0.134-0.076-0.267-0.18-0.379-0.334
		c-0.214-0.3-0.519-0.37-0.519-0.37C8.284,0.51,8.14,0.506,7.982,0.563L8.161,0.348z M7.811,13.959
		c-4.87,0.079-5.483-1.016-5.611-1.152c0.054-0.119,0.33-0.292,0.598-0.477c-0.041,0.129-0.069,0.225-0.076,0.271
		c-0.102,0.71,8.629,1.457,9.625,0l-0.097-0.256c0.569,0.411,0.638,0.618,0.648,0.618C12.651,13.397,10.867,13.908,7.811,13.959z"/>
</g>
<g>
</g>
<g>
</g>
<g>
</g>
<g>
</g>
<g>
</g>
<g>
</g>
<g>
</g>
<g>
</g>
<g>
</g>
<g>
</g>
<g>
</g>
<g>
</g>
<g>
</g>
<g>
</g>
<g>
</g>
</svg>
